<ttFont>
    <TTGlyph name=".notdef" xMin="80" yMin="0" xMax="1200" yMax="1600">
      <contour>
        <pt x="400" y="1040" on="1"/>
        <pt x="400" y="1015" on="0"/>
        <pt x="365" y="980" on="0"/>
        <pt x="340" y="980" on="1"/>
        <pt x="315" y="980" on="0"/>
        <pt x="280" y="1015" on="0"/>
        <pt x="280" y="1040" on="1"/>
        <pt x="280" y="1189" on="0"/>
        <pt x="491" y="1400" on="0"/>
        <pt x="640" y="1400" on="1"/>
        <pt x="789" y="1400" on="0"/>
        <pt x="1000" y="1189" on="0"/>
        <pt x="1000" y="1040" on="1"/>
        <pt x="1000" y="891" on="0"/>
        <pt x="894" y="785" on="1"/>
        <pt x="771" y="670" on="1"/>
        <pt x="700" y="600" on="0"/>
        <pt x="700" y="500" on="1"/>
        <pt x="700" y="475" on="0"/>
        <pt x="665" y="440" on="0"/>
        <pt x="640" y="440" on="1"/>
        <pt x="615" y="440" on="0"/>
        <pt x="580" y="475" on="0"/>
        <pt x="580" y="500" on="1"/>
        <pt x="580" y="649" on="0"/>
        <pt x="686" y="755" on="1"/>
        <pt x="810" y="870" on="1"/>
        <pt x="880" y="940" on="0"/>
        <pt x="880" y="1040" on="1"/>
        <pt x="880" y="1140" on="0"/>
        <pt x="740" y="1280" on="0"/>
        <pt x="640" y="1280" on="1"/>
        <pt x="540" y="1280" on="0"/>
        <pt x="400" y="1140" on="0"/>
      </contour>
      <contour>
        <pt x="730" y="290" on="1"/>
        <pt x="730" y="253" on="0"/>
        <pt x="678" y="200" on="0"/>
        <pt x="640" y="200" on="1"/>
        <pt x="603" y="200" on="0"/>
        <pt x="550" y="253" on="0"/>
        <pt x="550" y="290" on="1"/>
        <pt x="550" y="328" on="0"/>
        <pt x="603" y="380" on="0"/>
        <pt x="640" y="380" on="1"/>
        <pt x="678" y="380" on="0"/>
        <pt x="730" y="328" on="0"/>
      </contour>
      <contour>
        <pt x="200" y="120" on="1"/>
        <pt x="1080" y="120" on="1"/>
        <pt x="1080" y="1480" on="1"/>
        <pt x="200" y="1480" on="1"/>
      </contour>
      <contour>
        <pt x="140" y="0" on="1"/>
        <pt x="115" y="0" on="0"/>
        <pt x="80" y="35" on="0"/>
        <pt x="80" y="60" on="1"/>
        <pt x="80" y="1540" on="1"/>
        <pt x="80" y="1565" on="0"/>
        <pt x="115" y="1600" on="0"/>
        <pt x="140" y="1600" on="1"/>
        <pt x="1140" y="1600" on="1"/>
        <pt x="1165" y="1600" on="0"/>
        <pt x="1200" y="1565" on="0"/>
        <pt x="1200" y="1540" on="1"/>
        <pt x="1200" y="60" on="1"/>
        <pt x="1200" y="35" on="0"/>
        <pt x="1165" y="0" on="0"/>
        <pt x="1140" y="0" on="1"/>
      </contour>
    </TTGlyph>
    <TTGlyph name="A" xMin="80" yMin="0" xMax="1360" yMax="1600">
      <contour>
        <pt x="433" y="560" on="1"/>
        <pt x="234" y="49" on="1"/>
        <pt x="228" y="35" on="0"/>
        <pt x="217" y="23" on="1"/>
        <pt x="193" y="0" on="0"/>
        <pt x="160" y="0" on="1"/>
        <pt x="127" y="0" on="0"/>
        <pt x="80" y="47" on="0"/>
        <pt x="80" y="80" on="1"/>
        <pt x="80" y="99" on="0"/>
        <pt x="87" y="114" on="1"/>
        <pt x="643" y="1544" on="1"/>
        <pt x="649" y="1562" on="0"/>
        <pt x="664" y="1577" on="1"/>
        <pt x="687" y="1600" on="0"/>
        <pt x="720" y="1600" on="1"/>
        <pt x="753" y="1600" on="0"/>
        <pt x="777" y="1577" on="1"/>
        <pt x="791" y="1562" on="0"/>
        <pt x="797" y="1544" on="1"/>
        <pt x="1353" y="114" on="1"/>
        <pt x="1360" y="99" on="0"/>
        <pt x="1360" y="80" on="1"/>
        <pt x="1360" y="47" on="0"/>
        <pt x="1313" y="0" on="0"/>
        <pt x="1280" y="0" on="1"/>
        <pt x="1247" y="0" on="0"/>
        <pt x="1224" y="23" on="1"/>
        <pt x="1212" y="35" on="0"/>
        <pt x="1206" y="49" on="1"/>
        <pt x="1007" y="560" on="1"/>
      </contour>
      <contour>
        <pt x="945" y="720" on="1"/>
        <pt x="720" y="1299" on="1"/>
        <pt x="495" y="720" on="1"/>
      </contour>
    </TTGlyph>
    <TTGlyph name="AE" xMin="80" yMin="0" xMax="1680" yMax="1600">
      <contour>
        <pt x="880" y="1210" on="1"/>
        <pt x="652" y="800" on="1"/>
        <pt x="880" y="800" on="1"/>
      </contour>
      <contour>
        <pt x="1600" y="1600" on="1"/>
        <pt x="1633" y="1600" on="0"/>
        <pt x="1680" y="1553" on="0"/>
        <pt x="1680" y="1520" on="1"/>
        <pt x="1680" y="1487" on="0"/>
        <pt x="1633" y="1440" on="0"/>
        <pt x="1600" y="1440" on="1"/>
        <pt x="1040" y="1440" on="1"/>
        <pt x="1040" y="800" on="1"/>
        <pt x="1440" y="800" on="1"/>
        <pt x="1473" y="800" on="0"/>
        <pt x="1520" y="753" on="0"/>
        <pt x="1520" y="720" on="1"/>
        <pt x="1520" y="687" on="0"/>
        <pt x="1473" y="640" on="0"/>
        <pt x="1440" y="640" on="1"/>
        <pt x="1040" y="640" on="1"/>
        <pt x="1040" y="160" on="1"/>
        <pt x="1600" y="160" on="1"/>
        <pt x="1633" y="160" on="0"/>
        <pt x="1680" y="113" on="0"/>
        <pt x="1680" y="80" on="1"/>
        <pt x="1680" y="47" on="0"/>
        <pt x="1633" y="0" on="0"/>
        <pt x="1600" y="0" on="1"/>
        <pt x="960" y="0" on="1"/>
        <pt x="927" y="0" on="0"/>
        <pt x="880" y="47" on="0"/>
        <pt x="880" y="80" on="1"/>
        <pt x="880" y="640" on="1"/>
        <pt x="563" y="640" on="1"/>
        <pt x="228" y="37" on="1"/>
        <pt x="203" y="0" on="0"/>
        <pt x="160" y="0" on="1"/>
        <pt x="127" y="0" on="0"/>
        <pt x="80" y="47" on="0"/>
        <pt x="80" y="80" on="1"/>
        <pt x="80" y="102" on="0"/>
        <pt x="90" y="119" on="1"/>
        <pt x="892" y="1563" on="1"/>
        <pt x="915" y="1600" on="0"/>
        <pt x="960" y="1600" on="1"/>
      </contour>
    </TTGlyph>
    <TTGlyph name="AEacute" xMin="80" yMin="0" xMax="1680" yMax="2080">
      <component glyphName="AE" x="0" y="0" flags="0x200"/>
      <component glyphName="acute" x="800" y="480" flags="0x0"/>
    </TTGlyph>
    <TTGlyph name="Aacute" xMin="80" yMin="0" xMax="1360" yMax="2080">
      <component glyphName="A" x="0" y="0" flags="0x200"/>
      <component glyphName="acute" x="507" y="480" flags="0x0"/>
    </TTGlyph>
    <TTGlyph name="Abreve" xMin="80" yMin="0" xMax="1360" yMax="2040">
      <component glyphName="A" x="0" y="0" flags="0x200"/>
      <component glyphName="breve" x="326" y="480" flags="0x0"/>
    </TTGlyph>
    <TTGlyph name="Acircumflex" xMin="80" yMin="0" xMax="1360" yMax="2040">
      <component glyphName="A" x="0" y="0" flags="0x200"/>
      <component glyphName="circumflex" x="320" y="480" flags="0x0"/>
    </TTGlyph>
    <TTGlyph name="Adieresis" xMin="80" yMin="0" xMax="1360" yMax="1940">
      <component glyphName="A" x="0" y="0" flags="0x200"/>
      <component glyphName="dieresis" x="241" y="480" flags="0x0"/>
    </TTGlyph>
    <TTGlyph name="Agrave" xMin="80" yMin="0" xMax="1360" yMax="2080">
      <component glyphName="A" x="0" y="0" flags="0x200"/>
      <component glyphName="grave" x="373" y="480" flags="0x0"/>
    </TTGlyph>
    <TTGlyph name="Alpha" xMin="80" yMin="0" xMax="1360" yMax="1600">
      <component glyphName="A" x="0" y="0" flags="0x200"/>
    </TTGlyph>
    <TTGlyph name="Alphatonos" xMin="80" yMin="0" xMax="1360" yMax="1600">
      <contour>
        <pt x="538" y="1464" on="1"/>
        <pt x="295" y="1221" on="1"/>
        <pt x="272" y="1200" on="0"/>
        <pt x="240" y="1200" on="1"/>
        <pt x="207" y="1200" on="0"/>
        <pt x="160" y="1247" on="0"/>
        <pt x="160" y="1280" on="1"/>
        <pt x="160" y="1311" on="0"/>
        <pt x="180" y="1334" on="1"/>
        <pt x="423" y="1577" on="1"/>
        <pt x="447" y="1600" on="0"/>
        <pt x="480" y="1600" on="1"/>
        <pt x="513" y="1600" on="0"/>
        <pt x="560" y="1553" on="0"/>
        <pt x="560" y="1520" on="1"/>
        <pt x="560" y="1488" on="0"/>
      </contour>
      <contour>
        <pt x="433" y="560" on="1"/>
        <pt x="234" y="49" on="1"/>
        <pt x="228" y="35" on="0"/>
        <pt x="217" y="23" on="1"/>
        <pt x="193" y="0" on="0"/>
        <pt x="160" y="0" on="1"/>
        <pt x="127" y="0" on="0"/>
        <pt x="80" y="47" on="0"/>
        <pt x="80" y="80" on="1"/>
        <pt x="80" y="99" on="0"/>
        <pt x="87" y="114" on="1"/>
        <pt x="643" y="1544" on="1"/>
        <pt x="649" y="1562" on="0"/>
        <pt x="664" y="1577" on="1"/>
        <pt x="687" y="1600" on="0"/>
        <pt x="720" y="1600" on="1"/>
        <pt x="753" y="1600" on="0"/>
        <pt x="777" y="1577" on="1"/>
        <pt x="791" y="1562" on="0"/>
        <pt x="797" y="1544" on="1"/>
        <pt x="1353" y="114" on="1"/>
        <pt x="1360" y="99" on="0"/>
        <pt x="1360" y="80" on="1"/>
        <pt x="1360" y="47" on="0"/>
        <pt x="1313" y="0" on="0"/>
        <pt x="1280" y="0" on="1"/>
        <pt x="1247" y="0" on="0"/>
        <pt x="1224" y="23" on="1"/>
        <pt x="1212" y="35" on="0"/>
        <pt x="1206" y="49" on="1"/>
        <pt x="1007" y="560" on="1"/>
      </contour>
      <contour>
        <pt x="945" y="720" on="1"/>
        <pt x="720" y="1299" on="1"/>
        <pt x="495" y="720" on="1"/>
      </contour>
    </TTGlyph>
    <TTGlyph name="Amacron" xMin="80" yMin="0" xMax="1360" yMax="1920">
      <component glyphName="A" x="0" y="0" flags="0x200"/>
      <component glyphName="uni02C9" x="320" y="480" flags="0x0"/>
    </TTGlyph>
    <TTGlyph name="Aogonek" xMin="80" yMin="-400" xMax="1521" yMax="1600">
      <component glyphName="A" x="0" y="0" flags="0x0"/>
      <component glyphName="ogonek" x="961" y="80" flags="0x0"/>
    </TTGlyph>
    <TTGlyph name="Aring" xMin="80" yMin="0" xMax="1360" yMax="2080">
      <component glyphName="A" x="0" y="0" flags="0x200"/>
      <component glyphName="ring" x="438" y="480" flags="0x0"/>
    </TTGlyph>
    <TTGlyph name="Aringacute" xMin="80" yMin="0" xMax="1360" yMax="2080">
      <contour>
        <pt x="945" y="720" on="1"/>
        <pt x="720" y="1299" on="1"/>
        <pt x="495" y="720" on="1"/>
      </contour>
      <contour>
        <pt x="719" y="1802" on="1"/>
        <pt x="677" y="1802" on="0"/>
        <pt x="618" y="1743" on="0"/>
        <pt x="618" y="1702" on="1"/>
        <pt x="618" y="1660" on="0"/>
        <pt x="677" y="1601" on="0"/>
        <pt x="719" y="1601" on="1"/>
        <pt x="760" y="1601" on="0"/>
        <pt x="819" y="1660" on="0"/>
        <pt x="819" y="1702" on="1"/>
        <pt x="819" y="1743" on="0"/>
        <pt x="760" y="1802" on="0"/>
      </contour>
      <contour>
        <pt x="807" y="1520" on="1"/>
        <pt x="1353" y="114" on="1"/>
        <pt x="1360" y="99" on="0"/>
        <pt x="1360" y="80" on="1"/>
        <pt x="1360" y="47" on="0"/>
        <pt x="1313" y="0" on="0"/>
        <pt x="1280" y="0" on="1"/>
        <pt x="1247" y="0" on="0"/>
        <pt x="1224" y="24" on="1"/>
        <pt x="1212" y="35" on="0"/>
        <pt x="1206" y="49" on="1"/>
        <pt x="1007" y="560" on="1"/>
        <pt x="433" y="560" on="1"/>
        <pt x="234" y="49" on="1"/>
        <pt x="228" y="35" on="0"/>
        <pt x="217" y="24" on="1"/>
        <pt x="193" y="0" on="0"/>
        <pt x="160" y="0" on="1"/>
        <pt x="127" y="0" on="0"/>
        <pt x="80" y="47" on="0"/>
        <pt x="80" y="80" on="1"/>
        <pt x="80" y="99" on="0"/>
        <pt x="87" y="114" on="1"/>
        <pt x="633" y="1518" on="1"/>
        <pt x="602" y="1533" on="0"/>
        <pt x="576" y="1559" on="1"/>
        <pt x="517" y="1618" on="0"/>
        <pt x="517" y="1702" on="1"/>
        <pt x="517" y="1789" on="0"/>
        <pt x="590" y="1857" on="1"/>
        <pt x="560" y="1887" on="0"/>
        <pt x="560" y="1920" on="1"/>
        <pt x="560" y="1951" on="0"/>
        <pt x="580" y="1974" on="1"/>
        <pt x="663" y="2057" on="1"/>
        <pt x="687" y="2080" on="0"/>
        <pt x="720" y="2080" on="1"/>
        <pt x="753" y="2080" on="0"/>
        <pt x="800" y="2033" on="0"/>
        <pt x="800" y="2000" on="1"/>
        <pt x="800" y="1968" on="0"/>
        <pt x="778" y="1944" on="1"/>
        <pt x="736" y="1902" on="1"/>
        <pt x="808" y="1897" on="0"/>
        <pt x="861" y="1844" on="1"/>
        <pt x="920" y="1785" on="0"/>
        <pt x="920" y="1702" on="1"/>
        <pt x="920" y="1618" on="0"/>
        <pt x="861" y="1559" on="1"/>
        <pt x="836" y="1534" on="0"/>
      </contour>
    </TTGlyph>
    <TTGlyph name="Atilde" xMin="80" yMin="0" xMax="1360" yMax="1996">
      <component glyphName="A" x="0" y="0" flags="0x200"/>
      <component glyphName="tilde" x="237" y="480" flags="0x0"/>
    </TTGlyph>
    <TTGlyph name="B" xMin="80" yMin="0" xMax="1040" yMax="1600">
      <contour>
        <pt x="240" y="1440" on="1"/>
        <pt x="240" y="960" on="1"/>
        <pt x="480" y="960" on="1"/>
        <pt x="579" y="960" on="0"/>
        <pt x="720" y="1101" on="0"/>
        <pt x="720" y="1200" on="1"/>
        <pt x="720" y="1299" on="0"/>
        <pt x="579" y="1440" on="0"/>
        <pt x="480" y="1440" on="1"/>
      </contour>
      <contour>
        <pt x="240" y="800" on="1"/>
        <pt x="240" y="160" on="1"/>
        <pt x="560" y="160" on="1"/>
        <pt x="693" y="160" on="0"/>
        <pt x="880" y="347" on="0"/>
        <pt x="880" y="480" on="1"/>
        <pt x="880" y="613" on="0"/>
        <pt x="693" y="800" on="0"/>
        <pt x="560" y="800" on="1"/>
      </contour>
      <contour>
        <pt x="160" y="1600" on="1"/>
        <pt x="480" y="1600" on="1"/>
        <pt x="646" y="1600" on="0"/>
        <pt x="880" y="1366" on="0"/>
        <pt x="880" y="1200" on="1"/>
        <pt x="880" y="1034" on="0"/>
        <pt x="763" y="917" on="1"/>
        <pt x="837" y="882" on="0"/>
        <pt x="900" y="820" on="1"/>
        <pt x="1040" y="679" on="0"/>
        <pt x="1040" y="480" on="1"/>
        <pt x="1040" y="281" on="0"/>
        <pt x="759" y="0" on="0"/>
        <pt x="560" y="0" on="1"/>
        <pt x="160" y="0" on="1"/>
        <pt x="127" y="0" on="0"/>
        <pt x="80" y="47" on="0"/>
        <pt x="80" y="80" on="1"/>
        <pt x="80" y="1520" on="1"/>
        <pt x="80" y="1553" on="0"/>
        <pt x="127" y="1600" on="0"/>
      </contour>
    </TTGlyph>
    <TTGlyph name="Beta" xMin="80" yMin="0" xMax="1040" yMax="1600">
      <component glyphName="B" x="0" y="0" flags="0x200"/>
    </TTGlyph>
    <TTGlyph name="C" xMin="80" yMin="0" xMax="1412" yMax="1600">
      <contour>
        <pt x="1326" y="314" on="1"/>
        <pt x="1359" y="314" on="0"/>
        <pt x="1406" y="267" on="0"/>
        <pt x="1406" y="234" on="1"/>
        <pt x="1406" y="201" on="0"/>
        <pt x="1383" y="178" on="1"/>
        <pt x="1160" y="0" on="0"/>
        <pt x="880" y="0" on="1"/>
        <pt x="549" y="0" on="0"/>
        <pt x="80" y="469" on="0"/>
        <pt x="80" y="800" on="1"/>
        <pt x="80" y="1131" on="0"/>
        <pt x="549" y="1600" on="0"/>
        <pt x="880" y="1600" on="1"/>
        <pt x="1166" y="1600" on="0"/>
        <pt x="1389" y="1417" on="1"/>
        <pt x="1412" y="1393" on="0"/>
        <pt x="1412" y="1360" on="1"/>
        <pt x="1412" y="1327" on="0"/>
        <pt x="1365" y="1280" on="0"/>
        <pt x="1332" y="1280" on="1"/>
        <pt x="1299" y="1280" on="0"/>
        <pt x="1275" y="1304" on="1"/>
        <pt x="1106" y="1440" on="0"/>
        <pt x="880" y="1440" on="1"/>
        <pt x="615" y="1440" on="0"/>
        <pt x="240" y="1065" on="0"/>
        <pt x="240" y="800" on="1"/>
        <pt x="240" y="535" on="0"/>
        <pt x="615" y="160" on="0"/>
        <pt x="880" y="160" on="1"/>
        <pt x="1109" y="160" on="0"/>
        <pt x="1280" y="300" on="1"/>
        <pt x="1300" y="314" on="0"/>
      </contour>
    </TTGlyph>
    <TTGlyph name="Cacute" xMin="80" yMin="0" xMax="1412" yMax="2080">
      <component glyphName="C" x="0" y="0" flags="0x200"/>
      <component glyphName="acute" x="641" y="480" flags="0x0"/>
    </TTGlyph>
    <TTGlyph name="Ccaron" xMin="80" yMin="0" xMax="1412" yMax="2040">
      <component glyphName="C" x="0" y="0" flags="0x200"/>
      <component glyphName="caron" x="479" y="480" flags="0x0"/>
    </TTGlyph>
    <TTGlyph name="Ccedilla" xMin="80" yMin="-480" xMax="1412" yMax="1600">
      <component glyphName="C" x="0" y="0" flags="0x200"/>
      <component glyphName="cedilla" x="426" y="0" flags="0x0"/>
    </TTGlyph>
    <TTGlyph name="Ccircumflex" xMin="80" yMin="0" xMax="1412" yMax="2040">
      <component glyphName="C" x="0" y="0" flags="0x200"/>
      <component glyphName="circumflex" x="481" y="480" flags="0x0"/>
    </TTGlyph>
    <TTGlyph name="Cdotaccent" xMin="80" yMin="0" xMax="1412" yMax="1961">
      <component glyphName="C" x="0" y="0" flags="0x200"/>
      <component glyphName="dotaccent" x="679" y="480" flags="0x0"/>
    </TTGlyph>
    <TTGlyph name="Chi" xMin="80" yMin="0" xMax="1360" yMax="1600">
      <component glyphName="X" x="0" y="0" flags="0x200"/>
    </TTGlyph>
    <TTGlyph name="D" xMin="80" yMin="0" xMax="1280" yMax="1600">
      <contour>
        <pt x="480" y="160" on="1"/>
        <pt x="745" y="160" on="0"/>
        <pt x="1120" y="535" on="0"/>
        <pt x="1120" y="800" on="1"/>
        <pt x="1120" y="1065" on="0"/>
        <pt x="745" y="1440" on="0"/>
        <pt x="480" y="1440" on="1"/>
        <pt x="240" y="1440" on="1"/>
        <pt x="240" y="160" on="1"/>
      </contour>
      <contour>
        <pt x="480" y="1600" on="1"/>
        <pt x="811" y="1600" on="0"/>
        <pt x="1280" y="1131" on="0"/>
        <pt x="1280" y="800" on="1"/>
        <pt x="1280" y="469" on="0"/>
        <pt x="811" y="0" on="0"/>
        <pt x="480" y="0" on="1"/>
        <pt x="160" y="0" on="1"/>
        <pt x="127" y="0" on="0"/>
        <pt x="80" y="47" on="0"/>
        <pt x="80" y="80" on="1"/>
        <pt x="80" y="1520" on="1"/>
        <pt x="80" y="1553" on="0"/>
        <pt x="127" y="1600" on="0"/>
        <pt x="160" y="1600" on="1"/>
      </contour>
    </TTGlyph>
    <TTGlyph name="Dcaron" xMin="80" yMin="0" xMax="1280" yMax="2040">
      <component glyphName="D" x="0" y="0" flags="0x200"/>
      <component glyphName="caron" x="160" y="480" flags="0x0"/>
    </TTGlyph>
    <TTGlyph name="Dcroat" xMin="0" yMin="0" xMax="1439" yMax="1600">
      <component glyphName="Eth" x="0" y="0" flags="0x200"/>
    </TTGlyph>
    <TTGlyph name="Delta" xMin="80" yMin="0" xMax="1360" yMax="1600">
      <contour>
        <pt x="160" y="0" on="1"/>
        <pt x="127" y="0" on="0"/>
        <pt x="80" y="47" on="0"/>
        <pt x="80" y="80" on="1"/>
        <pt x="80" y="102" on="0"/>
        <pt x="90" y="125" on="1"/>
        <pt x="647" y="1550" on="1"/>
        <pt x="653" y="1565" on="0"/>
        <pt x="664" y="1576" on="1"/>
        <pt x="687" y="1600" on="0"/>
        <pt x="720" y="1600" on="1"/>
        <pt x="753" y="1600" on="0"/>
        <pt x="777" y="1576" on="1"/>
        <pt x="787" y="1565" on="0"/>
        <pt x="793" y="1550" on="1"/>
        <pt x="1350" y="125" on="1"/>
        <pt x="1360" y="102" on="0"/>
        <pt x="1360" y="80" on="1"/>
        <pt x="1360" y="47" on="0"/>
        <pt x="1313" y="0" on="0"/>
        <pt x="1280" y="0" on="1"/>
      </contour>
      <contour>
        <pt x="1163" y="160" on="1"/>
        <pt x="720" y="1299" on="1"/>
        <pt x="277" y="160" on="1"/>
      </contour>
    </TTGlyph>
    <TTGlyph name="E" xMin="80" yMin="0" xMax="1200" yMax="1600">
      <contour>
        <pt x="160" y="1600" on="1"/>
        <pt x="1120" y="1600" on="1"/>
        <pt x="1153" y="1600" on="0"/>
        <pt x="1200" y="1553" on="0"/>
        <pt x="1200" y="1520" on="1"/>
        <pt x="1200" y="1487" on="0"/>
        <pt x="1153" y="1440" on="0"/>
        <pt x="1120" y="1440" on="1"/>
        <pt x="240" y="1440" on="1"/>
        <pt x="240" y="880" on="1"/>
        <pt x="880" y="880" on="1"/>
        <pt x="913" y="880" on="0"/>
        <pt x="960" y="833" on="0"/>
        <pt x="960" y="800" on="1"/>
        <pt x="960" y="767" on="0"/>
        <pt x="913" y="720" on="0"/>
        <pt x="880" y="720" on="1"/>
        <pt x="240" y="720" on="1"/>
        <pt x="240" y="160" on="1"/>
        <pt x="1120" y="160" on="1"/>
        <pt x="1153" y="160" on="0"/>
        <pt x="1200" y="113" on="0"/>
        <pt x="1200" y="80" on="1"/>
        <pt x="1200" y="47" on="0"/>
        <pt x="1153" y="0" on="0"/>
        <pt x="1120" y="0" on="1"/>
        <pt x="160" y="0" on="1"/>
        <pt x="127" y="0" on="0"/>
        <pt x="80" y="47" on="0"/>
        <pt x="80" y="80" on="1"/>
        <pt x="80" y="1520" on="1"/>
        <pt x="80" y="1553" on="0"/>
        <pt x="127" y="1600" on="0"/>
      </contour>
    </TTGlyph>
    <TTGlyph name="Eacute" xMin="81" yMin="0" xMax="1201" yMax="2080">
      <component glyphName="E" x="1" y="0" flags="0x200"/>
      <component glyphName="acute" x="429" y="480" flags="0x0"/>
    </TTGlyph>
    <TTGlyph name="Ebreve" xMin="80" yMin="0" xMax="1200" yMax="2040">
      <component glyphName="E" x="0" y="0" flags="0x200"/>
      <component glyphName="breve" x="246" y="480" flags="0x0"/>
    </TTGlyph>
    <TTGlyph name="Ecaron" xMin="80" yMin="0" xMax="1200" yMax="2040">
      <component glyphName="E" x="0" y="0" flags="0x200"/>
      <component glyphName="caron" x="241" y="480" flags="0x0"/>
    </TTGlyph>
    <TTGlyph name="Ecircumflex" xMin="81" yMin="0" xMax="1201" yMax="2040">
      <component glyphName="E" x="1" y="0" flags="0x200"/>
      <component glyphName="circumflex" x="240" y="480" flags="0x0"/>
    </TTGlyph>
    <TTGlyph name="Edieresis" xMin="81" yMin="0" xMax="1201" yMax="1940">
      <component glyphName="E" x="1" y="0" flags="0x200"/>
      <component glyphName="dieresis" x="163" y="480" flags="0x0"/>
    </TTGlyph>
    <TTGlyph name="Edotaccent" xMin="80" yMin="0" xMax="1200" yMax="1961">
      <component glyphName="E" x="0" y="0" flags="0x200"/>
      <component glyphName="dotaccent" x="441" y="480" flags="0x0"/>
    </TTGlyph>
    <TTGlyph name="Egrave" xMin="81" yMin="0" xMax="1201" yMax="2080">
      <component glyphName="E" x="1" y="0" flags="0x200"/>
      <component glyphName="grave" x="295" y="480" flags="0x0"/>
    </TTGlyph>
    <TTGlyph name="Emacron" xMin="80" yMin="0" xMax="1200" yMax="1920">
      <component glyphName="E" x="0" y="0" flags="0x200"/>
      <component glyphName="uni02C9" x="241" y="480" flags="0x0"/>
    </TTGlyph>
    <TTGlyph name="Eng" xMin="80" yMin="0" xMax="1360" yMax="1600">
      <contour>
        <pt x="240" y="80" on="1"/>
        <pt x="240" y="47" on="0"/>
        <pt x="193" y="0" on="0"/>
        <pt x="160" y="0" on="1"/>
        <pt x="127" y="0" on="0"/>
        <pt x="80" y="47" on="0"/>
        <pt x="80" y="80" on="1"/>
        <pt x="80" y="1520" on="1"/>
        <pt x="80" y="1553" on="0"/>
        <pt x="127" y="1600" on="0"/>
        <pt x="160" y="1600" on="1"/>
        <pt x="193" y="1600" on="0"/>
        <pt x="240" y="1553" on="0"/>
        <pt x="240" y="1520" on="1"/>
        <pt x="240" y="1383" on="1"/>
        <pt x="253" y="1398" on="0"/>
        <pt x="268" y="1413" on="1"/>
        <pt x="455" y="1600" on="0"/>
        <pt x="720" y="1600" on="1"/>
        <pt x="985" y="1600" on="0"/>
        <pt x="1360" y="1225" on="0"/>
        <pt x="1360" y="960" on="1"/>
        <pt x="1360" y="480" on="1"/>
        <pt x="1360" y="281" on="0"/>
        <pt x="1079" y="0" on="0"/>
        <pt x="880" y="0" on="1"/>
        <pt x="681" y="0" on="0"/>
        <pt x="541" y="142" on="1"/>
        <pt x="517" y="165" on="0"/>
        <pt x="517" y="198" on="1"/>
        <pt x="517" y="231" on="0"/>
        <pt x="564" y="278" on="0"/>
        <pt x="597" y="278" on="1"/>
        <pt x="630" y="278" on="0"/>
        <pt x="654" y="255" on="1"/>
        <pt x="747" y="160" on="0"/>
        <pt x="880" y="160" on="1"/>
        <pt x="1013" y="160" on="0"/>
        <pt x="1200" y="347" on="0"/>
        <pt x="1200" y="480" on="1"/>
        <pt x="1200" y="960" on="1"/>
        <pt x="1200" y="1159" on="0"/>
        <pt x="919" y="1440" on="0"/>
        <pt x="720" y="1440" on="1"/>
        <pt x="521" y="1440" on="0"/>
        <pt x="240" y="1159" on="0"/>
        <pt x="240" y="960" on="1"/>
      </contour>
    </TTGlyph>
    <TTGlyph name="Eogonek" xMin="80" yMin="-480" xMax="1201" yMax="1600">
      <component glyphName="E" x="0" y="0" flags="0x200"/>
      <component glyphName="ogonek" x="641" y="0" flags="0x0"/>
    </TTGlyph>
    <TTGlyph name="Epsilon" xMin="80" yMin="0" xMax="1200" yMax="1600">
      <component glyphName="E" x="0" y="0" flags="0x200"/>
    </TTGlyph>
    <TTGlyph name="Epsilontonos" xMin="-40" yMin="0" xMax="1558" yMax="1600">
      <contour>
        <pt x="338" y="1464" on="1"/>
        <pt x="95" y="1221" on="1"/>
        <pt x="72" y="1200" on="0"/>
        <pt x="40" y="1200" on="1"/>
        <pt x="7" y="1200" on="0"/>
        <pt x="-40" y="1247" on="0"/>
        <pt x="-40" y="1280" on="1"/>
        <pt x="-40" y="1311" on="0"/>
        <pt x="-20" y="1334" on="1"/>
        <pt x="223" y="1577" on="1"/>
        <pt x="247" y="1600" on="0"/>
        <pt x="280" y="1600" on="1"/>
        <pt x="313" y="1600" on="0"/>
        <pt x="360" y="1553" on="0"/>
        <pt x="360" y="1520" on="1"/>
        <pt x="360" y="1488" on="0"/>
      </contour>
      <contour>
        <pt x="518" y="1600" on="1"/>
        <pt x="1478" y="1600" on="1"/>
        <pt x="1511" y="1600" on="0"/>
        <pt x="1558" y="1553" on="0"/>
        <pt x="1558" y="1520" on="1"/>
        <pt x="1558" y="1487" on="0"/>
        <pt x="1511" y="1440" on="0"/>
        <pt x="1478" y="1440" on="1"/>
        <pt x="598" y="1440" on="1"/>
        <pt x="598" y="880" on="1"/>
        <pt x="1238" y="880" on="1"/>
        <pt x="1271" y="880" on="0"/>
        <pt x="1318" y="833" on="0"/>
        <pt x="1318" y="800" on="1"/>
        <pt x="1318" y="767" on="0"/>
        <pt x="1271" y="720" on="0"/>
        <pt x="1238" y="720" on="1"/>
        <pt x="598" y="720" on="1"/>
        <pt x="598" y="160" on="1"/>
        <pt x="1478" y="160" on="1"/>
        <pt x="1511" y="160" on="0"/>
        <pt x="1558" y="113" on="0"/>
        <pt x="1558" y="80" on="1"/>
        <pt x="1558" y="47" on="0"/>
        <pt x="1511" y="0" on="0"/>
        <pt x="1478" y="0" on="1"/>
        <pt x="518" y="0" on="1"/>
        <pt x="485" y="0" on="0"/>
        <pt x="438" y="47" on="0"/>
        <pt x="438" y="80" on="1"/>
        <pt x="438" y="1520" on="1"/>
        <pt x="438" y="1553" on="0"/>
        <pt x="485" y="1600" on="0"/>
      </contour>
    </TTGlyph>
    <TTGlyph name="Eta" xMin="80" yMin="0" xMax="1200" yMax="1600">
      <component glyphName="H" x="0" y="0" flags="0x200"/>
    </TTGlyph>
    <TTGlyph name="Etatonos" xMin="-40" yMin="0" xMax="1560" yMax="1600">
      <contour>
        <pt x="338" y="1464" on="1"/>
        <pt x="95" y="1221" on="1"/>
        <pt x="72" y="1200" on="0"/>
        <pt x="40" y="1200" on="1"/>
        <pt x="7" y="1200" on="0"/>
        <pt x="-40" y="1247" on="0"/>
        <pt x="-40" y="1280" on="1"/>
        <pt x="-40" y="1311" on="0"/>
        <pt x="-20" y="1334" on="1"/>
        <pt x="223" y="1577" on="1"/>
        <pt x="247" y="1600" on="0"/>
        <pt x="280" y="1600" on="1"/>
        <pt x="313" y="1600" on="0"/>
        <pt x="360" y="1553" on="0"/>
        <pt x="360" y="1520" on="1"/>
        <pt x="360" y="1488" on="0"/>
      </contour>
      <contour>
        <pt x="440" y="1520" on="1"/>
        <pt x="440" y="1553" on="0"/>
        <pt x="487" y="1600" on="0"/>
        <pt x="520" y="1600" on="1"/>
        <pt x="553" y="1600" on="0"/>
        <pt x="600" y="1553" on="0"/>
        <pt x="600" y="1520" on="1"/>
        <pt x="600" y="880" on="1"/>
        <pt x="1400" y="880" on="1"/>
        <pt x="1400" y="1520" on="1"/>
        <pt x="1400" y="1553" on="0"/>
        <pt x="1447" y="1600" on="0"/>
        <pt x="1480" y="1600" on="1"/>
        <pt x="1513" y="1600" on="0"/>
        <pt x="1560" y="1553" on="0"/>
        <pt x="1560" y="1520" on="1"/>
        <pt x="1560" y="80" on="1"/>
        <pt x="1560" y="47" on="0"/>
        <pt x="1513" y="0" on="0"/>
        <pt x="1480" y="0" on="1"/>
        <pt x="1447" y="0" on="0"/>
        <pt x="1400" y="47" on="0"/>
        <pt x="1400" y="80" on="1"/>
        <pt x="1400" y="720" on="1"/>
        <pt x="600" y="720" on="1"/>
        <pt x="600" y="80" on="1"/>
        <pt x="600" y="47" on="0"/>
        <pt x="553" y="0" on="0"/>
        <pt x="520" y="0" on="1"/>
        <pt x="487" y="0" on="0"/>
        <pt x="440" y="47" on="0"/>
        <pt x="440" y="80" on="1"/>
      </contour>
    </TTGlyph>
    <TTGlyph name="Eth" xMin="0" yMin="0" xMax="1439" yMax="1600">
      <contour>
        <pt x="239" y="880" on="1"/>
        <pt x="239" y="1520" on="1"/>
        <pt x="239" y="1553" on="0"/>
        <pt x="286" y="1600" on="0"/>
        <pt x="319" y="1600" on="1"/>
        <pt x="639" y="1600" on="1"/>
        <pt x="970" y="1600" on="0"/>
        <pt x="1439" y="1131" on="0"/>
        <pt x="1439" y="800" on="1"/>
        <pt x="1439" y="469" on="0"/>
        <pt x="970" y="0" on="0"/>
        <pt x="639" y="0" on="1"/>
        <pt x="319" y="0" on="1"/>
        <pt x="286" y="0" on="0"/>
        <pt x="239" y="47" on="0"/>
        <pt x="239" y="80" on="1"/>
        <pt x="239" y="720" on="1"/>
        <pt x="80" y="720" on="1"/>
        <pt x="47" y="720" on="0"/>
        <pt x="0" y="767" on="0"/>
        <pt x="0" y="800" on="1"/>
        <pt x="0" y="833" on="0"/>
        <pt x="47" y="880" on="0"/>
        <pt x="80" y="880" on="1"/>
      </contour>
      <contour>
        <pt x="399" y="880" on="1"/>
        <pt x="719" y="880" on="1"/>
        <pt x="752" y="880" on="0"/>
        <pt x="799" y="833" on="0"/>
        <pt x="799" y="800" on="1"/>
        <pt x="799" y="767" on="0"/>
        <pt x="752" y="720" on="0"/>
        <pt x="719" y="720" on="1"/>
        <pt x="399" y="720" on="1"/>
        <pt x="399" y="160" on="1"/>
        <pt x="639" y="160" on="1"/>
        <pt x="904" y="160" on="0"/>
        <pt x="1279" y="535" on="0"/>
        <pt x="1279" y="800" on="1"/>
        <pt x="1279" y="1065" on="0"/>
        <pt x="904" y="1440" on="0"/>
        <pt x="639" y="1440" on="1"/>
        <pt x="399" y="1440" on="1"/>
      </contour>
    </TTGlyph>
    <TTGlyph name="Euro" xMin="80" yMin="0" xMax="1412" yMax="1600">
      <contour>
        <pt x="1200" y="1040" on="1"/>
        <pt x="1233" y="1040" on="0"/>
        <pt x="1280" y="993" on="0"/>
        <pt x="1280" y="960" on="1"/>
        <pt x="1280" y="927" on="0"/>
        <pt x="1233" y="880" on="0"/>
        <pt x="1200" y="880" on="1"/>
        <pt x="244" y="880" on="1"/>
        <pt x="240" y="841" on="0"/>
        <pt x="240" y="800" on="1"/>
        <pt x="240" y="759" on="0"/>
        <pt x="244" y="720" on="1"/>
        <pt x="1200" y="720" on="1"/>
        <pt x="1233" y="720" on="0"/>
        <pt x="1280" y="673" on="0"/>
        <pt x="1280" y="640" on="1"/>
        <pt x="1280" y="607" on="0"/>
        <pt x="1233" y="560" on="0"/>
        <pt x="1200" y="560" on="1"/>
        <pt x="285" y="560" on="1"/>
        <pt x="331" y="444" on="0"/>
        <pt x="428" y="348" on="1"/>
        <pt x="615" y="160" on="0"/>
        <pt x="880" y="160" on="1"/>
        <pt x="1109" y="160" on="0"/>
        <pt x="1280" y="300" on="1"/>
        <pt x="1300" y="314" on="0"/>
        <pt x="1326" y="314" on="1"/>
        <pt x="1359" y="314" on="0"/>
        <pt x="1406" y="267" on="0"/>
        <pt x="1406" y="234" on="1"/>
        <pt x="1406" y="201" on="0"/>
        <pt x="1383" y="178" on="1"/>
        <pt x="1160" y="0" on="0"/>
        <pt x="880" y="0" on="1"/>
        <pt x="549" y="0" on="0"/>
        <pt x="80" y="469" on="0"/>
        <pt x="80" y="800" on="1"/>
        <pt x="80" y="1131" on="0"/>
        <pt x="549" y="1600" on="0"/>
        <pt x="880" y="1600" on="1"/>
        <pt x="1166" y="1600" on="0"/>
        <pt x="1389" y="1417" on="1"/>
        <pt x="1412" y="1393" on="0"/>
        <pt x="1412" y="1360" on="1"/>
        <pt x="1412" y="1327" on="0"/>
        <pt x="1365" y="1280" on="0"/>
        <pt x="1332" y="1280" on="1"/>
        <pt x="1299" y="1280" on="0"/>
        <pt x="1275" y="1304" on="1"/>
        <pt x="1106" y="1440" on="0"/>
        <pt x="880" y="1440" on="1"/>
        <pt x="615" y="1440" on="0"/>
        <pt x="428" y="1253" on="1"/>
        <pt x="331" y="1156" on="0"/>
        <pt x="285" y="1040" on="1"/>
      </contour>
    </TTGlyph>
    <TTGlyph name="F" xMin="80" yMin="0" xMax="1200" yMax="1600">
      <contour>
        <pt x="160" y="1600" on="1"/>
        <pt x="1120" y="1600" on="1"/>
        <pt x="1153" y="1600" on="0"/>
        <pt x="1200" y="1553" on="0"/>
        <pt x="1200" y="1520" on="1"/>
        <pt x="1200" y="1487" on="0"/>
        <pt x="1153" y="1440" on="0"/>
        <pt x="1120" y="1440" on="1"/>
        <pt x="240" y="1440" on="1"/>
        <pt x="240" y="880" on="1"/>
        <pt x="880" y="880" on="1"/>
        <pt x="913" y="880" on="0"/>
        <pt x="960" y="833" on="0"/>
        <pt x="960" y="800" on="1"/>
        <pt x="960" y="767" on="0"/>
        <pt x="913" y="720" on="0"/>
        <pt x="880" y="720" on="1"/>
        <pt x="240" y="720" on="1"/>
        <pt x="240" y="80" on="1"/>
        <pt x="240" y="47" on="0"/>
        <pt x="193" y="0" on="0"/>
        <pt x="160" y="0" on="1"/>
        <pt x="127" y="0" on="0"/>
        <pt x="80" y="47" on="0"/>
        <pt x="80" y="80" on="1"/>
        <pt x="80" y="1520" on="1"/>
        <pt x="80" y="1553" on="0"/>
        <pt x="127" y="1600" on="0"/>
      </contour>
    </TTGlyph>
    <TTGlyph name="G" xMin="80" yMin="0" xMax="1412" yMax="1600">
      <contour>
        <pt x="1406" y="234" on="1"/>
        <pt x="1406" y="201" on="0"/>
        <pt x="1383" y="178" on="1"/>
        <pt x="1160" y="0" on="0"/>
        <pt x="880" y="0" on="1"/>
        <pt x="549" y="0" on="0"/>
        <pt x="80" y="469" on="0"/>
        <pt x="80" y="800" on="1"/>
        <pt x="80" y="1131" on="0"/>
        <pt x="549" y="1600" on="0"/>
        <pt x="880" y="1600" on="1"/>
        <pt x="1166" y="1600" on="0"/>
        <pt x="1389" y="1417" on="1"/>
        <pt x="1412" y="1393" on="0"/>
        <pt x="1412" y="1360" on="1"/>
        <pt x="1412" y="1327" on="0"/>
        <pt x="1365" y="1280" on="0"/>
        <pt x="1332" y="1280" on="1"/>
        <pt x="1299" y="1280" on="0"/>
        <pt x="1275" y="1304" on="1"/>
        <pt x="1106" y="1440" on="0"/>
        <pt x="880" y="1440" on="1"/>
        <pt x="615" y="1440" on="0"/>
        <pt x="240" y="1065" on="0"/>
        <pt x="240" y="800" on="1"/>
        <pt x="240" y="535" on="0"/>
        <pt x="615" y="160" on="0"/>
        <pt x="880" y="160" on="1"/>
        <pt x="1087" y="160" on="0"/>
        <pt x="1246" y="274" on="1"/>
        <pt x="1246" y="640" on="1"/>
        <pt x="930" y="640" on="1"/>
        <pt x="897" y="640" on="0"/>
        <pt x="850" y="687" on="0"/>
        <pt x="850" y="720" on="1"/>
        <pt x="850" y="753" on="0"/>
        <pt x="897" y="800" on="0"/>
        <pt x="930" y="800" on="1"/>
        <pt x="1327" y="800" on="1"/>
        <pt x="1359" y="800" on="0"/>
        <pt x="1383" y="777" on="1"/>
        <pt x="1406" y="753" on="0"/>
        <pt x="1406" y="720" on="1"/>
      </contour>
    </TTGlyph>
    <TTGlyph name="Gamma" xMin="80" yMin="0" xMax="1201" yMax="1600">
      <contour>
        <pt x="80" y="1520" on="1"/>
        <pt x="81" y="1553" on="0"/>
        <pt x="128" y="1600" on="0"/>
        <pt x="161" y="1600" on="1"/>
        <pt x="1121" y="1600" on="1"/>
        <pt x="1154" y="1600" on="0"/>
        <pt x="1201" y="1553" on="0"/>
        <pt x="1201" y="1520" on="1"/>
        <pt x="1201" y="1487" on="0"/>
        <pt x="1154" y="1440" on="0"/>
        <pt x="1121" y="1440" on="1"/>
        <pt x="240" y="1440" on="1"/>
        <pt x="240" y="80" on="1"/>
        <pt x="240" y="47" on="0"/>
        <pt x="193" y="0" on="0"/>
        <pt x="160" y="0" on="1"/>
        <pt x="127" y="0" on="0"/>
        <pt x="80" y="47" on="0"/>
        <pt x="80" y="80" on="1"/>
      </contour>
    </TTGlyph>
    <TTGlyph name="Gbreve" xMin="80" yMin="0" xMax="1412" yMax="2040">
      <component glyphName="G" x="0" y="0" flags="0x200"/>
      <component glyphName="breve" x="485" y="480" flags="0x0"/>
    </TTGlyph>
    <TTGlyph name="Gcircumflex" xMin="80" yMin="0" xMax="1412" yMax="2040">
      <component glyphName="G" x="0" y="0" flags="0x200"/>
      <component glyphName="circumflex" x="480" y="480" flags="0x0"/>
    </TTGlyph>
    <TTGlyph name="Gcommaaccent" xMin="80" yMin="-479" xMax="1412" yMax="1600">
      <component glyphName="G" x="0" y="0" flags="0x200"/>
      <component glyphName="commaaccent" x="559" y="-39" flags="0x0"/>
    </TTGlyph>
    <TTGlyph name="Gdotaccent" xMin="80" yMin="0" xMax="1412" yMax="1961">
      <component glyphName="G" x="0" y="0" flags="0x200"/>
      <component glyphName="dotaccent" x="680" y="480" flags="0x0"/>
    </TTGlyph>
    <TTGlyph name="H" xMin="80" yMin="0" xMax="1200" yMax="1600">
      <contour>
        <pt x="80" y="1520" on="1"/>
        <pt x="80" y="1553" on="0"/>
        <pt x="127" y="1600" on="0"/>
        <pt x="160" y="1600" on="1"/>
        <pt x="193" y="1600" on="0"/>
        <pt x="240" y="1553" on="0"/>
        <pt x="240" y="1520" on="1"/>
        <pt x="240" y="880" on="1"/>
        <pt x="1040" y="880" on="1"/>
        <pt x="1040" y="1520" on="1"/>
        <pt x="1040" y="1553" on="0"/>
        <pt x="1087" y="1600" on="0"/>
        <pt x="1120" y="1600" on="1"/>
        <pt x="1153" y="1600" on="0"/>
        <pt x="1200" y="1553" on="0"/>
        <pt x="1200" y="1520" on="1"/>
        <pt x="1200" y="80" on="1"/>
        <pt x="1200" y="47" on="0"/>
        <pt x="1153" y="0" on="0"/>
        <pt x="1120" y="0" on="1"/>
        <pt x="1087" y="0" on="0"/>
        <pt x="1040" y="47" on="0"/>
        <pt x="1040" y="80" on="1"/>
        <pt x="1040" y="720" on="1"/>
        <pt x="240" y="720" on="1"/>
        <pt x="240" y="80" on="1"/>
        <pt x="240" y="47" on="0"/>
        <pt x="193" y="0" on="0"/>
        <pt x="160" y="0" on="1"/>
        <pt x="127" y="0" on="0"/>
        <pt x="80" y="47" on="0"/>
        <pt x="80" y="80" on="1"/>
      </contour>
    </TTGlyph>
    <TTGlyph name="Hbar" xMin="80" yMin="0" xMax="1520" yMax="1600">
      <contour>
        <pt x="240" y="1320" on="1"/>
        <pt x="240" y="1520" on="1"/>
        <pt x="240" y="1553" on="0"/>
        <pt x="287" y="1600" on="0"/>
        <pt x="320" y="1600" on="1"/>
        <pt x="353" y="1600" on="0"/>
        <pt x="400" y="1553" on="0"/>
        <pt x="400" y="1520" on="1"/>
        <pt x="400" y="1320" on="1"/>
        <pt x="1200" y="1320" on="1"/>
        <pt x="1200" y="1520" on="1"/>
        <pt x="1200" y="1553" on="0"/>
        <pt x="1247" y="1600" on="0"/>
        <pt x="1280" y="1600" on="1"/>
        <pt x="1313" y="1600" on="0"/>
        <pt x="1360" y="1553" on="0"/>
        <pt x="1360" y="1520" on="1"/>
        <pt x="1360" y="1320" on="1"/>
        <pt x="1440" y="1320" on="1"/>
        <pt x="1473" y="1320" on="0"/>
        <pt x="1520" y="1273" on="0"/>
        <pt x="1520" y="1240" on="1"/>
        <pt x="1520" y="1207" on="0"/>
        <pt x="1473" y="1160" on="0"/>
        <pt x="1440" y="1160" on="1"/>
        <pt x="1360" y="1160" on="1"/>
        <pt x="1360" y="80" on="1"/>
        <pt x="1360" y="47" on="0"/>
        <pt x="1313" y="0" on="0"/>
        <pt x="1280" y="0" on="1"/>
        <pt x="1247" y="0" on="0"/>
        <pt x="1200" y="47" on="0"/>
        <pt x="1200" y="80" on="1"/>
        <pt x="1200" y="720" on="1"/>
        <pt x="400" y="720" on="1"/>
        <pt x="400" y="80" on="1"/>
        <pt x="400" y="47" on="0"/>
        <pt x="353" y="0" on="0"/>
        <pt x="320" y="0" on="1"/>
        <pt x="287" y="0" on="0"/>
        <pt x="240" y="47" on="0"/>
        <pt x="240" y="80" on="1"/>
        <pt x="240" y="1160" on="1"/>
        <pt x="160" y="1160" on="1"/>
        <pt x="127" y="1160" on="0"/>
        <pt x="80" y="1207" on="0"/>
        <pt x="80" y="1240" on="1"/>
        <pt x="80" y="1273" on="0"/>
        <pt x="127" y="1320" on="0"/>
        <pt x="160" y="1320" on="1"/>
      </contour>
      <contour>
        <pt x="400" y="1160" on="1"/>
        <pt x="400" y="880" on="1"/>
        <pt x="1200" y="880" on="1"/>
        <pt x="1200" y="1160" on="1"/>
      </contour>
    </TTGlyph>
    <TTGlyph name="Hcircumflex" xMin="80" yMin="0" xMax="1200" yMax="2040">
      <component glyphName="H" x="0" y="0" flags="0x200"/>
      <component glyphName="circumflex" x="240" y="480" flags="0x0"/>
    </TTGlyph>
    <TTGlyph name="I" xMin="160" yMin="0" xMax="320" yMax="1600">
      <contour>
        <pt x="160" y="1520" on="1"/>
        <pt x="160" y="1553" on="0"/>
        <pt x="207" y="1600" on="0"/>
        <pt x="240" y="1600" on="1"/>
        <pt x="273" y="1600" on="0"/>
        <pt x="320" y="1553" on="0"/>
        <pt x="320" y="1520" on="1"/>
        <pt x="320" y="80" on="1"/>
        <pt x="320" y="47" on="0"/>
        <pt x="273" y="0" on="0"/>
        <pt x="240" y="0" on="1"/>
        <pt x="207" y="0" on="0"/>
        <pt x="160" y="47" on="0"/>
        <pt x="160" y="80" on="1"/>
      </contour>
    </TTGlyph>
    <TTGlyph name="IJ" xMin="160" yMin="0" xMax="1440" yMax="1600">
      <component glyphName="I" x="0" y="0" flags="0x0"/>
      <component glyphName="J" x="400" y="0" flags="0x0"/>
    </TTGlyph>
    <TTGlyph name="Iacute" xMin="107" yMin="0" xMax="507" yMax="2080">
      <component glyphName="I" x="0" y="0" flags="0x200"/>
      <component glyphName="acute" x="27" y="480" flags="0x0"/>
    </TTGlyph>
    <TTGlyph name="Ibreve" xMin="-79" yMin="0" xMax="562" yMax="2040">
      <component glyphName="I" x="-4" y="0" flags="0x200"/>
      <component glyphName="breve" x="-159" y="480" flags="0x0"/>
    </TTGlyph>
    <TTGlyph name="Icircumflex" xMin="-79" yMin="0" xMax="561" yMax="2040">
      <component glyphName="I" x="0" y="0" flags="0x200"/>
      <component glyphName="circumflex" x="-159" y="480" flags="0x0"/>
    </TTGlyph>
    <TTGlyph name="Idieresis" xMin="-99" yMin="0" xMax="581" yMax="1940">
      <component glyphName="I" x="0" y="0" flags="0x200"/>
      <component glyphName="dieresis" x="-238" y="480" flags="0x0"/>
    </TTGlyph>
    <TTGlyph name="Idotaccent" xMin="120" yMin="0" xMax="360" yMax="1961">
      <component glyphName="I" x="0" y="0" flags="0x200"/>
      <component glyphName="dotaccent" x="40" y="480" flags="0x0"/>
    </TTGlyph>
    <TTGlyph name="Igrave" xMin="-26" yMin="0" xMax="374" yMax="2080">
      <component glyphName="I" x="0" y="0" flags="0x200"/>
      <component glyphName="grave" x="-106" y="480" flags="0x0"/>
    </TTGlyph>
    <TTGlyph name="Imacron" xMin="-79" yMin="0" xMax="561" yMax="1920">
      <component glyphName="I" x="0" y="0" flags="0x200"/>
      <component glyphName="uni02C9" x="-159" y="480" flags="0x0"/>
    </TTGlyph>
    <TTGlyph name="Iogonek" xMin="1" yMin="-400" xMax="481" yMax="1600">
      <component glyphName="I" x="0" y="0" flags="0x200"/>
      <component glyphName="ogonek" x="-79" y="80" flags="0x0"/>
    </TTGlyph>
    <TTGlyph name="Iota" xMin="160" yMin="0" xMax="320" yMax="1600">
      <component glyphName="I" x="0" y="0" flags="0x200"/>
    </TTGlyph>
    <TTGlyph name="Iotadieresis" xMin="-100" yMin="0" xMax="580" yMax="1940">
      <contour>
        <pt x="160" y="1520" on="1"/>
        <pt x="160" y="1553" on="0"/>
        <pt x="207" y="1600" on="0"/>
        <pt x="240" y="1600" on="1"/>
        <pt x="273" y="1600" on="0"/>
        <pt x="320" y="1553" on="0"/>
        <pt x="320" y="1520" on="1"/>
        <pt x="320" y="80" on="1"/>
        <pt x="320" y="47" on="0"/>
        <pt x="273" y="0" on="0"/>
        <pt x="240" y="0" on="1"/>
        <pt x="207" y="0" on="0"/>
        <pt x="160" y="47" on="0"/>
        <pt x="160" y="80" on="1"/>
      </contour>
      <contour>
        <pt x="100" y="1840" on="1"/>
        <pt x="100" y="1799" on="0"/>
        <pt x="41" y="1740" on="0"/>
        <pt x="0" y="1740" on="1"/>
        <pt x="-41" y="1740" on="0"/>
        <pt x="-100" y="1799" on="0"/>
        <pt x="-100" y="1840" on="1"/>
        <pt x="-100" y="1881" on="0"/>
        <pt x="-41" y="1940" on="0"/>
        <pt x="0" y="1940" on="1"/>
        <pt x="41" y="1940" on="0"/>
        <pt x="100" y="1881" on="0"/>
      </contour>
      <contour>
        <pt x="580" y="1840" on="1"/>
        <pt x="580" y="1799" on="0"/>
        <pt x="521" y="1740" on="0"/>
        <pt x="480" y="1740" on="1"/>
        <pt x="439" y="1740" on="0"/>
        <pt x="380" y="1799" on="0"/>
        <pt x="380" y="1840" on="1"/>
        <pt x="380" y="1881" on="0"/>
        <pt x="439" y="1940" on="0"/>
        <pt x="480" y="1940" on="1"/>
        <pt x="521" y="1940" on="0"/>
        <pt x="580" y="1881" on="0"/>
      </contour>
    </TTGlyph>
    <TTGlyph name="Iotatonos" xMin="-40" yMin="0" xMax="601" yMax="1600">
      <contour>
        <pt x="338" y="1464" on="1"/>
        <pt x="95" y="1221" on="1"/>
        <pt x="72" y="1200" on="0"/>
        <pt x="40" y="1200" on="1"/>
        <pt x="7" y="1200" on="0"/>
        <pt x="-40" y="1247" on="0"/>
        <pt x="-40" y="1280" on="1"/>
        <pt x="-40" y="1311" on="0"/>
        <pt x="-20" y="1334" on="1"/>
        <pt x="223" y="1577" on="1"/>
        <pt x="247" y="1600" on="0"/>
        <pt x="280" y="1600" on="1"/>
        <pt x="313" y="1600" on="0"/>
        <pt x="360" y="1553" on="0"/>
        <pt x="360" y="1520" on="1"/>
        <pt x="360" y="1488" on="0"/>
      </contour>
      <contour>
        <pt x="441" y="1520" on="1"/>
        <pt x="441" y="1553" on="0"/>
        <pt x="488" y="1600" on="0"/>
        <pt x="521" y="1600" on="1"/>
        <pt x="554" y="1600" on="0"/>
        <pt x="601" y="1553" on="0"/>
        <pt x="601" y="1520" on="1"/>
        <pt x="601" y="80" on="1"/>
        <pt x="601" y="47" on="0"/>
        <pt x="554" y="0" on="0"/>
        <pt x="521" y="0" on="1"/>
        <pt x="488" y="0" on="0"/>
        <pt x="441" y="47" on="0"/>
        <pt x="441" y="80" on="1"/>
      </contour>
    </TTGlyph>
    <TTGlyph name="Itilde" xMin="-84" yMin="0" xMax="726" yMax="1996">
      <component glyphName="I" x="80" y="0" flags="0x0"/>
      <component glyphName="tilde" x="-155" y="480" flags="0x0"/>
    </TTGlyph>
    <TTGlyph name="J" xMin="80" yMin="0" xMax="1040" yMax="1600">
      <contour>
        <pt x="80" y="480" on="1"/>
        <pt x="80" y="513" on="0"/>
        <pt x="127" y="560" on="0"/>
        <pt x="160" y="560" on="1"/>
        <pt x="193" y="560" on="0"/>
        <pt x="240" y="513" on="0"/>
        <pt x="240" y="480" on="1"/>
        <pt x="240" y="347" on="0"/>
        <pt x="427" y="160" on="0"/>
        <pt x="560" y="160" on="1"/>
        <pt x="693" y="160" on="0"/>
        <pt x="880" y="347" on="0"/>
        <pt x="880" y="480" on="1"/>
        <pt x="880" y="1520" on="1"/>
        <pt x="880" y="1553" on="0"/>
        <pt x="927" y="1600" on="0"/>
        <pt x="960" y="1600" on="1"/>
        <pt x="993" y="1600" on="0"/>
        <pt x="1040" y="1553" on="0"/>
        <pt x="1040" y="1520" on="1"/>
        <pt x="1040" y="480" on="1"/>
        <pt x="1040" y="281" on="0"/>
        <pt x="759" y="0" on="0"/>
        <pt x="560" y="0" on="1"/>
        <pt x="361" y="0" on="0"/>
        <pt x="80" y="281" on="0"/>
      </contour>
    </TTGlyph>
    <TTGlyph name="Jcircumflex" xMin="80" yMin="0" xMax="1280" yMax="2040">
      <component glyphName="J" x="0" y="0" flags="0x0"/>
      <component glyphName="circumflex" x="560" y="480" flags="0x0"/>
    </TTGlyph>
    <TTGlyph name="K" xMin="80" yMin="0" xMax="1120" yMax="1600">
      <contour>
        <pt x="80" y="1520" on="1"/>
        <pt x="80" y="1553" on="0"/>
        <pt x="127" y="1600" on="0"/>
        <pt x="160" y="1600" on="1"/>
        <pt x="193" y="1600" on="0"/>
        <pt x="240" y="1553" on="0"/>
        <pt x="240" y="1520" on="1"/>
        <pt x="240" y="834" on="1"/>
        <pt x="981" y="1575" on="1"/>
        <pt x="1007" y="1600" on="0"/>
        <pt x="1040" y="1600" on="1"/>
        <pt x="1073" y="1600" on="0"/>
        <pt x="1120" y="1553" on="0"/>
        <pt x="1120" y="1520" on="1"/>
        <pt x="1120" y="1487" on="0"/>
        <pt x="1097" y="1463" on="1"/>
        <pt x="535" y="901" on="1"/>
        <pt x="1105" y="128" on="1"/>
        <pt x="1120" y="107" on="0"/>
        <pt x="1120" y="83" on="1"/>
        <pt x="1120" y="41" on="0"/>
        <pt x="1088" y="16" on="1"/>
        <pt x="1066" y="0" on="0"/>
        <pt x="1042" y="0" on="1"/>
        <pt x="998" y="0" on="0"/>
        <pt x="974" y="34" on="1"/>
        <pt x="420" y="786" on="1"/>
        <pt x="240" y="606" on="1"/>
        <pt x="240" y="80" on="1"/>
        <pt x="240" y="47" on="0"/>
        <pt x="193" y="0" on="0"/>
        <pt x="160" y="0" on="1"/>
        <pt x="127" y="0" on="0"/>
        <pt x="80" y="47" on="0"/>
        <pt x="80" y="80" on="1"/>
      </contour>
    </TTGlyph>
    <TTGlyph name="Kappa" xMin="80" yMin="0" xMax="1120" yMax="1600">
      <component glyphName="K" x="0" y="0" flags="0x200"/>
    </TTGlyph>
    <TTGlyph name="Kcommaaccent" xMin="80" yMin="-440" xMax="1120" yMax="1600">
      <component glyphName="K" x="0" y="0" flags="0x200"/>
      <component glyphName="commaaccent" x="241" y="0" flags="0x0"/>
    </TTGlyph>
    <TTGlyph name="L" xMin="80" yMin="0" xMax="1120" yMax="1600">
      <contour>
        <pt x="80" y="1520" on="1"/>
        <pt x="80" y="1553" on="0"/>
        <pt x="127" y="1600" on="0"/>
        <pt x="160" y="1600" on="1"/>
        <pt x="193" y="1600" on="0"/>
        <pt x="240" y="1553" on="0"/>
        <pt x="240" y="1520" on="1"/>
        <pt x="240" y="160" on="1"/>
        <pt x="1040" y="160" on="1"/>
        <pt x="1073" y="160" on="0"/>
        <pt x="1120" y="113" on="0"/>
        <pt x="1120" y="80" on="1"/>
        <pt x="1120" y="47" on="0"/>
        <pt x="1073" y="0" on="0"/>
        <pt x="1040" y="0" on="1"/>
        <pt x="160" y="0" on="1"/>
        <pt x="127" y="0" on="0"/>
        <pt x="80" y="47" on="0"/>
        <pt x="80" y="80" on="1"/>
      </contour>
    </TTGlyph>
    <TTGlyph name="Lacute" xMin="80" yMin="0" xMax="1120" yMax="2080">
      <component glyphName="L" x="0" y="0" flags="0x200"/>
      <component glyphName="acute" x="161" y="480" flags="0x0"/>
    </TTGlyph>
    <TTGlyph name="Lambda" xMin="80" yMin="0" xMax="1360" yMax="1600">
      <contour>
        <pt x="234" y="49" on="1"/>
        <pt x="228" y="35" on="0"/>
        <pt x="217" y="24" on="1"/>
        <pt x="193" y="0" on="0"/>
        <pt x="160" y="0" on="1"/>
        <pt x="127" y="0" on="0"/>
        <pt x="80" y="47" on="0"/>
        <pt x="80" y="80" on="1"/>
        <pt x="80" y="99" on="0"/>
        <pt x="87" y="114" on="1"/>
        <pt x="643" y="1544" on="1"/>
        <pt x="649" y="1562" on="0"/>
        <pt x="664" y="1577" on="1"/>
        <pt x="687" y="1600" on="0"/>
        <pt x="720" y="1600" on="1"/>
        <pt x="753" y="1600" on="0"/>
        <pt x="777" y="1577" on="1"/>
        <pt x="791" y="1562" on="0"/>
        <pt x="797" y="1544" on="1"/>
        <pt x="1353" y="114" on="1"/>
        <pt x="1360" y="99" on="0"/>
        <pt x="1360" y="80" on="1"/>
        <pt x="1360" y="47" on="0"/>
        <pt x="1313" y="0" on="0"/>
        <pt x="1280" y="0" on="1"/>
        <pt x="1247" y="0" on="0"/>
        <pt x="1224" y="24" on="1"/>
        <pt x="1212" y="35" on="0"/>
        <pt x="1206" y="49" on="1"/>
        <pt x="720" y="1299" on="1"/>
      </contour>
    </TTGlyph>
    <TTGlyph name="Lcaron" xMin="80" yMin="0" xMax="1120" yMax="1600">
      <component glyphName="L" x="0" y="0" flags="0x200"/>
      <component glyphName="quoteright" x="359" y="0" flags="0x0"/>
    </TTGlyph>
    <TTGlyph name="Lcommaaccent" xMin="80" yMin="-440" xMax="1120" yMax="1600">
      <component glyphName="L" x="0" y="0" flags="0x200"/>
      <component glyphName="commaaccent" x="280" y="0" flags="0x0"/>
    </TTGlyph>
    <TTGlyph name="Ldot" xMin="80" yMin="0" xMax="1120" yMax="1600">
      <component glyphName="L" x="0" y="0" flags="0x200"/>
      <component glyphName="periodcentered" x="481" y="40" flags="0x0"/>
    </TTGlyph>
    <TTGlyph name="Lslash" xMin="25" yMin="0" xMax="1280" yMax="1600">
      <contour>
        <pt x="240" y="836" on="1"/>
        <pt x="240" y="1520" on="1"/>
        <pt x="240" y="1553" on="0"/>
        <pt x="287" y="1600" on="0"/>
        <pt x="320" y="1600" on="1"/>
        <pt x="353" y="1600" on="0"/>
        <pt x="400" y="1553" on="0"/>
        <pt x="400" y="1520" on="1"/>
        <pt x="400" y="994" on="1"/>
        <pt x="504" y="1097" on="1"/>
        <pt x="527" y="1121" on="0"/>
        <pt x="594" y="1120" on="0"/>
        <pt x="617" y="1097" on="1"/>
        <pt x="640" y="1073" on="0"/>
        <pt x="640" y="1007" on="0"/>
        <pt x="617" y="984" on="1"/>
        <pt x="400" y="769" on="1"/>
        <pt x="400" y="160" on="1"/>
        <pt x="1200" y="160" on="1"/>
        <pt x="1233" y="160" on="0"/>
        <pt x="1280" y="113" on="0"/>
        <pt x="1280" y="80" on="1"/>
        <pt x="1280" y="47" on="0"/>
        <pt x="1233" y="0" on="0"/>
        <pt x="1200" y="0" on="1"/>
        <pt x="320" y="0" on="1"/>
        <pt x="287" y="0" on="0"/>
        <pt x="240" y="47" on="0"/>
        <pt x="240" y="80" on="1"/>
        <pt x="240" y="611" on="1"/>
        <pt x="161" y="533" on="1"/>
        <pt x="138" y="509" on="0"/>
        <pt x="71" y="510" on="0"/>
        <pt x="48" y="533" on="1"/>
        <pt x="25" y="557" on="0"/>
        <pt x="25" y="590" on="1"/>
        <pt x="25" y="623" on="0"/>
        <pt x="48" y="646" on="1"/>
      </contour>
    </TTGlyph>
    <TTGlyph name="M" xMin="80" yMin="0" xMax="1680" yMax="1600">
      <contour>
        <pt x="806" y="49" on="1"/>
        <pt x="240" y="1181" on="1"/>
        <pt x="240" y="80" on="1"/>
        <pt x="240" y="47" on="0"/>
        <pt x="193" y="0" on="0"/>
        <pt x="160" y="0" on="1"/>
        <pt x="127" y="0" on="0"/>
        <pt x="80" y="47" on="0"/>
        <pt x="80" y="80" on="1"/>
        <pt x="80" y="1520" on="1"/>
        <pt x="80" y="1553" on="0"/>
        <pt x="127" y="1600" on="0"/>
        <pt x="160" y="1600" on="1"/>
        <pt x="208" y="1600" on="0"/>
        <pt x="231" y="1558" on="1"/>
        <pt x="880" y="259" on="1"/>
        <pt x="1529" y="1558" on="1"/>
        <pt x="1552" y="1600" on="0"/>
        <pt x="1600" y="1600" on="1"/>
        <pt x="1633" y="1600" on="0"/>
        <pt x="1680" y="1553" on="0"/>
        <pt x="1680" y="1520" on="1"/>
        <pt x="1680" y="80" on="1"/>
        <pt x="1680" y="47" on="0"/>
        <pt x="1633" y="0" on="0"/>
        <pt x="1600" y="0" on="1"/>
        <pt x="1567" y="0" on="0"/>
        <pt x="1520" y="47" on="0"/>
        <pt x="1520" y="80" on="1"/>
        <pt x="1520" y="1181" on="1"/>
        <pt x="949" y="39" on="1"/>
        <pt x="928" y="0" on="0"/>
        <pt x="880" y="0" on="1"/>
        <pt x="830" y="0" on="0"/>
      </contour>
    </TTGlyph>
    <TTGlyph name="Mu" xMin="80" yMin="0" xMax="1680" yMax="1600">
      <component glyphName="M" x="0" y="0" flags="0x200"/>
    </TTGlyph>
    <TTGlyph name="N" xMin="80" yMin="0" xMax="1360" yMax="1600">
      <contour>
        <pt x="240" y="80" on="1"/>
        <pt x="240" y="47" on="0"/>
        <pt x="193" y="0" on="0"/>
        <pt x="160" y="0" on="1"/>
        <pt x="127" y="0" on="0"/>
        <pt x="80" y="47" on="0"/>
        <pt x="80" y="80" on="1"/>
        <pt x="80" y="1520" on="1"/>
        <pt x="80" y="1553" on="0"/>
        <pt x="127" y="1600" on="0"/>
        <pt x="160" y="1600" on="1"/>
        <pt x="196" y="1600" on="0"/>
        <pt x="222" y="1571" on="1"/>
        <pt x="1200" y="313" on="1"/>
        <pt x="1200" y="1520" on="1"/>
        <pt x="1200" y="1553" on="0"/>
        <pt x="1247" y="1600" on="0"/>
        <pt x="1280" y="1600" on="1"/>
        <pt x="1313" y="1600" on="0"/>
        <pt x="1360" y="1553" on="0"/>
        <pt x="1360" y="1520" on="1"/>
        <pt x="1360" y="80" on="1"/>
        <pt x="1360" y="47" on="0"/>
        <pt x="1313" y="0" on="0"/>
        <pt x="1280" y="0" on="1"/>
        <pt x="1245" y="0" on="0"/>
        <pt x="1220" y="26" on="1"/>
        <pt x="240" y="1286" on="1"/>
      </contour>
    </TTGlyph>
    <TTGlyph name="Nacute" xMin="80" yMin="0" xMax="1360" yMax="2080">
      <component glyphName="N" x="0" y="0" flags="0x200"/>
      <component glyphName="acute" x="507" y="480" flags="0x0"/>
    </TTGlyph>
    <TTGlyph name="Ncaron" xMin="80" yMin="0" xMax="1360" yMax="2040">
      <component glyphName="N" x="0" y="0" flags="0x200"/>
      <component glyphName="caron" x="320" y="480" flags="0x0"/>
    </TTGlyph>
    <TTGlyph name="Ncommaaccent" xMin="80" yMin="-440" xMax="1360" yMax="1600">
      <component glyphName="N" x="0" y="0" flags="0x200"/>
      <component glyphName="commaaccent" x="400" y="0" flags="0x0"/>
    </TTGlyph>
    <TTGlyph name="Ntilde" xMin="80" yMin="0" xMax="1360" yMax="1996">
      <component glyphName="N" x="0" y="0" flags="0x200"/>
      <component glyphName="tilde" x="237" y="480" flags="0x0"/>
    </TTGlyph>
    <TTGlyph name="Nu" xMin="80" yMin="0" xMax="1360" yMax="1600">
      <component glyphName="N" x="0" y="0" flags="0x200"/>
    </TTGlyph>
    <TTGlyph name="O" xMin="80" yMin="0" xMax="1680" yMax="1600">
      <contour>
        <pt x="880" y="1440" on="1"/>
        <pt x="615" y="1440" on="0"/>
        <pt x="240" y="1065" on="0"/>
        <pt x="240" y="800" on="1"/>
        <pt x="240" y="535" on="0"/>
        <pt x="615" y="160" on="0"/>
        <pt x="880" y="160" on="1"/>
        <pt x="1145" y="160" on="0"/>
        <pt x="1520" y="535" on="0"/>
        <pt x="1520" y="800" on="1"/>
        <pt x="1520" y="1065" on="0"/>
        <pt x="1145" y="1440" on="0"/>
      </contour>
      <contour>
        <pt x="1680" y="800" on="1"/>
        <pt x="1680" y="469" on="0"/>
        <pt x="1211" y="0" on="0"/>
        <pt x="880" y="0" on="1"/>
        <pt x="549" y="0" on="0"/>
        <pt x="80" y="469" on="0"/>
        <pt x="80" y="800" on="1"/>
        <pt x="80" y="1131" on="0"/>
        <pt x="549" y="1600" on="0"/>
        <pt x="880" y="1600" on="1"/>
        <pt x="1211" y="1600" on="0"/>
        <pt x="1680" y="1131" on="0"/>
      </contour>
    </TTGlyph>
    <TTGlyph name="OE" xMin="80" yMin="0" xMax="2081" yMax="1600">
      <contour>
        <pt x="880" y="1440" on="1"/>
        <pt x="615" y="1440" on="0"/>
        <pt x="240" y="1065" on="0"/>
        <pt x="240" y="800" on="1"/>
        <pt x="240" y="535" on="0"/>
        <pt x="615" y="160" on="0"/>
        <pt x="880" y="160" on="1"/>
        <pt x="960" y="160" on="1"/>
        <pt x="960" y="1440" on="1"/>
      </contour>
      <contour>
        <pt x="880" y="0" on="1"/>
        <pt x="549" y="0" on="0"/>
        <pt x="80" y="469" on="0"/>
        <pt x="80" y="800" on="1"/>
        <pt x="80" y="1131" on="0"/>
        <pt x="549" y="1600" on="0"/>
        <pt x="880" y="1600" on="1"/>
        <pt x="2001" y="1600" on="1"/>
        <pt x="2034" y="1600" on="0"/>
        <pt x="2081" y="1553" on="0"/>
        <pt x="2081" y="1520" on="1"/>
        <pt x="2081" y="1487" on="0"/>
        <pt x="2034" y="1440" on="0"/>
        <pt x="2001" y="1440" on="1"/>
        <pt x="1120" y="1440" on="1"/>
        <pt x="1120" y="880" on="1"/>
        <pt x="1761" y="880" on="1"/>
        <pt x="1794" y="880" on="0"/>
        <pt x="1841" y="833" on="0"/>
        <pt x="1841" y="800" on="1"/>
        <pt x="1841" y="766" on="0"/>
        <pt x="1794" y="719" on="0"/>
        <pt x="1761" y="719" on="1"/>
        <pt x="1120" y="719" on="1"/>
        <pt x="1120" y="160" on="1"/>
        <pt x="2000" y="160" on="1"/>
        <pt x="2033" y="160" on="0"/>
        <pt x="2080" y="113" on="0"/>
        <pt x="2080" y="80" on="1"/>
        <pt x="2080" y="47" on="0"/>
        <pt x="2033" y="0" on="0"/>
        <pt x="2000" y="0" on="1"/>
      </contour>
    </TTGlyph>
    <TTGlyph name="Oacute" xMin="80" yMin="0" xMax="1680" yMax="2080">
      <component glyphName="O" x="0" y="0" flags="0x200"/>
      <component glyphName="acute" x="597" y="480" flags="0x0"/>
    </TTGlyph>
    <TTGlyph name="Obreve" xMin="80" yMin="0" xMax="1680" yMax="2040">
      <component glyphName="O" x="0" y="0" flags="0x200"/>
      <component glyphName="breve" x="486" y="480" flags="0x0"/>
    </TTGlyph>
    <TTGlyph name="Ocircumflex" xMin="80" yMin="0" xMax="1680" yMax="2040">
      <component glyphName="O" x="0" y="0" flags="0x200"/>
      <component glyphName="circumflex" x="480" y="480" flags="0x0"/>
    </TTGlyph>
    <TTGlyph name="Odieresis" xMin="80" yMin="0" xMax="1680" yMax="1940">
      <component glyphName="O" x="0" y="0" flags="0x200"/>
      <component glyphName="dieresis" x="401" y="480" flags="0x0"/>
    </TTGlyph>
    <TTGlyph name="Ograve" xMin="80" yMin="0" xMax="1680" yMax="2080">
      <component glyphName="O" x="0" y="0" flags="0x200"/>
      <component glyphName="grave" x="613" y="480" flags="0x0"/>
    </TTGlyph>
    <TTGlyph name="Ohungarumlaut" xMin="80" yMin="0" xMax="1680" yMax="2079">
      <component glyphName="O" x="0" y="0" flags="0x200"/>
      <component glyphName="hungarumlaut" x="520" y="479" flags="0x0"/>
    </TTGlyph>
    <TTGlyph name="Omacron" xMin="80" yMin="0" xMax="1680" yMax="1920">
      <component glyphName="O" x="0" y="0" flags="0x200"/>
      <component glyphName="uni02C9" x="480" y="480" flags="0x0"/>
    </TTGlyph>
    <TTGlyph name="Omega" xMin="80" yMin="0" xMax="1680" yMax="1600">
      <component glyphName="uni03A9" x="0" y="0" flags="0x200"/>
    </TTGlyph>
    <TTGlyph name="Omegatonos" xMin="-40" yMin="0" xMax="1720" yMax="1600">
      <contour>
        <pt x="338" y="1464" on="1"/>
        <pt x="95" y="1221" on="1"/>
        <pt x="72" y="1200" on="0"/>
        <pt x="40" y="1200" on="1"/>
        <pt x="7" y="1200" on="0"/>
        <pt x="-40" y="1247" on="0"/>
        <pt x="-40" y="1280" on="1"/>
        <pt x="-40" y="1311" on="0"/>
        <pt x="-20" y="1334" on="1"/>
        <pt x="223" y="1577" on="1"/>
        <pt x="247" y="1600" on="0"/>
        <pt x="280" y="1600" on="1"/>
        <pt x="313" y="1600" on="0"/>
        <pt x="360" y="1553" on="0"/>
        <pt x="360" y="1520" on="1"/>
        <pt x="360" y="1488" on="0"/>
      </contour>
      <contour>
        <pt x="680" y="160" on="1"/>
        <pt x="713" y="160" on="0"/>
        <pt x="760" y="113" on="0"/>
        <pt x="760" y="80" on="1"/>
        <pt x="760" y="47" on="0"/>
        <pt x="713" y="0" on="0"/>
        <pt x="680" y="0" on="1"/>
        <pt x="200" y="0" on="1"/>
        <pt x="167" y="0" on="0"/>
        <pt x="120" y="47" on="0"/>
        <pt x="120" y="80" on="1"/>
        <pt x="120" y="113" on="0"/>
        <pt x="167" y="160" on="0"/>
        <pt x="200" y="160" on="1"/>
        <pt x="343" y="160" on="1"/>
        <pt x="313" y="194" on="0"/>
        <pt x="284" y="235" on="1"/>
        <pt x="120" y="469" on="0"/>
        <pt x="120" y="800" on="1"/>
        <pt x="120" y="1131" on="0"/>
        <pt x="589" y="1600" on="0"/>
        <pt x="920" y="1600" on="1"/>
        <pt x="1251" y="1600" on="0"/>
        <pt x="1720" y="1131" on="0"/>
        <pt x="1720" y="800" on="1"/>
        <pt x="1720" y="469" on="0"/>
        <pt x="1556" y="235" on="1"/>
        <pt x="1527" y="194" on="0"/>
        <pt x="1497" y="160" on="1"/>
        <pt x="1640" y="160" on="1"/>
        <pt x="1673" y="160" on="0"/>
        <pt x="1720" y="113" on="0"/>
        <pt x="1720" y="80" on="1"/>
        <pt x="1720" y="47" on="0"/>
        <pt x="1673" y="0" on="0"/>
        <pt x="1640" y="0" on="1"/>
        <pt x="1160" y="0" on="1"/>
        <pt x="1127" y="0" on="0"/>
        <pt x="1080" y="47" on="0"/>
        <pt x="1080" y="80" on="1"/>
        <pt x="1080" y="113" on="0"/>
        <pt x="1127" y="160" on="0"/>
        <pt x="1160" y="160" on="1"/>
        <pt x="1326" y="160" on="0"/>
        <pt x="1560" y="535" on="0"/>
        <pt x="1560" y="800" on="1"/>
        <pt x="1560" y="1065" on="0"/>
        <pt x="1185" y="1440" on="0"/>
        <pt x="920" y="1440" on="1"/>
        <pt x="655" y="1440" on="0"/>
        <pt x="280" y="1065" on="0"/>
        <pt x="280" y="800" on="1"/>
        <pt x="280" y="535" on="0"/>
        <pt x="514" y="160" on="0"/>
      </contour>
    </TTGlyph>
    <TTGlyph name="Omicron" xMin="80" yMin="0" xMax="1680" yMax="1600">
      <component glyphName="O" x="0" y="0" flags="0x200"/>
    </TTGlyph>
    <TTGlyph name="Omicrontonos" xMin="-40" yMin="0" xMax="1720" yMax="1600">
      <contour>
        <pt x="338" y="1464" on="1"/>
        <pt x="95" y="1221" on="1"/>
        <pt x="72" y="1200" on="0"/>
        <pt x="40" y="1200" on="1"/>
        <pt x="7" y="1200" on="0"/>
        <pt x="-40" y="1247" on="0"/>
        <pt x="-40" y="1280" on="1"/>
        <pt x="-40" y="1311" on="0"/>
        <pt x="-20" y="1334" on="1"/>
        <pt x="223" y="1577" on="1"/>
        <pt x="247" y="1600" on="0"/>
        <pt x="280" y="1600" on="1"/>
        <pt x="313" y="1600" on="0"/>
        <pt x="360" y="1553" on="0"/>
        <pt x="360" y="1520" on="1"/>
        <pt x="360" y="1488" on="0"/>
      </contour>
      <contour>
        <pt x="920" y="1440" on="1"/>
        <pt x="655" y="1440" on="0"/>
        <pt x="280" y="1065" on="0"/>
        <pt x="280" y="800" on="1"/>
        <pt x="280" y="535" on="0"/>
        <pt x="655" y="160" on="0"/>
        <pt x="920" y="160" on="1"/>
        <pt x="1185" y="160" on="0"/>
        <pt x="1560" y="535" on="0"/>
        <pt x="1560" y="800" on="1"/>
        <pt x="1560" y="1065" on="0"/>
        <pt x="1185" y="1440" on="0"/>
      </contour>
      <contour>
        <pt x="1720" y="800" on="1"/>
        <pt x="1720" y="469" on="0"/>
        <pt x="1251" y="0" on="0"/>
        <pt x="920" y="0" on="1"/>
        <pt x="589" y="0" on="0"/>
        <pt x="120" y="469" on="0"/>
        <pt x="120" y="800" on="1"/>
        <pt x="120" y="1131" on="0"/>
        <pt x="589" y="1600" on="0"/>
        <pt x="920" y="1600" on="1"/>
        <pt x="1251" y="1600" on="0"/>
        <pt x="1720" y="1131" on="0"/>
      </contour>
    </TTGlyph>
    <TTGlyph name="Oslash" xMin="80" yMin="0" xMax="1680" yMax="1600">
      <contour>
        <pt x="1500" y="1306" on="1"/>
        <pt x="1680" y="1090" on="0"/>
        <pt x="1680" y="800" on="1"/>
        <pt x="1680" y="469" on="0"/>
        <pt x="1211" y="0" on="0"/>
        <pt x="880" y="0" on="1"/>
        <pt x="590" y="0" on="0"/>
        <pt x="374" y="180" on="1"/>
        <pt x="217" y="23" on="1"/>
        <pt x="193" y="0" on="0"/>
        <pt x="160" y="0" on="1"/>
        <pt x="127" y="0" on="0"/>
        <pt x="80" y="47" on="0"/>
        <pt x="80" y="80" on="1"/>
        <pt x="80" y="112" on="0"/>
        <pt x="101" y="135" on="1"/>
        <pt x="260" y="294" on="1"/>
        <pt x="80" y="510" on="0"/>
        <pt x="80" y="800" on="1"/>
        <pt x="80" y="1131" on="0"/>
        <pt x="549" y="1600" on="0"/>
        <pt x="880" y="1600" on="1"/>
        <pt x="1170" y="1600" on="0"/>
        <pt x="1386" y="1420" on="1"/>
        <pt x="1543" y="1577" on="1"/>
        <pt x="1567" y="1600" on="0"/>
        <pt x="1600" y="1600" on="1"/>
        <pt x="1633" y="1600" on="0"/>
        <pt x="1680" y="1553" on="0"/>
        <pt x="1680" y="1520" on="1"/>
        <pt x="1680" y="1491" on="0"/>
        <pt x="1662" y="1469" on="1"/>
      </contour>
      <contour>
        <pt x="374" y="408" on="1"/>
        <pt x="1272" y="1306" on="1"/>
        <pt x="1104" y="1440" on="0"/>
        <pt x="880" y="1440" on="1"/>
        <pt x="615" y="1440" on="0"/>
        <pt x="240" y="1065" on="0"/>
        <pt x="240" y="800" on="1"/>
        <pt x="240" y="576" on="0"/>
      </contour>
      <contour>
        <pt x="1386" y="1193" on="1"/>
        <pt x="488" y="294" on="1"/>
        <pt x="656" y="160" on="0"/>
        <pt x="880" y="160" on="1"/>
        <pt x="1145" y="160" on="0"/>
        <pt x="1520" y="535" on="0"/>
        <pt x="1520" y="800" on="1"/>
        <pt x="1520" y="1024" on="0"/>
      </contour>
    </TTGlyph>
    <TTGlyph name="Oslashacute" xMin="80" yMin="0" xMax="1680" yMax="2080">
      <component glyphName="Oslash" x="0" y="0" flags="0x200"/>
      <component glyphName="acute" x="640" y="480" flags="0x0"/>
    </TTGlyph>
    <TTGlyph name="Otilde" xMin="80" yMin="0" xMax="1680" yMax="1996">
      <component glyphName="O" x="0" y="0" flags="0x200"/>
      <component glyphName="tilde" x="397" y="480" flags="0x0"/>
    </TTGlyph>
    <TTGlyph name="P" xMin="80" yMin="0" xMax="1000" yMax="1600">
      <contour>
        <pt x="240" y="1440" on="1"/>
        <pt x="240" y="720" on="1"/>
        <pt x="480" y="720" on="1"/>
        <pt x="629" y="720" on="0"/>
        <pt x="840" y="931" on="0"/>
        <pt x="840" y="1080" on="1"/>
        <pt x="840" y="1229" on="0"/>
        <pt x="629" y="1440" on="0"/>
        <pt x="480" y="1440" on="1"/>
      </contour>
      <contour>
        <pt x="160" y="1600" on="1"/>
        <pt x="480" y="1600" on="1"/>
        <pt x="695" y="1600" on="0"/>
        <pt x="1000" y="1295" on="0"/>
        <pt x="1000" y="1080" on="1"/>
        <pt x="1000" y="865" on="0"/>
        <pt x="695" y="560" on="0"/>
        <pt x="480" y="560" on="1"/>
        <pt x="240" y="560" on="1"/>
        <pt x="240" y="80" on="1"/>
        <pt x="240" y="47" on="0"/>
        <pt x="193" y="0" on="0"/>
        <pt x="160" y="0" on="1"/>
        <pt x="127" y="0" on="0"/>
        <pt x="80" y="47" on="0"/>
        <pt x="80" y="80" on="1"/>
        <pt x="80" y="1520" on="1"/>
        <pt x="80" y="1553" on="0"/>
        <pt x="127" y="1600" on="0"/>
      </contour>
    </TTGlyph>
    <TTGlyph name="Phi" xMin="80" yMin="0" xMax="1680" yMax="1600">
      <contour>
        <pt x="800" y="1277" on="1"/>
        <pt x="586" y="1258" on="0"/>
        <pt x="428" y="1140" on="1"/>
        <pt x="240" y="999" on="0"/>
        <pt x="240" y="800" on="1"/>
        <pt x="240" y="601" on="0"/>
        <pt x="428" y="461" on="1"/>
        <pt x="586" y="342" on="0"/>
        <pt x="800" y="323" on="1"/>
      </contour>
      <contour>
        <pt x="960" y="1277" on="1"/>
        <pt x="960" y="323" on="1"/>
        <pt x="1174" y="342" on="0"/>
        <pt x="1333" y="461" on="1"/>
        <pt x="1520" y="601" on="0"/>
        <pt x="1520" y="800" on="1"/>
        <pt x="1520" y="999" on="0"/>
        <pt x="1333" y="1140" on="1"/>
        <pt x="1174" y="1258" on="0"/>
      </contour>
      <contour>
        <pt x="800" y="1520" on="1"/>
        <pt x="800" y="1553" on="0"/>
        <pt x="847" y="1600" on="0"/>
        <pt x="880" y="1600" on="1"/>
        <pt x="913" y="1600" on="0"/>
        <pt x="960" y="1553" on="0"/>
        <pt x="960" y="1520" on="1"/>
        <pt x="960" y="1437" on="1"/>
        <pt x="1240" y="1417" on="0"/>
        <pt x="1446" y="1253" on="1"/>
        <pt x="1680" y="1065" on="0"/>
        <pt x="1680" y="800" on="1"/>
        <pt x="1680" y="535" on="0"/>
        <pt x="1446" y="348" on="1"/>
        <pt x="1240" y="183" on="0"/>
        <pt x="960" y="163" on="1"/>
        <pt x="960" y="80" on="1"/>
        <pt x="960" y="47" on="0"/>
        <pt x="913" y="0" on="0"/>
        <pt x="880" y="0" on="1"/>
        <pt x="847" y="0" on="0"/>
        <pt x="800" y="47" on="0"/>
        <pt x="800" y="80" on="1"/>
        <pt x="800" y="163" on="1"/>
        <pt x="520" y="183" on="0"/>
        <pt x="315" y="348" on="1"/>
        <pt x="80" y="535" on="0"/>
        <pt x="80" y="800" on="1"/>
        <pt x="80" y="1065" on="0"/>
        <pt x="315" y="1253" on="1"/>
        <pt x="520" y="1417" on="0"/>
        <pt x="800" y="1437" on="1"/>
      </contour>
    </TTGlyph>
    <TTGlyph name="Pi" xMin="80" yMin="0" xMax="1280" yMax="1600">
      <contour>
        <pt x="160" y="1600" on="1"/>
        <pt x="1200" y="1600" on="1"/>
        <pt x="1233" y="1600" on="0"/>
        <pt x="1280" y="1553" on="0"/>
        <pt x="1280" y="1520" on="1"/>
        <pt x="1280" y="80" on="1"/>
        <pt x="1280" y="47" on="0"/>
        <pt x="1233" y="0" on="0"/>
        <pt x="1200" y="0" on="1"/>
        <pt x="1167" y="0" on="0"/>
        <pt x="1120" y="47" on="0"/>
        <pt x="1120" y="80" on="1"/>
        <pt x="1120" y="1440" on="1"/>
        <pt x="240" y="1440" on="1"/>
        <pt x="240" y="80" on="1"/>
        <pt x="240" y="47" on="0"/>
        <pt x="193" y="0" on="0"/>
        <pt x="160" y="0" on="1"/>
        <pt x="127" y="0" on="0"/>
        <pt x="80" y="47" on="0"/>
        <pt x="80" y="80" on="1"/>
        <pt x="80" y="1520" on="1"/>
        <pt x="80" y="1553" on="0"/>
        <pt x="127" y="1600" on="0"/>
      </contour>
    </TTGlyph>
    <TTGlyph name="Psi" xMin="80" yMin="0" xMax="1360" yMax="1600">
      <contour>
        <pt x="80" y="1520" on="1"/>
        <pt x="80" y="1553" on="0"/>
        <pt x="127" y="1600" on="0"/>
        <pt x="160" y="1600" on="1"/>
        <pt x="193" y="1600" on="0"/>
        <pt x="240" y="1553" on="0"/>
        <pt x="240" y="1520" on="1"/>
        <pt x="240" y="1120" on="1"/>
        <pt x="240" y="921" on="0"/>
        <pt x="381" y="781" on="1"/>
        <pt x="492" y="669" on="0"/>
        <pt x="640" y="646" on="1"/>
        <pt x="640" y="1520" on="1"/>
        <pt x="640" y="1553" on="0"/>
        <pt x="687" y="1600" on="0"/>
        <pt x="720" y="1600" on="1"/>
        <pt x="753" y="1600" on="0"/>
        <pt x="800" y="1553" on="0"/>
        <pt x="800" y="1520" on="1"/>
        <pt x="800" y="646" on="1"/>
        <pt x="948" y="669" on="0"/>
        <pt x="1060" y="781" on="1"/>
        <pt x="1200" y="921" on="0"/>
        <pt x="1200" y="1120" on="1"/>
        <pt x="1200" y="1520" on="1"/>
        <pt x="1200" y="1553" on="0"/>
        <pt x="1247" y="1600" on="0"/>
        <pt x="1280" y="1600" on="1"/>
        <pt x="1313" y="1600" on="0"/>
        <pt x="1360" y="1553" on="0"/>
        <pt x="1360" y="1520" on="1"/>
        <pt x="1360" y="1120" on="1"/>
        <pt x="1360" y="855" on="0"/>
        <pt x="1173" y="668" on="1"/>
        <pt x="1014" y="509" on="0"/>
        <pt x="800" y="484" on="1"/>
        <pt x="800" y="80" on="1"/>
        <pt x="800" y="47" on="0"/>
        <pt x="753" y="0" on="0"/>
        <pt x="720" y="0" on="1"/>
        <pt x="687" y="0" on="0"/>
        <pt x="640" y="47" on="0"/>
        <pt x="640" y="80" on="1"/>
        <pt x="640" y="484" on="1"/>
        <pt x="426" y="509" on="0"/>
        <pt x="268" y="668" on="1"/>
        <pt x="80" y="855" on="0"/>
        <pt x="80" y="1120" on="1"/>
      </contour>
    </TTGlyph>
    <TTGlyph name="Q" xMin="80" yMin="0" xMax="1680" yMax="1600">
      <contour>
        <pt x="1386" y="180" on="1"/>
        <pt x="1170" y="0" on="0"/>
        <pt x="880" y="0" on="1"/>
        <pt x="549" y="0" on="0"/>
        <pt x="80" y="469" on="0"/>
        <pt x="80" y="800" on="1"/>
        <pt x="80" y="1131" on="0"/>
        <pt x="549" y="1600" on="0"/>
        <pt x="880" y="1600" on="1"/>
        <pt x="1211" y="1600" on="0"/>
        <pt x="1680" y="1131" on="0"/>
        <pt x="1680" y="800" on="1"/>
        <pt x="1680" y="510" on="0"/>
        <pt x="1500" y="294" on="1"/>
        <pt x="1658" y="136" on="1"/>
        <pt x="1680" y="112" on="0"/>
        <pt x="1680" y="80" on="1"/>
        <pt x="1680" y="47" on="0"/>
        <pt x="1633" y="0" on="0"/>
        <pt x="1600" y="0" on="1"/>
        <pt x="1567" y="0" on="0"/>
        <pt x="1542" y="24" on="1"/>
      </contour>
      <contour>
        <pt x="1272" y="294" on="1"/>
        <pt x="1103" y="463" on="1"/>
        <pt x="1080" y="487" on="0"/>
        <pt x="1080" y="520" on="1"/>
        <pt x="1080" y="553" on="0"/>
        <pt x="1127" y="600" on="0"/>
        <pt x="1160" y="600" on="1"/>
        <pt x="1193" y="600" on="0"/>
        <pt x="1217" y="577" on="1"/>
        <pt x="1386" y="408" on="1"/>
        <pt x="1520" y="576" on="0"/>
        <pt x="1520" y="800" on="1"/>
        <pt x="1520" y="1065" on="0"/>
        <pt x="1145" y="1440" on="0"/>
        <pt x="880" y="1440" on="1"/>
        <pt x="615" y="1440" on="0"/>
        <pt x="240" y="1065" on="0"/>
        <pt x="240" y="800" on="1"/>
        <pt x="240" y="535" on="0"/>
        <pt x="615" y="160" on="0"/>
        <pt x="880" y="160" on="1"/>
        <pt x="1104" y="160" on="0"/>
      </contour>
    </TTGlyph>
    <TTGlyph name="R" xMin="80" yMin="0" xMax="1120" yMax="1600">
      <contour>
        <pt x="240" y="1440" on="1"/>
        <pt x="240" y="800" on="1"/>
        <pt x="560" y="800" on="1"/>
        <pt x="693" y="800" on="0"/>
        <pt x="880" y="987" on="0"/>
        <pt x="880" y="1120" on="1"/>
        <pt x="880" y="1253" on="0"/>
        <pt x="693" y="1440" on="0"/>
        <pt x="560" y="1440" on="1"/>
      </contour>
      <contour>
        <pt x="160" y="1600" on="1"/>
        <pt x="560" y="1600" on="1"/>
        <pt x="759" y="1600" on="0"/>
        <pt x="1040" y="1319" on="0"/>
        <pt x="1040" y="1120" on="1"/>
        <pt x="1040" y="921" on="0"/>
        <pt x="900" y="781" on="1"/>
        <pt x="835" y="716" on="0"/>
        <pt x="759" y="682" on="1"/>
        <pt x="1107" y="124" on="1"/>
        <pt x="1120" y="105" on="0"/>
        <pt x="1120" y="80" on="1"/>
        <pt x="1120" y="47" on="0"/>
        <pt x="1073" y="0" on="0"/>
        <pt x="1040" y="0" on="1"/>
        <pt x="997" y="0" on="0"/>
        <pt x="970" y="41" on="1"/>
        <pt x="595" y="641" on="1"/>
        <pt x="578" y="640" on="0"/>
        <pt x="560" y="640" on="1"/>
        <pt x="240" y="640" on="1"/>
        <pt x="240" y="80" on="1"/>
        <pt x="240" y="47" on="0"/>
        <pt x="193" y="0" on="0"/>
        <pt x="160" y="0" on="1"/>
        <pt x="127" y="0" on="0"/>
        <pt x="80" y="47" on="0"/>
        <pt x="80" y="80" on="1"/>
        <pt x="80" y="1520" on="1"/>
        <pt x="80" y="1553" on="0"/>
        <pt x="127" y="1600" on="0"/>
      </contour>
    </TTGlyph>
    <TTGlyph name="Racute" xMin="80" yMin="0" xMax="1120" yMax="2080">
      <component glyphName="R" x="0" y="0" flags="0x200"/>
      <component glyphName="acute" x="240" y="480" flags="0x0"/>
    </TTGlyph>
    <TTGlyph name="Rcaron" xMin="80" yMin="0" xMax="1120" yMax="2040">
      <component glyphName="R" x="0" y="0" flags="0x200"/>
      <component glyphName="caron" x="81" y="480" flags="0x0"/>
    </TTGlyph>
    <TTGlyph name="Rcommaaccent" xMin="80" yMin="-440" xMax="1120" yMax="1600">
      <component glyphName="R" x="0" y="0" flags="0x200"/>
      <component glyphName="commaaccent" x="280" y="0" flags="0x0"/>
    </TTGlyph>
    <TTGlyph name="Rho" xMin="80" yMin="0" xMax="1000" yMax="1600">
      <component glyphName="P" x="0" y="0" flags="0x200"/>
    </TTGlyph>
    <TTGlyph name="S" xMin="80" yMin="0" xMax="980" yMax="1600">
      <contour>
        <pt x="96" y="219" on="1"/>
        <pt x="80" y="240" on="0"/>
        <pt x="80" y="267" on="1"/>
        <pt x="80" y="300" on="0"/>
        <pt x="127" y="347" on="0"/>
        <pt x="160" y="347" on="1"/>
        <pt x="203" y="347" on="0"/>
        <pt x="228" y="310" on="1"/>
        <pt x="240" y="291" on="0"/>
        <pt x="256" y="274" on="1"/>
        <pt x="341" y="172" on="0"/>
        <pt x="474" y="161" on="1"/>
        <pt x="606" y="151" on="0"/>
        <pt x="808" y="322" on="0"/>
        <pt x="819" y="454" on="1"/>
        <pt x="830" y="587" on="0"/>
        <pt x="659" y="788" on="0"/>
        <pt x="526" y="799" on="1"/>
        <pt x="361" y="813" on="0"/>
        <pt x="147" y="1065" on="0"/>
        <pt x="160" y="1231" on="1"/>
        <pt x="174" y="1396" on="0"/>
        <pt x="300" y="1503" on="1"/>
        <pt x="413" y="1600" on="0"/>
        <pt x="560" y="1600" on="1"/>
        <pt x="734" y="1600" on="0"/>
        <pt x="864" y="1457" on="1"/>
        <pt x="886" y="1431" on="0"/>
        <pt x="903" y="1403" on="1"/>
        <pt x="915" y="1384" on="0"/>
        <pt x="915" y="1360" on="1"/>
        <pt x="915" y="1327" on="0"/>
        <pt x="868" y="1280" on="0"/>
        <pt x="835" y="1280" on="1"/>
        <pt x="797" y="1280" on="0"/>
        <pt x="779" y="1304" on="1"/>
        <pt x="761" y="1328" on="0"/>
        <pt x="742" y="1353" on="1"/>
        <pt x="677" y="1429" on="0"/>
        <pt x="579" y="1437" on="1"/>
        <pt x="480" y="1445" on="0"/>
        <pt x="328" y="1316" on="0"/>
        <pt x="320" y="1218" on="1"/>
        <pt x="312" y="1119" on="0"/>
        <pt x="441" y="967" on="0"/>
        <pt x="539" y="959" on="1"/>
        <pt x="738" y="942" on="0"/>
        <pt x="867" y="791" on="1"/>
        <pt x="980" y="657" on="0"/>
        <pt x="980" y="487" on="1"/>
        <pt x="980" y="464" on="0"/>
        <pt x="978" y="441" on="1"/>
        <pt x="962" y="243" on="0"/>
        <pt x="811" y="115" on="1"/>
        <pt x="676" y="0" on="0"/>
        <pt x="504" y="0" on="1"/>
        <pt x="289" y="0" on="0"/>
        <pt x="134" y="170" on="1"/>
        <pt x="113" y="193" on="0"/>
      </contour>
    </TTGlyph>
    <TTGlyph name="Sacute" xMin="80" yMin="0" xMax="980" yMax="2080">
      <component glyphName="S" x="0" y="0" flags="0x200"/>
      <component glyphName="acute" x="317" y="480" flags="0x0"/>
    </TTGlyph>
    <TTGlyph name="Scaron" xMin="80" yMin="0" xMax="980" yMax="2040">
      <component glyphName="S" x="0" y="0" flags="0x200"/>
      <component glyphName="caron" x="130" y="480" flags="0x0"/>
    </TTGlyph>
    <TTGlyph name="Scedilla" xMin="80" yMin="-480" xMax="980" yMax="1600">
      <component glyphName="S" x="0" y="0" flags="0x200"/>
      <component glyphName="cedilla" x="150" y="0" flags="0x0"/>
    </TTGlyph>
    <TTGlyph name="Scircumflex" xMin="80" yMin="0" xMax="980" yMax="2040">
      <component glyphName="S" x="0" y="0" flags="0x200"/>
      <component glyphName="circumflex" x="140" y="480" flags="0x0"/>
    </TTGlyph>
    <TTGlyph name="Sigma" xMin="80" yMin="0" xMax="1200" yMax="1600">
      <contour>
        <pt x="1120" y="1600" on="1"/>
        <pt x="1153" y="1600" on="0"/>
        <pt x="1200" y="1553" on="0"/>
        <pt x="1200" y="1520" on="1"/>
        <pt x="1200" y="1487" on="0"/>
        <pt x="1153" y="1440" on="0"/>
        <pt x="1120" y="1440" on="1"/>
        <pt x="324" y="1440" on="1"/>
        <pt x="785" y="847" on="1"/>
        <pt x="800" y="826" on="0"/>
        <pt x="800" y="800" on="1"/>
        <pt x="800" y="774" on="0"/>
        <pt x="785" y="753" on="1"/>
        <pt x="324" y="160" on="1"/>
        <pt x="1120" y="160" on="1"/>
        <pt x="1153" y="160" on="0"/>
        <pt x="1200" y="113" on="0"/>
        <pt x="1200" y="80" on="1"/>
        <pt x="1200" y="47" on="0"/>
        <pt x="1153" y="0" on="0"/>
        <pt x="1120" y="0" on="1"/>
        <pt x="160" y="0" on="1"/>
        <pt x="127" y="0" on="0"/>
        <pt x="80" y="47" on="0"/>
        <pt x="80" y="80" on="1"/>
        <pt x="80" y="105" on="0"/>
        <pt x="93" y="124" on="1"/>
        <pt x="618" y="800" on="1"/>
        <pt x="93" y="1476" on="1"/>
        <pt x="80" y="1495" on="0"/>
        <pt x="80" y="1520" on="1"/>
        <pt x="80" y="1553" on="0"/>
        <pt x="127" y="1600" on="0"/>
        <pt x="160" y="1600" on="1"/>
      </contour>
    </TTGlyph>
    <TTGlyph name="T" xMin="80" yMin="0" xMax="1280" yMax="1600">
      <contour>
        <pt x="160" y="1440" on="1"/>
        <pt x="127" y="1440" on="0"/>
        <pt x="80" y="1487" on="0"/>
        <pt x="80" y="1520" on="1"/>
        <pt x="80" y="1553" on="0"/>
        <pt x="127" y="1600" on="0"/>
        <pt x="160" y="1600" on="1"/>
        <pt x="1200" y="1600" on="1"/>
        <pt x="1233" y="1600" on="0"/>
        <pt x="1280" y="1553" on="0"/>
        <pt x="1280" y="1520" on="1"/>
        <pt x="1280" y="1487" on="0"/>
        <pt x="1233" y="1440" on="0"/>
        <pt x="1200" y="1440" on="1"/>
        <pt x="760" y="1440" on="1"/>
        <pt x="760" y="80" on="1"/>
        <pt x="760" y="47" on="0"/>
        <pt x="713" y="0" on="0"/>
        <pt x="680" y="0" on="1"/>
        <pt x="647" y="0" on="0"/>
        <pt x="600" y="47" on="0"/>
        <pt x="600" y="80" on="1"/>
        <pt x="600" y="1440" on="1"/>
      </contour>
    </TTGlyph>
    <TTGlyph name="Tau" xMin="80" yMin="0" xMax="1280" yMax="1600">
      <component glyphName="T" x="0" y="0" flags="0x200"/>
    </TTGlyph>
    <TTGlyph name="Tbar" xMin="80" yMin="0" xMax="1280" yMax="1600">
      <contour>
        <pt x="600" y="800" on="1"/>
        <pt x="600" y="1440" on="1"/>
        <pt x="160" y="1440" on="1"/>
        <pt x="127" y="1440" on="0"/>
        <pt x="80" y="1487" on="0"/>
        <pt x="80" y="1520" on="1"/>
        <pt x="80" y="1553" on="0"/>
        <pt x="127" y="1600" on="0"/>
        <pt x="160" y="1600" on="1"/>
        <pt x="1200" y="1600" on="1"/>
        <pt x="1233" y="1600" on="0"/>
        <pt x="1280" y="1553" on="0"/>
        <pt x="1280" y="1520" on="1"/>
        <pt x="1280" y="1487" on="0"/>
        <pt x="1233" y="1440" on="0"/>
        <pt x="1200" y="1440" on="1"/>
        <pt x="760" y="1440" on="1"/>
        <pt x="760" y="800" on="1"/>
        <pt x="1080" y="800" on="1"/>
        <pt x="1113" y="800" on="0"/>
        <pt x="1160" y="753" on="0"/>
        <pt x="1160" y="720" on="1"/>
        <pt x="1160" y="687" on="0"/>
        <pt x="1113" y="640" on="0"/>
        <pt x="1080" y="640" on="1"/>
        <pt x="760" y="640" on="1"/>
        <pt x="760" y="80" on="1"/>
        <pt x="760" y="47" on="0"/>
        <pt x="713" y="0" on="0"/>
        <pt x="680" y="0" on="1"/>
        <pt x="647" y="0" on="0"/>
        <pt x="600" y="47" on="0"/>
        <pt x="600" y="80" on="1"/>
        <pt x="600" y="640" on="1"/>
        <pt x="280" y="640" on="1"/>
        <pt x="247" y="640" on="0"/>
        <pt x="200" y="687" on="0"/>
        <pt x="200" y="720" on="1"/>
        <pt x="200" y="753" on="0"/>
        <pt x="247" y="800" on="0"/>
        <pt x="280" y="800" on="1"/>
      </contour>
    </TTGlyph>
    <TTGlyph name="Tcaron" xMin="80" yMin="0" xMax="1280" yMax="2040">
      <component glyphName="T" x="0" y="0" flags="0x200"/>
      <component glyphName="caron" x="280" y="480" flags="0x0"/>
    </TTGlyph>
    <TTGlyph name="Tcommaaccent" xMin="80" yMin="-401" xMax="1280" yMax="1600">
      <component glyphName="T" x="0" y="0" flags="0x200"/>
      <component glyphName="cedilla" x="320" y="79" flags="0x0"/>
    </TTGlyph>
    <TTGlyph name="Theta" xMin="80" yMin="0" xMax="1680" yMax="1600">
      <component glyphName="O" x="0" y="0" flags="0x200"/>
      <component glyphName="macron" x="320" y="-1039" flags="0x0"/>
    </TTGlyph>
    <TTGlyph name="Thorn" xMin="80" yMin="0" xMax="1200" yMax="1600">
      <contour>
        <pt x="80" y="1520" on="1"/>
        <pt x="80" y="1553" on="0"/>
        <pt x="127" y="1600" on="0"/>
        <pt x="160" y="1600" on="1"/>
        <pt x="193" y="1600" on="0"/>
        <pt x="240" y="1553" on="0"/>
        <pt x="240" y="1520" on="1"/>
        <pt x="240" y="1280" on="1"/>
        <pt x="720" y="1280" on="1"/>
        <pt x="919" y="1280" on="0"/>
        <pt x="1200" y="999" on="0"/>
        <pt x="1200" y="800" on="1"/>
        <pt x="1200" y="601" on="0"/>
        <pt x="919" y="320" on="0"/>
        <pt x="720" y="320" on="1"/>
        <pt x="240" y="320" on="1"/>
        <pt x="240" y="80" on="1"/>
        <pt x="240" y="47" on="0"/>
        <pt x="193" y="0" on="0"/>
        <pt x="160" y="0" on="1"/>
        <pt x="127" y="0" on="0"/>
        <pt x="80" y="47" on="0"/>
        <pt x="80" y="80" on="1"/>
      </contour>
      <contour>
        <pt x="720" y="480" on="1"/>
        <pt x="853" y="480" on="0"/>
        <pt x="1040" y="667" on="0"/>
        <pt x="1040" y="800" on="1"/>
        <pt x="1040" y="933" on="0"/>
        <pt x="853" y="1120" on="0"/>
        <pt x="720" y="1120" on="1"/>
        <pt x="240" y="1120" on="1"/>
        <pt x="240" y="480" on="1"/>
      </contour>
    </TTGlyph>
    <TTGlyph name="U" xMin="80" yMin="0" xMax="1200" yMax="1600">
      <contour>
        <pt x="80" y="1520" on="1"/>
        <pt x="80" y="1553" on="0"/>
        <pt x="127" y="1600" on="0"/>
        <pt x="160" y="1600" on="1"/>
        <pt x="193" y="1600" on="0"/>
        <pt x="240" y="1553" on="0"/>
        <pt x="240" y="1520" on="1"/>
        <pt x="240" y="560" on="1"/>
        <pt x="240" y="394" on="0"/>
        <pt x="474" y="160" on="0"/>
        <pt x="640" y="160" on="1"/>
        <pt x="806" y="160" on="0"/>
        <pt x="1040" y="394" on="0"/>
        <pt x="1040" y="560" on="1"/>
        <pt x="1040" y="1520" on="1"/>
        <pt x="1040" y="1553" on="0"/>
        <pt x="1087" y="1600" on="0"/>
        <pt x="1120" y="1600" on="1"/>
        <pt x="1153" y="1600" on="0"/>
        <pt x="1200" y="1553" on="0"/>
        <pt x="1200" y="1520" on="1"/>
        <pt x="1200" y="560" on="1"/>
        <pt x="1200" y="328" on="0"/>
        <pt x="872" y="0" on="0"/>
        <pt x="640" y="0" on="1"/>
        <pt x="408" y="0" on="0"/>
        <pt x="80" y="328" on="0"/>
        <pt x="80" y="560" on="1"/>
      </contour>
    </TTGlyph>
    <TTGlyph name="Uacute" xMin="80" yMin="0" xMax="1200" yMax="2080">
      <component glyphName="U" x="0" y="0" flags="0x200"/>
      <component glyphName="acute" x="427" y="480" flags="0x0"/>
    </TTGlyph>
    <TTGlyph name="Ubreve" xMin="80" yMin="0" xMax="1200" yMax="2040">
      <component glyphName="U" x="0" y="0" flags="0x200"/>
      <component glyphName="breve" x="246" y="480" flags="0x0"/>
    </TTGlyph>
    <TTGlyph name="Ucircumflex" xMin="80" yMin="0" xMax="1200" yMax="2040">
      <component glyphName="U" x="0" y="0" flags="0x200"/>
      <component glyphName="circumflex" x="240" y="480" flags="0x0"/>
    </TTGlyph>
    <TTGlyph name="Udieresis" xMin="80" yMin="0" xMax="1200" yMax="1940">
      <component glyphName="U" x="0" y="0" flags="0x200"/>
      <component glyphName="dieresis" x="161" y="480" flags="0x0"/>
    </TTGlyph>
    <TTGlyph name="Ugrave" xMin="80" yMin="0" xMax="1200" yMax="2080">
      <component glyphName="U" x="0" y="0" flags="0x200"/>
      <component glyphName="grave" x="293" y="480" flags="0x0"/>
    </TTGlyph>
    <TTGlyph name="Uhungarumlaut" xMin="80" yMin="0" xMax="1200" yMax="2080">
      <component glyphName="U" x="0" y="0" flags="0x200"/>
      <component glyphName="hungarumlaut" x="280" y="480" flags="0x0"/>
    </TTGlyph>
    <TTGlyph name="Umacron" xMin="80" yMin="0" xMax="1200" yMax="1920">
      <component glyphName="U" x="0" y="0" flags="0x200"/>
      <component glyphName="uni02C9" x="240" y="480" flags="0x0"/>
    </TTGlyph>
    <TTGlyph name="Uogonek" xMin="80" yMin="-477" xMax="1200" yMax="1600">
      <component glyphName="U" x="0" y="0" flags="0x200"/>
      <component glyphName="ogonek" x="320" y="3" flags="0x0"/>
    </TTGlyph>
    <TTGlyph name="Upsilon" xMin="80" yMin="0" xMax="1200" yMax="1600">
      <component glyphName="Y" x="0" y="0" flags="0x200"/>
    </TTGlyph>
    <TTGlyph name="Upsilondieresis" xMin="80" yMin="0" xMax="1200" yMax="1940">
      <contour>
        <pt x="500" y="1840" on="1"/>
        <pt x="500" y="1799" on="0"/>
        <pt x="441" y="1740" on="0"/>
        <pt x="400" y="1740" on="1"/>
        <pt x="359" y="1740" on="0"/>
        <pt x="300" y="1799" on="0"/>
        <pt x="300" y="1840" on="1"/>
        <pt x="300" y="1881" on="0"/>
        <pt x="359" y="1940" on="0"/>
        <pt x="400" y="1940" on="1"/>
        <pt x="441" y="1940" on="0"/>
        <pt x="500" y="1881" on="0"/>
      </contour>
      <contour>
        <pt x="980" y="1840" on="1"/>
        <pt x="980" y="1799" on="0"/>
        <pt x="921" y="1740" on="0"/>
        <pt x="880" y="1740" on="1"/>
        <pt x="839" y="1740" on="0"/>
        <pt x="780" y="1799" on="0"/>
        <pt x="780" y="1840" on="1"/>
        <pt x="780" y="1881" on="0"/>
        <pt x="839" y="1940" on="0"/>
        <pt x="880" y="1940" on="1"/>
        <pt x="921" y="1940" on="0"/>
        <pt x="980" y="1881" on="0"/>
      </contour>
      <contour>
        <pt x="720" y="80" on="1"/>
        <pt x="720" y="47" on="0"/>
        <pt x="673" y="0" on="0"/>
        <pt x="640" y="0" on="1"/>
        <pt x="607" y="0" on="0"/>
        <pt x="560" y="47" on="0"/>
        <pt x="560" y="80" on="1"/>
        <pt x="560" y="776" on="1"/>
        <pt x="93" y="1475" on="1"/>
        <pt x="80" y="1495" on="0"/>
        <pt x="80" y="1520" on="1"/>
        <pt x="80" y="1553" on="0"/>
        <pt x="127" y="1600" on="0"/>
        <pt x="160" y="1600" on="1"/>
        <pt x="201" y="1600" on="0"/>
        <pt x="225" y="1567" on="1"/>
        <pt x="640" y="945" on="1"/>
        <pt x="1055" y="1567" on="1"/>
        <pt x="1079" y="1600" on="0"/>
        <pt x="1120" y="1600" on="1"/>
        <pt x="1153" y="1600" on="0"/>
        <pt x="1200" y="1553" on="0"/>
        <pt x="1200" y="1520" on="1"/>
        <pt x="1200" y="1495" on="0"/>
        <pt x="1187" y="1475" on="1"/>
        <pt x="720" y="776" on="1"/>
      </contour>
    </TTGlyph>
    <TTGlyph name="Upsilontonos" xMin="-40" yMin="0" xMax="1560" yMax="1600">
      <contour>
        <pt x="338" y="1464" on="1"/>
        <pt x="95" y="1221" on="1"/>
        <pt x="72" y="1200" on="0"/>
        <pt x="40" y="1200" on="1"/>
        <pt x="7" y="1200" on="0"/>
        <pt x="-40" y="1247" on="0"/>
        <pt x="-40" y="1280" on="1"/>
        <pt x="-40" y="1311" on="0"/>
        <pt x="-20" y="1334" on="1"/>
        <pt x="223" y="1577" on="1"/>
        <pt x="247" y="1600" on="0"/>
        <pt x="280" y="1600" on="1"/>
        <pt x="313" y="1600" on="0"/>
        <pt x="360" y="1553" on="0"/>
        <pt x="360" y="1520" on="1"/>
        <pt x="360" y="1488" on="0"/>
      </contour>
      <contour>
        <pt x="1080" y="80" on="1"/>
        <pt x="1080" y="47" on="0"/>
        <pt x="1033" y="0" on="0"/>
        <pt x="1000" y="0" on="1"/>
        <pt x="967" y="0" on="0"/>
        <pt x="920" y="47" on="0"/>
        <pt x="920" y="80" on="1"/>
        <pt x="920" y="776" on="1"/>
        <pt x="453" y="1475" on="1"/>
        <pt x="440" y="1495" on="0"/>
        <pt x="440" y="1520" on="1"/>
        <pt x="440" y="1553" on="0"/>
        <pt x="487" y="1600" on="0"/>
        <pt x="520" y="1600" on="1"/>
        <pt x="561" y="1600" on="0"/>
        <pt x="585" y="1567" on="1"/>
        <pt x="1000" y="945" on="1"/>
        <pt x="1415" y="1567" on="1"/>
        <pt x="1439" y="1600" on="0"/>
        <pt x="1480" y="1600" on="1"/>
        <pt x="1513" y="1600" on="0"/>
        <pt x="1560" y="1553" on="0"/>
        <pt x="1560" y="1520" on="1"/>
        <pt x="1560" y="1495" on="0"/>
        <pt x="1547" y="1475" on="1"/>
        <pt x="1080" y="776" on="1"/>
      </contour>
    </TTGlyph>
    <TTGlyph name="Uring" xMin="80" yMin="0" xMax="1200" yMax="2080">
      <component glyphName="U" x="0" y="0" flags="0x200"/>
      <component glyphName="ring" x="359" y="480" flags="0x0"/>
    </TTGlyph>
    <TTGlyph name="Utilde" xMin="80" yMin="0" xMax="1200" yMax="1996">
      <component glyphName="U" x="0" y="0" flags="0x200"/>
      <component glyphName="tilde" x="164" y="480" flags="0x0"/>
    </TTGlyph>
    <TTGlyph name="V" xMin="80" yMin="0" xMax="1360" yMax="1600">
      <contour>
        <pt x="777" y="24" on="1"/>
        <pt x="753" y="0" on="0"/>
        <pt x="720" y="0" on="1"/>
        <pt x="687" y="0" on="0"/>
        <pt x="664" y="24" on="1"/>
        <pt x="653" y="34" on="0"/>
        <pt x="647" y="50" on="1"/>
        <pt x="90" y="1475" on="1"/>
        <pt x="80" y="1498" on="0"/>
        <pt x="80" y="1520" on="1"/>
        <pt x="80" y="1553" on="0"/>
        <pt x="127" y="1600" on="0"/>
        <pt x="160" y="1600" on="1"/>
        <pt x="213" y="1600" on="0"/>
        <pt x="233" y="1554" on="1"/>
        <pt x="720" y="301" on="1"/>
        <pt x="1207" y="1554" on="1"/>
        <pt x="1227" y="1600" on="0"/>
        <pt x="1280" y="1600" on="1"/>
        <pt x="1313" y="1600" on="0"/>
        <pt x="1360" y="1553" on="0"/>
        <pt x="1360" y="1520" on="1"/>
        <pt x="1360" y="1498" on="0"/>
        <pt x="1350" y="1475" on="1"/>
        <pt x="793" y="50" on="1"/>
        <pt x="787" y="34" on="0"/>
      </contour>
    </TTGlyph>
    <TTGlyph name="W" xMin="80" yMin="0" xMax="1840" yMax="1600">
      <contour>
        <pt x="904" y="1577" on="1"/>
        <pt x="927" y="1600" on="0"/>
        <pt x="960" y="1600" on="1"/>
        <pt x="993" y="1600" on="0"/>
        <pt x="1017" y="1577" on="1"/>
        <pt x="1030" y="1563" on="0"/>
        <pt x="1036" y="1547" on="1"/>
        <pt x="1360" y="379" on="1"/>
        <pt x="1684" y="1547" on="1"/>
        <pt x="1690" y="1563" on="0"/>
        <pt x="1704" y="1577" on="1"/>
        <pt x="1727" y="1600" on="0"/>
        <pt x="1760" y="1600" on="1"/>
        <pt x="1793" y="1600" on="0"/>
        <pt x="1840" y="1553" on="0"/>
        <pt x="1840" y="1520" on="1"/>
        <pt x="1840" y="1503" on="0"/>
        <pt x="1834" y="1485" on="1"/>
        <pt x="1442" y="67" on="1"/>
        <pt x="1434" y="42" on="0"/>
        <pt x="1417" y="24" on="1"/>
        <pt x="1393" y="0" on="0"/>
        <pt x="1360" y="0" on="1"/>
        <pt x="1327" y="0" on="0"/>
        <pt x="1304" y="24" on="1"/>
        <pt x="1286" y="42" on="0"/>
        <pt x="1279" y="66" on="1"/>
        <pt x="960" y="1218" on="1"/>
        <pt x="642" y="67" on="1"/>
        <pt x="634" y="42" on="0"/>
        <pt x="617" y="24" on="1"/>
        <pt x="593" y="0" on="0"/>
        <pt x="560" y="0" on="1"/>
        <pt x="527" y="0" on="0"/>
        <pt x="504" y="24" on="1"/>
        <pt x="486" y="42" on="0"/>
        <pt x="479" y="66" on="1"/>
        <pt x="86" y="1485" on="1"/>
        <pt x="80" y="1503" on="0"/>
        <pt x="80" y="1520" on="1"/>
        <pt x="80" y="1553" on="0"/>
        <pt x="127" y="1600" on="0"/>
        <pt x="160" y="1600" on="1"/>
        <pt x="193" y="1600" on="0"/>
        <pt x="217" y="1577" on="1"/>
        <pt x="230" y="1563" on="0"/>
        <pt x="236" y="1547" on="1"/>
        <pt x="560" y="379" on="1"/>
        <pt x="884" y="1547" on="1"/>
        <pt x="888" y="1562" on="0"/>
      </contour>
    </TTGlyph>
    <TTGlyph name="Wacute" xMin="80" yMin="0" xMax="1840" yMax="2080">
      <component glyphName="W" x="0" y="0" flags="0x200"/>
      <component glyphName="acute" x="747" y="480" flags="0x0"/>
    </TTGlyph>
    <TTGlyph name="Wcircumflex" xMin="80" yMin="0" xMax="1840" yMax="2040">
      <component glyphName="W" x="0" y="0" flags="0x200"/>
      <component glyphName="circumflex" x="560" y="480" flags="0x0"/>
    </TTGlyph>
    <TTGlyph name="Wdieresis" xMin="80" yMin="0" xMax="1840" yMax="1940">
      <component glyphName="W" x="0" y="0" flags="0x200"/>
      <component glyphName="dieresis" x="481" y="480" flags="0x0"/>
    </TTGlyph>
    <TTGlyph name="Wgrave" xMin="80" yMin="0" xMax="1840" yMax="2080">
      <component glyphName="W" x="0" y="0" flags="0x200"/>
      <component glyphName="grave" x="613" y="480" flags="0x0"/>
    </TTGlyph>
    <TTGlyph name="X" xMin="80" yMin="0" xMax="1360" yMax="1600">
      <contour>
        <pt x="720" y="931" on="1"/>
        <pt x="1214" y="1566" on="1"/>
        <pt x="1242" y="1600" on="0"/>
        <pt x="1280" y="1600" on="1"/>
        <pt x="1313" y="1600" on="0"/>
        <pt x="1360" y="1553" on="0"/>
        <pt x="1360" y="1520" on="1"/>
        <pt x="1360" y="1494" on="0"/>
        <pt x="1346" y="1474" on="1"/>
        <pt x="822" y="800" on="1"/>
        <pt x="1343" y="130" on="1"/>
        <pt x="1360" y="108" on="0"/>
        <pt x="1360" y="80" on="1"/>
        <pt x="1360" y="47" on="0"/>
        <pt x="1313" y="0" on="0"/>
        <pt x="1280" y="0" on="1"/>
        <pt x="1242" y="0" on="0"/>
        <pt x="1219" y="28" on="1"/>
        <pt x="720" y="669" on="1"/>
        <pt x="221" y="28" on="1"/>
        <pt x="198" y="0" on="0"/>
        <pt x="160" y="0" on="1"/>
        <pt x="127" y="0" on="0"/>
        <pt x="80" y="47" on="0"/>
        <pt x="80" y="80" on="1"/>
        <pt x="80" y="108" on="0"/>
        <pt x="97" y="130" on="1"/>
        <pt x="618" y="800" on="1"/>
        <pt x="94" y="1474" on="1"/>
        <pt x="80" y="1494" on="0"/>
        <pt x="80" y="1520" on="1"/>
        <pt x="80" y="1553" on="0"/>
        <pt x="127" y="1600" on="0"/>
        <pt x="160" y="1600" on="1"/>
        <pt x="198" y="1600" on="0"/>
        <pt x="226" y="1566" on="1"/>
      </contour>
    </TTGlyph>
    <TTGlyph name="Xi" xMin="80" yMin="0" xMax="1200" yMax="1600">
      <contour>
        <pt x="1120" y="1600" on="1"/>
        <pt x="1153" y="1600" on="0"/>
        <pt x="1200" y="1553" on="0"/>
        <pt x="1200" y="1520" on="1"/>
        <pt x="1200" y="1487" on="0"/>
        <pt x="1153" y="1440" on="0"/>
        <pt x="1120" y="1440" on="1"/>
        <pt x="160" y="1440" on="1"/>
        <pt x="127" y="1440" on="0"/>
        <pt x="80" y="1487" on="0"/>
        <pt x="80" y="1520" on="1"/>
        <pt x="80" y="1553" on="0"/>
        <pt x="127" y="1600" on="0"/>
        <pt x="160" y="1600" on="1"/>
      </contour>
      <contour>
        <pt x="1120" y="160" on="1"/>
        <pt x="1153" y="160" on="0"/>
        <pt x="1200" y="113" on="0"/>
        <pt x="1200" y="80" on="1"/>
        <pt x="1200" y="47" on="0"/>
        <pt x="1153" y="0" on="0"/>
        <pt x="1120" y="0" on="1"/>
        <pt x="160" y="0" on="1"/>
        <pt x="127" y="0" on="0"/>
        <pt x="80" y="47" on="0"/>
        <pt x="80" y="80" on="1"/>
        <pt x="80" y="113" on="0"/>
        <pt x="127" y="160" on="0"/>
        <pt x="160" y="160" on="1"/>
      </contour>
      <contour>
        <pt x="1040" y="880" on="1"/>
        <pt x="1073" y="880" on="0"/>
        <pt x="1120" y="833" on="0"/>
        <pt x="1120" y="800" on="1"/>
        <pt x="1120" y="767" on="0"/>
        <pt x="1073" y="720" on="0"/>
        <pt x="1040" y="720" on="1"/>
        <pt x="240" y="720" on="1"/>
        <pt x="208" y="721" on="0"/>
        <pt x="186" y="744" on="1"/>
        <pt x="162" y="767" on="0"/>
        <pt x="162" y="800" on="1"/>
        <pt x="162" y="833" on="0"/>
        <pt x="186" y="857" on="1"/>
        <pt x="208" y="879" on="0"/>
        <pt x="240" y="880" on="1"/>
      </contour>
    </TTGlyph>
    <TTGlyph name="Y" xMin="80" yMin="0" xMax="1200" yMax="1600">
      <contour>
        <pt x="720" y="80" on="1"/>
        <pt x="720" y="47" on="0"/>
        <pt x="673" y="0" on="0"/>
        <pt x="640" y="0" on="1"/>
        <pt x="607" y="0" on="0"/>
        <pt x="560" y="47" on="0"/>
        <pt x="560" y="80" on="1"/>
        <pt x="560" y="776" on="1"/>
        <pt x="93" y="1475" on="1"/>
        <pt x="80" y="1495" on="0"/>
        <pt x="80" y="1520" on="1"/>
        <pt x="80" y="1553" on="0"/>
        <pt x="127" y="1600" on="0"/>
        <pt x="160" y="1600" on="1"/>
        <pt x="201" y="1600" on="0"/>
        <pt x="225" y="1567" on="1"/>
        <pt x="640" y="945" on="1"/>
        <pt x="1055" y="1567" on="1"/>
        <pt x="1079" y="1600" on="0"/>
        <pt x="1120" y="1600" on="1"/>
        <pt x="1153" y="1600" on="0"/>
        <pt x="1200" y="1553" on="0"/>
        <pt x="1200" y="1520" on="1"/>
        <pt x="1200" y="1495" on="0"/>
        <pt x="1187" y="1475" on="1"/>
        <pt x="720" y="776" on="1"/>
      </contour>
    </TTGlyph>
    <TTGlyph name="Yacute" xMin="80" yMin="0" xMax="1200" yMax="2080">
      <component glyphName="Y" x="0" y="0" flags="0x200"/>
      <component glyphName="acute" x="427" y="480" flags="0x0"/>
    </TTGlyph>
    <TTGlyph name="Ycircumflex" xMin="80" yMin="0" xMax="1200" yMax="2040">
      <component glyphName="Y" x="0" y="0" flags="0x200"/>
      <component glyphName="circumflex" x="240" y="480" flags="0x0"/>
    </TTGlyph>
    <TTGlyph name="Ydieresis" xMin="80" yMin="0" xMax="1200" yMax="1940">
      <component glyphName="Y" x="0" y="0" flags="0x200"/>
      <component glyphName="dieresis" x="161" y="480" flags="0x0"/>
    </TTGlyph>
    <TTGlyph name="Ygrave" xMin="80" yMin="0" xMax="1200" yMax="2080">
      <component glyphName="Y" x="0" y="0" flags="0x200"/>
      <component glyphName="grave" x="293" y="480" flags="0x0"/>
    </TTGlyph>
    <TTGlyph name="Z" xMin="80" yMin="0" xMax="1360" yMax="1600">
      <contour>
        <pt x="160" y="1440" on="1"/>
        <pt x="127" y="1440" on="0"/>
        <pt x="80" y="1487" on="0"/>
        <pt x="80" y="1520" on="1"/>
        <pt x="80" y="1553" on="0"/>
        <pt x="127" y="1600" on="0"/>
        <pt x="160" y="1600" on="1"/>
        <pt x="1280" y="1600" on="1"/>
        <pt x="1313" y="1600" on="0"/>
        <pt x="1360" y="1553" on="0"/>
        <pt x="1360" y="1520" on="1"/>
        <pt x="1360" y="1494" on="0"/>
        <pt x="1346" y="1474" on="1"/>
        <pt x="324" y="160" on="1"/>
        <pt x="1280" y="160" on="1"/>
        <pt x="1313" y="160" on="0"/>
        <pt x="1360" y="113" on="0"/>
        <pt x="1360" y="80" on="1"/>
        <pt x="1360" y="47" on="0"/>
        <pt x="1313" y="0" on="0"/>
        <pt x="1280" y="0" on="1"/>
        <pt x="160" y="0" on="1"/>
        <pt x="127" y="0" on="0"/>
        <pt x="80" y="47" on="0"/>
        <pt x="80" y="80" on="1"/>
        <pt x="80" y="108" on="0"/>
        <pt x="97" y="130" on="1"/>
        <pt x="1116" y="1440" on="1"/>
      </contour>
    </TTGlyph>
    <TTGlyph name="Zacute" xMin="80" yMin="0" xMax="1360" yMax="2080">
      <component glyphName="Z" x="0" y="0" flags="0x200"/>
      <component glyphName="acute" x="507" y="480" flags="0x0"/>
    </TTGlyph>
    <TTGlyph name="Zcaron" xMin="80" yMin="0" xMax="1360" yMax="2040">
      <component glyphName="Z" x="0" y="0" flags="0x200"/>
      <component glyphName="caron" x="320" y="480" flags="0x0"/>
    </TTGlyph>
    <TTGlyph name="Zdotaccent" xMin="80" yMin="0" xMax="1360" yMax="1961">
      <component glyphName="Z" x="0" y="0" flags="0x200"/>
      <component glyphName="dotaccent" x="520" y="480" flags="0x0"/>
    </TTGlyph>
    <TTGlyph name="Zeta" xMin="80" yMin="0" xMax="1360" yMax="1600">
      <component glyphName="Z" x="0" y="0" flags="0x200"/>
    </TTGlyph>
    <TTGlyph name="a" xMin="80" yMin="0" xMax="1200" yMax="1120">
      <contour>
        <pt x="640" y="960" on="1"/>
        <pt x="474" y="960" on="0"/>
        <pt x="240" y="726" on="0"/>
        <pt x="240" y="560" on="1"/>
        <pt x="240" y="394" on="0"/>
        <pt x="474" y="160" on="0"/>
        <pt x="640" y="160" on="1"/>
        <pt x="806" y="160" on="0"/>
        <pt x="1040" y="394" on="0"/>
        <pt x="1040" y="560" on="1"/>
        <pt x="1040" y="726" on="0"/>
        <pt x="806" y="960" on="0"/>
      </contour>
      <contour>
        <pt x="1040" y="168" on="1"/>
        <pt x="872" y="0" on="0"/>
        <pt x="640" y="0" on="1"/>
        <pt x="408" y="0" on="0"/>
        <pt x="80" y="328" on="0"/>
        <pt x="80" y="560" on="1"/>
        <pt x="80" y="792" on="0"/>
        <pt x="408" y="1120" on="0"/>
        <pt x="640" y="1120" on="1"/>
        <pt x="872" y="1120" on="0"/>
        <pt x="1200" y="792" on="0"/>
        <pt x="1200" y="560" on="1"/>
        <pt x="1200" y="80" on="1"/>
        <pt x="1200" y="47" on="0"/>
        <pt x="1153" y="0" on="0"/>
        <pt x="1120" y="0" on="1"/>
        <pt x="1087" y="0" on="0"/>
        <pt x="1040" y="47" on="0"/>
        <pt x="1040" y="80" on="1"/>
      </contour>
    </TTGlyph>
    <TTGlyph name="aacute" xMin="80" yMin="0" xMax="1200" yMax="1600">
      <component glyphName="a" x="0" y="0" flags="0x200"/>
      <component glyphName="acute" x="400" y="0" flags="0x0"/>
    </TTGlyph>
    <TTGlyph name="abreve" xMin="80" yMin="0" xMax="1200" yMax="1560">
      <component glyphName="a" x="0" y="0" flags="0x200"/>
      <component glyphName="breve" x="246" y="0" flags="0x0"/>
    </TTGlyph>
    <TTGlyph name="acircumflex" xMin="80" yMin="0" xMax="1200" yMax="1560">
      <component glyphName="a" x="0" y="0" flags="0x200"/>
      <component glyphName="circumflex" x="240" y="0" flags="0x0"/>
    </TTGlyph>
    <TTGlyph name="acute" xMin="80" yMin="1200" xMax="480" yMax="1600">
      <contour>
        <pt x="458" y="1464" on="1"/>
        <pt x="215" y="1221" on="1"/>
        <pt x="192" y="1200" on="0"/>
        <pt x="160" y="1200" on="1"/>
        <pt x="127" y="1200" on="0"/>
        <pt x="80" y="1247" on="0"/>
        <pt x="80" y="1280" on="1"/>
        <pt x="80" y="1311" on="0"/>
        <pt x="100" y="1334" on="1"/>
        <pt x="343" y="1577" on="1"/>
        <pt x="367" y="1600" on="0"/>
        <pt x="400" y="1600" on="1"/>
        <pt x="433" y="1600" on="0"/>
        <pt x="480" y="1553" on="0"/>
        <pt x="480" y="1520" on="1"/>
        <pt x="480" y="1488" on="0"/>
      </contour>
    </TTGlyph>
    <TTGlyph name="adieresis" xMin="80" yMin="0" xMax="1200" yMax="1460">
      <component glyphName="a" x="0" y="0" flags="0x200"/>
      <component glyphName="dieresis" x="161" y="0" flags="0x0"/>
    </TTGlyph>
    <TTGlyph name="ae" xMin="80" yMin="0" xMax="2160" yMax="1120">
      <contour>
        <pt x="640" y="960" on="1"/>
        <pt x="474" y="960" on="0"/>
        <pt x="240" y="726" on="0"/>
        <pt x="240" y="560" on="1"/>
        <pt x="240" y="394" on="0"/>
        <pt x="474" y="160" on="0"/>
        <pt x="640" y="160" on="1"/>
        <pt x="806" y="160" on="0"/>
        <pt x="1040" y="394" on="0"/>
        <pt x="1040" y="560" on="1"/>
        <pt x="1040" y="726" on="0"/>
        <pt x="806" y="960" on="0"/>
      </contour>
      <contour>
        <pt x="1993" y="640" on="1"/>
        <pt x="1971" y="755" on="0"/>
        <pt x="1883" y="843" on="1"/>
        <pt x="1766" y="960" on="0"/>
        <pt x="1600" y="960" on="1"/>
        <pt x="1434" y="960" on="0"/>
        <pt x="1317" y="843" on="1"/>
        <pt x="1229" y="755" on="0"/>
        <pt x="1207" y="640" on="1"/>
      </contour>
      <contour>
        <pt x="1200" y="168" on="1"/>
        <pt x="1200" y="80" on="1"/>
        <pt x="1200" y="47" on="0"/>
        <pt x="1153" y="0" on="0"/>
        <pt x="1120" y="0" on="1"/>
        <pt x="1087" y="0" on="0"/>
        <pt x="1040" y="47" on="0"/>
        <pt x="1040" y="80" on="1"/>
        <pt x="1040" y="168" on="1"/>
        <pt x="872" y="0" on="0"/>
        <pt x="640" y="0" on="1"/>
        <pt x="408" y="0" on="0"/>
        <pt x="80" y="328" on="0"/>
        <pt x="80" y="560" on="1"/>
        <pt x="80" y="792" on="0"/>
        <pt x="408" y="1120" on="0"/>
        <pt x="640" y="1120" on="1"/>
        <pt x="872" y="1120" on="0"/>
        <pt x="1036" y="956" on="1"/>
        <pt x="1085" y="907" on="0"/>
        <pt x="1120" y="851" on="1"/>
        <pt x="1155" y="907" on="0"/>
        <pt x="1204" y="956" on="1"/>
        <pt x="1368" y="1120" on="0"/>
        <pt x="1600" y="1120" on="1"/>
        <pt x="1832" y="1120" on="0"/>
        <pt x="2160" y="792" on="0"/>
        <pt x="2160" y="560" on="1"/>
        <pt x="2160" y="527" on="0"/>
        <pt x="2113" y="480" on="0"/>
        <pt x="2080" y="480" on="1"/>
        <pt x="1207" y="480" on="1"/>
        <pt x="1229" y="365" on="0"/>
        <pt x="1317" y="277" on="1"/>
        <pt x="1434" y="160" on="0"/>
        <pt x="1600" y="160" on="1"/>
        <pt x="1750" y="160" on="0"/>
        <pt x="1858" y="255" on="1"/>
        <pt x="1880" y="272" on="0"/>
        <pt x="1908" y="272" on="1"/>
        <pt x="1941" y="272" on="0"/>
        <pt x="1988" y="225" on="0"/>
        <pt x="1988" y="192" on="1"/>
        <pt x="1988" y="159" on="0"/>
        <pt x="1965" y="135" on="1"/>
        <pt x="1810" y="0" on="0"/>
        <pt x="1600" y="0" on="1"/>
        <pt x="1368" y="0" on="0"/>
      </contour>
    </TTGlyph>
    <TTGlyph name="aeacute" xMin="80" yMin="0" xMax="2160" yMax="1600">
      <component glyphName="ae" x="0" y="0" flags="0x200"/>
      <component glyphName="acute" x="907" y="0" flags="0x0"/>
    </TTGlyph>
    <TTGlyph name="afii00208" xMin="-80" yMin="480" xMax="1520" yMax="640">
      <contour>
        <pt x="0" y="480" on="1"/>
        <pt x="-33" y="480" on="0"/>
        <pt x="-80" y="527" on="0"/>
        <pt x="-80" y="560" on="1"/>
        <pt x="-80" y="593" on="0"/>
        <pt x="-33" y="640" on="0"/>
        <pt x="0" y="640" on="1"/>
        <pt x="1440" y="640" on="1"/>
        <pt x="1473" y="640" on="0"/>
        <pt x="1520" y="593" on="0"/>
        <pt x="1520" y="560" on="1"/>
        <pt x="1520" y="527" on="0"/>
        <pt x="1473" y="480" on="0"/>
        <pt x="1440" y="480" on="1"/>
      </contour>
    </TTGlyph>
    <TTGlyph name="afii10017" xMin="80" yMin="0" xMax="1360" yMax="1600">
      <component glyphName="A" x="0" y="0" flags="0x200"/>
    </TTGlyph>
    <TTGlyph name="afii10018" xMin="80" yMin="0" xMax="1040" yMax="1600">
      <contour>
        <pt x="560" y="160" on="1"/>
        <pt x="693" y="160" on="0"/>
        <pt x="880" y="347" on="0"/>
        <pt x="880" y="480" on="1"/>
        <pt x="880" y="613" on="0"/>
        <pt x="693" y="800" on="0"/>
        <pt x="560" y="800" on="1"/>
        <pt x="240" y="800" on="1"/>
        <pt x="240" y="160" on="1"/>
      </contour>
      <contour>
        <pt x="560" y="960" on="1"/>
        <pt x="759" y="960" on="0"/>
        <pt x="1040" y="679" on="0"/>
        <pt x="1040" y="480" on="1"/>
        <pt x="1040" y="281" on="0"/>
        <pt x="759" y="0" on="0"/>
        <pt x="560" y="0" on="1"/>
        <pt x="160" y="0" on="1"/>
        <pt x="127" y="0" on="0"/>
        <pt x="80" y="47" on="0"/>
        <pt x="80" y="80" on="1"/>
        <pt x="80" y="1520" on="1"/>
        <pt x="80" y="1553" on="0"/>
        <pt x="127" y="1600" on="0"/>
        <pt x="160" y="1600" on="1"/>
        <pt x="800" y="1600" on="1"/>
        <pt x="833" y="1600" on="0"/>
        <pt x="880" y="1553" on="0"/>
        <pt x="880" y="1520" on="1"/>
        <pt x="880" y="1487" on="0"/>
        <pt x="833" y="1440" on="0"/>
        <pt x="800" y="1440" on="1"/>
        <pt x="240" y="1440" on="1"/>
        <pt x="240" y="960" on="1"/>
      </contour>
    </TTGlyph>
    <TTGlyph name="afii10019" xMin="80" yMin="0" xMax="1040" yMax="1600">
      <component glyphName="B" x="0" y="0" flags="0x200"/>
    </TTGlyph>
    <TTGlyph name="afii10020" xMin="80" yMin="0" xMax="1120" yMax="1600">
      <contour>
        <pt x="81" y="93" on="1"/>
        <pt x="81" y="1520" on="1"/>
        <pt x="81" y="1553" on="0"/>
        <pt x="128" y="1600" on="0"/>
        <pt x="161" y="1600" on="1"/>
        <pt x="1040" y="1600" on="1"/>
        <pt x="1073" y="1600" on="0"/>
        <pt x="1120" y="1553" on="0"/>
        <pt x="1120" y="1520" on="1"/>
        <pt x="1120" y="1487" on="0"/>
        <pt x="1073" y="1440" on="0"/>
        <pt x="1040" y="1440" on="1"/>
        <pt x="241" y="1440" on="1"/>
        <pt x="241" y="79" on="1"/>
        <pt x="240" y="79" on="1"/>
        <pt x="240" y="47" on="0"/>
        <pt x="217" y="24" on="1"/>
        <pt x="193" y="0" on="0"/>
        <pt x="160" y="0" on="1"/>
        <pt x="127" y="0" on="0"/>
        <pt x="80" y="47" on="0"/>
        <pt x="80" y="80" on="1"/>
        <pt x="80" y="87" on="0"/>
      </contour>
    </TTGlyph>
    <TTGlyph name="afii10021" xMin="80" yMin="-320" xMax="1520" yMax="1600">
      <contour>
        <pt x="357" y="160" on="1"/>
        <pt x="1243" y="160" on="1"/>
        <pt x="800" y="1299" on="1"/>
      </contour>
      <contour>
        <pt x="1440" y="160" on="1"/>
        <pt x="1473" y="160" on="0"/>
        <pt x="1520" y="113" on="0"/>
        <pt x="1520" y="80" on="1"/>
        <pt x="1520" y="-240" on="1"/>
        <pt x="1520" y="-273" on="0"/>
        <pt x="1473" y="-320" on="0"/>
        <pt x="1440" y="-320" on="1"/>
        <pt x="1407" y="-320" on="0"/>
        <pt x="1360" y="-273" on="0"/>
        <pt x="1360" y="-240" on="1"/>
        <pt x="1360" y="0" on="1"/>
        <pt x="240" y="0" on="1"/>
        <pt x="240" y="-240" on="1"/>
        <pt x="240" y="-273" on="0"/>
        <pt x="193" y="-320" on="0"/>
        <pt x="160" y="-320" on="1"/>
        <pt x="127" y="-320" on="0"/>
        <pt x="80" y="-273" on="0"/>
        <pt x="80" y="-240" on="1"/>
        <pt x="80" y="80" on="1"/>
        <pt x="80" y="113" on="0"/>
        <pt x="127" y="160" on="0"/>
        <pt x="160" y="160" on="1"/>
        <pt x="185" y="160" on="1"/>
        <pt x="723" y="1544" on="1"/>
        <pt x="729" y="1562" on="0"/>
        <pt x="744" y="1577" on="1"/>
        <pt x="767" y="1600" on="0"/>
        <pt x="800" y="1600" on="1"/>
        <pt x="833" y="1600" on="0"/>
        <pt x="857" y="1577" on="1"/>
        <pt x="871" y="1562" on="0"/>
        <pt x="877" y="1544" on="1"/>
        <pt x="1415" y="160" on="1"/>
      </contour>
    </TTGlyph>
    <TTGlyph name="afii10022" xMin="80" yMin="0" xMax="1200" yMax="1600">
      <component glyphName="E" x="0" y="0" flags="0x200"/>
    </TTGlyph>
    <TTGlyph name="afii10023" xMin="80" yMin="0" xMax="1200" yMax="1940">
      <component glyphName="E" x="0" y="0" flags="0x200"/>
      <component glyphName="dieresis" x="162" y="480" flags="0x0"/>
    </TTGlyph>
    <TTGlyph name="afii10024" xMin="80" yMin="0" xMax="2000" yMax="1600">
      <contour>
        <pt x="1120" y="834" on="1"/>
        <pt x="1861" y="1575" on="1"/>
        <pt x="1887" y="1600" on="0"/>
        <pt x="1920" y="1600" on="1"/>
        <pt x="1953" y="1600" on="0"/>
        <pt x="2000" y="1553" on="0"/>
        <pt x="2000" y="1520" on="1"/>
        <pt x="2000" y="1487" on="0"/>
        <pt x="1977" y="1463" on="1"/>
        <pt x="1415" y="901" on="1"/>
        <pt x="1985" y="128" on="1"/>
        <pt x="2000" y="107" on="0"/>
        <pt x="2000" y="83" on="1"/>
        <pt x="2000" y="76" on="0"/>
        <pt x="1999" y="68" on="1"/>
        <pt x="1994" y="35" on="0"/>
        <pt x="1968" y="16" on="1"/>
        <pt x="1946" y="0" on="0"/>
        <pt x="1922" y="0" on="1"/>
        <pt x="1916" y="0" on="0"/>
        <pt x="1909" y="1" on="1"/>
        <pt x="1876" y="5" on="0"/>
        <pt x="1854" y="34" on="1"/>
        <pt x="1300" y="786" on="1"/>
        <pt x="1120" y="606" on="1"/>
        <pt x="1120" y="80" on="1"/>
        <pt x="1120" y="47" on="0"/>
        <pt x="1073" y="0" on="0"/>
        <pt x="1040" y="0" on="1"/>
        <pt x="1007" y="0" on="0"/>
        <pt x="960" y="47" on="0"/>
        <pt x="960" y="80" on="1"/>
        <pt x="960" y="606" on="1"/>
        <pt x="780" y="786" on="1"/>
        <pt x="226" y="34" on="1"/>
        <pt x="204" y="5" on="0"/>
        <pt x="171" y="1" on="1"/>
        <pt x="164" y="0" on="0"/>
        <pt x="158" y="0" on="1"/>
        <pt x="134" y="0" on="0"/>
        <pt x="113" y="16" on="1"/>
        <pt x="86" y="35" on="0"/>
        <pt x="81" y="68" on="1"/>
        <pt x="80" y="76" on="0"/>
        <pt x="80" y="83" on="1"/>
        <pt x="80" y="107" on="0"/>
        <pt x="95" y="128" on="1"/>
        <pt x="665" y="901" on="1"/>
        <pt x="103" y="1463" on="1"/>
        <pt x="80" y="1487" on="0"/>
        <pt x="80" y="1520" on="1"/>
        <pt x="80" y="1553" on="0"/>
        <pt x="127" y="1600" on="0"/>
        <pt x="160" y="1600" on="1"/>
        <pt x="193" y="1600" on="0"/>
        <pt x="219" y="1575" on="1"/>
        <pt x="960" y="834" on="1"/>
        <pt x="960" y="1520" on="1"/>
        <pt x="960" y="1553" on="0"/>
        <pt x="1007" y="1600" on="0"/>
        <pt x="1040" y="1600" on="1"/>
        <pt x="1073" y="1600" on="0"/>
        <pt x="1120" y="1553" on="0"/>
        <pt x="1120" y="1520" on="1"/>
      </contour>
    </TTGlyph>
    <TTGlyph name="afii10025" xMin="80" yMin="0" xMax="1000" yMax="1600">
      <contour>
        <pt x="540" y="760" on="1"/>
        <pt x="507" y="760" on="0"/>
        <pt x="460" y="807" on="0"/>
        <pt x="460" y="840" on="1"/>
        <pt x="460" y="873" on="0"/>
        <pt x="507" y="920" on="0"/>
        <pt x="540" y="920" on="1"/>
        <pt x="648" y="920" on="0"/>
        <pt x="800" y="1072" on="0"/>
        <pt x="800" y="1180" on="1"/>
        <pt x="800" y="1288" on="0"/>
        <pt x="648" y="1440" on="0"/>
        <pt x="540" y="1440" on="1"/>
        <pt x="432" y="1440" on="0"/>
        <pt x="280" y="1288" on="0"/>
        <pt x="280" y="1180" on="1"/>
        <pt x="280" y="1147" on="0"/>
        <pt x="233" y="1100" on="0"/>
        <pt x="200" y="1100" on="1"/>
        <pt x="167" y="1100" on="0"/>
        <pt x="120" y="1147" on="0"/>
        <pt x="120" y="1180" on="1"/>
        <pt x="120" y="1354" on="0"/>
        <pt x="366" y="1600" on="0"/>
        <pt x="540" y="1600" on="1"/>
        <pt x="714" y="1600" on="0"/>
        <pt x="960" y="1354" on="0"/>
        <pt x="960" y="1180" on="1"/>
        <pt x="960" y="1006" on="0"/>
        <pt x="837" y="883" on="1"/>
        <pt x="816" y="862" on="0"/>
        <pt x="794" y="845" on="1"/>
        <pt x="831" y="820" on="0"/>
        <pt x="866" y="786" on="1"/>
        <pt x="1000" y="651" on="0"/>
        <pt x="1000" y="460" on="1"/>
        <pt x="1000" y="269" on="0"/>
        <pt x="731" y="0" on="0"/>
        <pt x="540" y="0" on="1"/>
        <pt x="349" y="0" on="0"/>
        <pt x="80" y="269" on="0"/>
        <pt x="80" y="460" on="1"/>
        <pt x="80" y="493" on="0"/>
        <pt x="127" y="540" on="0"/>
        <pt x="160" y="540" on="1"/>
        <pt x="193" y="540" on="0"/>
        <pt x="240" y="493" on="0"/>
        <pt x="240" y="460" on="1"/>
        <pt x="240" y="336" on="0"/>
        <pt x="416" y="160" on="0"/>
        <pt x="540" y="160" on="1"/>
        <pt x="664" y="160" on="0"/>
        <pt x="840" y="336" on="0"/>
        <pt x="840" y="460" on="1"/>
        <pt x="840" y="584" on="0"/>
        <pt x="664" y="760" on="0"/>
      </contour>
    </TTGlyph>
    <TTGlyph name="afii10026" xMin="80" yMin="0" xMax="1360" yMax="1600">
      <component glyphName="N" x="1440" y="0" scalex="-0.999938964844" scaley="1.0" flags="0x0"/>
    </TTGlyph>
    <TTGlyph name="afii10027" xMin="80" yMin="0" xMax="1360" yMax="2040">
      <contour>
        <pt x="1200" y="1286" on="1"/>
        <pt x="220" y="26" on="1"/>
        <pt x="195" y="0" on="0"/>
        <pt x="160" y="0" on="1"/>
        <pt x="127" y="0" on="0"/>
        <pt x="80" y="47" on="0"/>
        <pt x="80" y="80" on="1"/>
        <pt x="80" y="1520" on="1"/>
        <pt x="80" y="1553" on="0"/>
        <pt x="127" y="1600" on="0"/>
        <pt x="160" y="1600" on="1"/>
        <pt x="193" y="1600" on="0"/>
        <pt x="240" y="1553" on="0"/>
        <pt x="240" y="1520" on="1"/>
        <pt x="240" y="313" on="1"/>
        <pt x="1218" y="1571" on="1"/>
        <pt x="1244" y="1600" on="0"/>
        <pt x="1280" y="1600" on="1"/>
        <pt x="1313" y="1600" on="0"/>
        <pt x="1360" y="1553" on="0"/>
        <pt x="1360" y="1520" on="1"/>
        <pt x="1360" y="80" on="1"/>
        <pt x="1360" y="47" on="0"/>
        <pt x="1313" y="0" on="0"/>
        <pt x="1280" y="0" on="1"/>
        <pt x="1247" y="0" on="0"/>
        <pt x="1200" y="47" on="0"/>
        <pt x="1200" y="80" on="1"/>
      </contour>
      <contour>
        <pt x="406" y="1960" on="1"/>
        <pt x="406" y="1993" on="0"/>
        <pt x="453" y="2040" on="0"/>
        <pt x="486" y="2040" on="1"/>
        <pt x="519" y="2040" on="0"/>
        <pt x="566" y="1993" on="0"/>
        <pt x="566" y="1960" on="1"/>
        <pt x="566" y="1927" on="0"/>
        <pt x="660" y="1880" on="0"/>
        <pt x="726" y="1880" on="1"/>
        <pt x="792" y="1880" on="0"/>
        <pt x="887" y="1927" on="0"/>
        <pt x="887" y="1960" on="1"/>
        <pt x="887" y="1993" on="0"/>
        <pt x="934" y="2040" on="0"/>
        <pt x="967" y="2040" on="1"/>
        <pt x="1000" y="2040" on="0"/>
        <pt x="1047" y="1993" on="0"/>
        <pt x="1047" y="1960" on="1"/>
        <pt x="1042" y="1855" on="0"/>
        <pt x="953" y="1791" on="1"/>
        <pt x="859" y="1720" on="0"/>
        <pt x="726" y="1720" on="1"/>
        <pt x="593" y="1720" on="0"/>
        <pt x="406" y="1861" on="0"/>
      </contour>
    </TTGlyph>
    <TTGlyph name="afii10028" xMin="80" yMin="0" xMax="1120" yMax="1600">
      <component glyphName="K" x="0" y="0" flags="0x200"/>
    </TTGlyph>
    <TTGlyph name="afii10029" xMin="80" yMin="0" xMax="1360" yMax="1600">
      <component glyphName="Lambda" x="0" y="0" flags="0x200"/>
    </TTGlyph>
    <TTGlyph name="afii10030" xMin="80" yMin="0" xMax="1840" yMax="1600">
      <component glyphName="W" x="0" y="1600" scalex="1.0" scaley="-0.999938964844" flags="0x0"/>
    </TTGlyph>
    <TTGlyph name="afii10031" xMin="80" yMin="0" xMax="1200" yMax="1600">
      <component glyphName="H" x="0" y="0" flags="0x200"/>
    </TTGlyph>
    <TTGlyph name="afii10032" xMin="80" yMin="0" xMax="1680" yMax="1600">
      <component glyphName="O" x="0" y="0" flags="0x200"/>
    </TTGlyph>
    <TTGlyph name="afii10033" xMin="80" yMin="0" xMax="1200" yMax="1600">
      <contour>
        <pt x="1120" y="1600" on="1"/>
        <pt x="1153" y="1600" on="0"/>
        <pt x="1200" y="1553" on="0"/>
        <pt x="1200" y="1520" on="1"/>
        <pt x="1200" y="80" on="1"/>
        <pt x="1200" y="47" on="0"/>
        <pt x="1153" y="0" on="0"/>
        <pt x="1120" y="0" on="1"/>
        <pt x="1087" y="0" on="0"/>
        <pt x="1040" y="47" on="0"/>
        <pt x="1040" y="80" on="1"/>
        <pt x="1040" y="1440" on="1"/>
        <pt x="240" y="1440" on="1"/>
        <pt x="240" y="80" on="1"/>
        <pt x="240" y="47" on="0"/>
        <pt x="193" y="0" on="0"/>
        <pt x="160" y="0" on="1"/>
        <pt x="127" y="0" on="0"/>
        <pt x="80" y="47" on="0"/>
        <pt x="80" y="80" on="1"/>
        <pt x="80" y="1520" on="1"/>
        <pt x="80" y="1553" on="0"/>
        <pt x="127" y="1600" on="0"/>
        <pt x="160" y="1600" on="1"/>
      </contour>
    </TTGlyph>
    <TTGlyph name="afii10034" xMin="80" yMin="0" xMax="1000" yMax="1600">
      <component glyphName="P" x="0" y="0" flags="0x200"/>
    </TTGlyph>
    <TTGlyph name="afii10035" xMin="80" yMin="0" xMax="1412" yMax="1600">
      <component glyphName="C" x="0" y="0" flags="0x200"/>
    </TTGlyph>
    <TTGlyph name="afii10036" xMin="80" yMin="0" xMax="1280" yMax="1600">
      <component glyphName="T" x="0" y="0" flags="0x200"/>
    </TTGlyph>
    <TTGlyph name="afii10037" xMin="80" yMin="0" xMax="1360" yMax="1600">
      <contour>
        <pt x="720" y="650" on="1"/>
        <pt x="1212" y="1562" on="1"/>
        <pt x="1232" y="1600" on="0"/>
        <pt x="1280" y="1600" on="1"/>
        <pt x="1313" y="1600" on="0"/>
        <pt x="1360" y="1553" on="0"/>
        <pt x="1360" y="1520" on="1"/>
        <pt x="1360" y="1497" on="0"/>
        <pt x="1349" y="1479" on="1"/>
        <pt x="642" y="166" on="1"/>
        <pt x="620" y="127" on="0"/>
        <pt x="587" y="94" on="1"/>
        <pt x="493" y="0" on="0"/>
        <pt x="360" y="0" on="1"/>
        <pt x="254" y="0" on="0"/>
        <pt x="175" y="58" on="1"/>
        <pt x="137" y="88" on="0"/>
        <pt x="137" y="126" on="1"/>
        <pt x="137" y="159" on="0"/>
        <pt x="184" y="206" on="0"/>
        <pt x="217" y="206" on="1"/>
        <pt x="243" y="206" on="0"/>
        <pt x="263" y="191" on="1"/>
        <pt x="306" y="160" on="0"/>
        <pt x="360" y="160" on="1"/>
        <pt x="426" y="160" on="0"/>
        <pt x="473" y="207" on="1"/>
        <pt x="492" y="226" on="0"/>
        <pt x="503" y="248" on="1"/>
        <pt x="629" y="481" on="1"/>
        <pt x="91" y="1479" on="1"/>
        <pt x="80" y="1497" on="0"/>
        <pt x="80" y="1520" on="1"/>
        <pt x="80" y="1553" on="0"/>
        <pt x="127" y="1600" on="0"/>
        <pt x="160" y="1600" on="1"/>
        <pt x="206" y="1600" on="0"/>
        <pt x="228" y="1562" on="1"/>
      </contour>
    </TTGlyph>
    <TTGlyph name="afii10038" xMin="80" yMin="0" xMax="1680" yMax="1600">
      <component glyphName="Phi" x="0" y="0" flags="0x200"/>
    </TTGlyph>
    <TTGlyph name="afii10039" xMin="80" yMin="0" xMax="1360" yMax="1600">
      <component glyphName="X" x="0" y="0" flags="0x200"/>
    </TTGlyph>
    <TTGlyph name="afii10040" xMin="80" yMin="-320" xMax="1360" yMax="1600">
      <contour>
        <pt x="160" y="0" on="1"/>
        <pt x="127" y="0" on="0"/>
        <pt x="80" y="47" on="0"/>
        <pt x="80" y="80" on="1"/>
        <pt x="80" y="1520" on="1"/>
        <pt x="80" y="1553" on="0"/>
        <pt x="127" y="1600" on="0"/>
        <pt x="160" y="1600" on="1"/>
        <pt x="193" y="1600" on="0"/>
        <pt x="240" y="1553" on="0"/>
        <pt x="240" y="1520" on="1"/>
        <pt x="240" y="160" on="1"/>
        <pt x="1040" y="160" on="1"/>
        <pt x="1040" y="1520" on="1"/>
        <pt x="1040" y="1553" on="0"/>
        <pt x="1087" y="1600" on="0"/>
        <pt x="1120" y="1600" on="1"/>
        <pt x="1153" y="1600" on="0"/>
        <pt x="1200" y="1553" on="0"/>
        <pt x="1200" y="1520" on="1"/>
        <pt x="1200" y="160" on="1"/>
        <pt x="1280" y="160" on="1"/>
        <pt x="1313" y="160" on="0"/>
        <pt x="1360" y="113" on="0"/>
        <pt x="1360" y="80" on="1"/>
        <pt x="1360" y="-109" on="0"/>
        <pt x="1284" y="-266" on="1"/>
        <pt x="1278" y="-283" on="0"/>
        <pt x="1265" y="-296" on="1"/>
        <pt x="1241" y="-320" on="0"/>
        <pt x="1208" y="-320" on="1"/>
        <pt x="1175" y="-320" on="0"/>
        <pt x="1128" y="-273" on="0"/>
        <pt x="1128" y="-240" on="1"/>
        <pt x="1128" y="-219" on="0"/>
        <pt x="1137" y="-202" on="1"/>
        <pt x="1176" y="-130" on="0"/>
        <pt x="1191" y="0" on="1"/>
      </contour>
    </TTGlyph>
    <TTGlyph name="afii10041" xMin="80" yMin="0" xMax="1200" yMax="1600">
      <contour>
        <pt x="1200" y="80" on="1"/>
        <pt x="1200" y="47" on="0"/>
        <pt x="1153" y="0" on="0"/>
        <pt x="1120" y="0" on="1"/>
        <pt x="1087" y="0" on="0"/>
        <pt x="1040" y="47" on="0"/>
        <pt x="1040" y="80" on="1"/>
        <pt x="1040" y="728" on="1"/>
        <pt x="1038" y="726" on="0"/>
        <pt x="1036" y="724" on="1"/>
        <pt x="872" y="560" on="0"/>
        <pt x="640" y="560" on="1"/>
        <pt x="408" y="560" on="0"/>
        <pt x="80" y="888" on="0"/>
        <pt x="80" y="1120" on="1"/>
        <pt x="80" y="1520" on="1"/>
        <pt x="80" y="1553" on="0"/>
        <pt x="127" y="1600" on="0"/>
        <pt x="160" y="1600" on="1"/>
        <pt x="193" y="1600" on="0"/>
        <pt x="240" y="1553" on="0"/>
        <pt x="240" y="1520" on="1"/>
        <pt x="240" y="1120" on="1"/>
        <pt x="240" y="954" on="0"/>
        <pt x="474" y="720" on="0"/>
        <pt x="640" y="720" on="1"/>
        <pt x="806" y="720" on="0"/>
        <pt x="923" y="837" on="1"/>
        <pt x="1040" y="954" on="0"/>
        <pt x="1040" y="1120" on="1"/>
        <pt x="1040" y="1520" on="1"/>
        <pt x="1040" y="1553" on="0"/>
        <pt x="1087" y="1600" on="0"/>
        <pt x="1120" y="1600" on="1"/>
        <pt x="1153" y="1600" on="0"/>
        <pt x="1200" y="1553" on="0"/>
        <pt x="1200" y="1520" on="1"/>
      </contour>
    </TTGlyph>
    <TTGlyph name="afii10042" xMin="80" yMin="0" xMax="1520" yMax="1600">
      <contour>
        <pt x="80" y="1520" on="1"/>
        <pt x="80" y="1553" on="0"/>
        <pt x="127" y="1600" on="0"/>
        <pt x="160" y="1600" on="1"/>
        <pt x="193" y="1600" on="0"/>
        <pt x="240" y="1553" on="0"/>
        <pt x="240" y="1520" on="1"/>
        <pt x="240" y="160" on="1"/>
        <pt x="720" y="160" on="1"/>
        <pt x="720" y="1520" on="1"/>
        <pt x="720" y="1553" on="0"/>
        <pt x="767" y="1600" on="0"/>
        <pt x="800" y="1600" on="1"/>
        <pt x="833" y="1600" on="0"/>
        <pt x="880" y="1553" on="0"/>
        <pt x="880" y="1520" on="1"/>
        <pt x="880" y="160" on="1"/>
        <pt x="1360" y="160" on="1"/>
        <pt x="1360" y="1520" on="1"/>
        <pt x="1360" y="1553" on="0"/>
        <pt x="1407" y="1600" on="0"/>
        <pt x="1440" y="1600" on="1"/>
        <pt x="1473" y="1600" on="0"/>
        <pt x="1520" y="1553" on="0"/>
        <pt x="1520" y="1520" on="1"/>
        <pt x="1520" y="80" on="1"/>
        <pt x="1520" y="47" on="0"/>
        <pt x="1473" y="0" on="0"/>
        <pt x="1440" y="0" on="1"/>
        <pt x="160" y="0" on="1"/>
        <pt x="127" y="0" on="0"/>
        <pt x="80" y="47" on="0"/>
        <pt x="80" y="80" on="1"/>
      </contour>
    </TTGlyph>
    <TTGlyph name="afii10043" xMin="80" yMin="-320" xMax="1680" yMax="1600">
      <contour>
        <pt x="160" y="0" on="1"/>
        <pt x="127" y="0" on="0"/>
        <pt x="80" y="47" on="0"/>
        <pt x="80" y="80" on="1"/>
        <pt x="80" y="1520" on="1"/>
        <pt x="80" y="1553" on="0"/>
        <pt x="127" y="1600" on="0"/>
        <pt x="160" y="1600" on="1"/>
        <pt x="193" y="1600" on="0"/>
        <pt x="240" y="1553" on="0"/>
        <pt x="240" y="1520" on="1"/>
        <pt x="240" y="160" on="1"/>
        <pt x="720" y="160" on="1"/>
        <pt x="720" y="1520" on="1"/>
        <pt x="720" y="1553" on="0"/>
        <pt x="767" y="1600" on="0"/>
        <pt x="800" y="1600" on="1"/>
        <pt x="833" y="1600" on="0"/>
        <pt x="880" y="1553" on="0"/>
        <pt x="880" y="1520" on="1"/>
        <pt x="880" y="160" on="1"/>
        <pt x="1360" y="160" on="1"/>
        <pt x="1360" y="1520" on="1"/>
        <pt x="1360" y="1553" on="0"/>
        <pt x="1407" y="1600" on="0"/>
        <pt x="1440" y="1600" on="1"/>
        <pt x="1473" y="1600" on="0"/>
        <pt x="1520" y="1553" on="0"/>
        <pt x="1520" y="1520" on="1"/>
        <pt x="1520" y="160" on="1"/>
        <pt x="1600" y="160" on="1"/>
        <pt x="1633" y="160" on="0"/>
        <pt x="1680" y="113" on="0"/>
        <pt x="1680" y="80" on="1"/>
        <pt x="1680" y="-109" on="0"/>
        <pt x="1604" y="-266" on="1"/>
        <pt x="1598" y="-283" on="0"/>
        <pt x="1585" y="-296" on="1"/>
        <pt x="1561" y="-320" on="0"/>
        <pt x="1528" y="-320" on="1"/>
        <pt x="1495" y="-320" on="0"/>
        <pt x="1448" y="-273" on="0"/>
        <pt x="1448" y="-240" on="1"/>
        <pt x="1448" y="-219" on="0"/>
        <pt x="1457" y="-202" on="1"/>
        <pt x="1496" y="-130" on="0"/>
        <pt x="1511" y="0" on="1"/>
      </contour>
    </TTGlyph>
    <TTGlyph name="afii10044" xMin="0" yMin="0" xMax="1280" yMax="1600">
      <contour>
        <pt x="840" y="160" on="1"/>
        <pt x="956" y="160" on="0"/>
        <pt x="1120" y="324" on="0"/>
        <pt x="1120" y="440" on="1"/>
        <pt x="1120" y="556" on="0"/>
        <pt x="956" y="720" on="0"/>
        <pt x="840" y="720" on="1"/>
        <pt x="480" y="720" on="1"/>
        <pt x="480" y="160" on="1"/>
      </contour>
      <contour>
        <pt x="400" y="1600" on="1"/>
        <pt x="433" y="1600" on="0"/>
        <pt x="480" y="1553" on="0"/>
        <pt x="480" y="1520" on="1"/>
        <pt x="480" y="880" on="1"/>
        <pt x="840" y="880" on="1"/>
        <pt x="1022" y="880" on="0"/>
        <pt x="1280" y="622" on="0"/>
        <pt x="1280" y="440" on="1"/>
        <pt x="1280" y="258" on="0"/>
        <pt x="1022" y="0" on="0"/>
        <pt x="840" y="0" on="1"/>
        <pt x="400" y="0" on="1"/>
        <pt x="367" y="0" on="0"/>
        <pt x="320" y="47" on="0"/>
        <pt x="320" y="80" on="1"/>
        <pt x="320" y="1440" on="1"/>
        <pt x="80" y="1440" on="1"/>
        <pt x="47" y="1440" on="0"/>
        <pt x="0" y="1487" on="0"/>
        <pt x="0" y="1520" on="1"/>
        <pt x="0" y="1553" on="0"/>
        <pt x="47" y="1600" on="0"/>
        <pt x="80" y="1600" on="1"/>
      </contour>
    </TTGlyph>
    <TTGlyph name="afii10045" xMin="80" yMin="0" xMax="1360" yMax="1600">
      <contour>
        <pt x="600" y="160" on="1"/>
        <pt x="716" y="160" on="0"/>
        <pt x="880" y="324" on="0"/>
        <pt x="880" y="440" on="1"/>
        <pt x="880" y="556" on="0"/>
        <pt x="716" y="720" on="0"/>
        <pt x="600" y="720" on="1"/>
        <pt x="240" y="720" on="1"/>
        <pt x="240" y="160" on="1"/>
      </contour>
      <contour>
        <pt x="240" y="1520" on="1"/>
        <pt x="240" y="880" on="1"/>
        <pt x="600" y="880" on="1"/>
        <pt x="782" y="880" on="0"/>
        <pt x="1040" y="622" on="0"/>
        <pt x="1040" y="440" on="1"/>
        <pt x="1040" y="258" on="0"/>
        <pt x="782" y="0" on="0"/>
        <pt x="600" y="0" on="1"/>
        <pt x="160" y="0" on="1"/>
        <pt x="127" y="0" on="0"/>
        <pt x="80" y="47" on="0"/>
        <pt x="80" y="80" on="1"/>
        <pt x="80" y="1520" on="1"/>
        <pt x="80" y="1553" on="0"/>
        <pt x="127" y="1600" on="0"/>
        <pt x="160" y="1600" on="1"/>
        <pt x="193" y="1600" on="0"/>
        <pt x="240" y="1553" on="0"/>
      </contour>
      <contour>
        <pt x="1200" y="1520" on="1"/>
        <pt x="1200" y="1553" on="0"/>
        <pt x="1247" y="1600" on="0"/>
        <pt x="1280" y="1600" on="1"/>
        <pt x="1313" y="1600" on="0"/>
        <pt x="1360" y="1553" on="0"/>
        <pt x="1360" y="1520" on="1"/>
        <pt x="1360" y="80" on="1"/>
        <pt x="1360" y="47" on="0"/>
        <pt x="1313" y="0" on="0"/>
        <pt x="1280" y="0" on="1"/>
        <pt x="1247" y="0" on="0"/>
        <pt x="1200" y="47" on="0"/>
        <pt x="1200" y="80" on="1"/>
      </contour>
    </TTGlyph>
    <TTGlyph name="afii10046" xMin="80" yMin="0" xMax="1040" yMax="1600">
      <contour>
        <pt x="600" y="160" on="1"/>
        <pt x="716" y="160" on="0"/>
        <pt x="880" y="324" on="0"/>
        <pt x="880" y="440" on="1"/>
        <pt x="880" y="556" on="0"/>
        <pt x="716" y="720" on="0"/>
        <pt x="600" y="720" on="1"/>
        <pt x="240" y="720" on="1"/>
        <pt x="240" y="160" on="1"/>
      </contour>
      <contour>
        <pt x="240" y="1520" on="1"/>
        <pt x="240" y="880" on="1"/>
        <pt x="600" y="880" on="1"/>
        <pt x="782" y="880" on="0"/>
        <pt x="1040" y="622" on="0"/>
        <pt x="1040" y="440" on="1"/>
        <pt x="1040" y="258" on="0"/>
        <pt x="782" y="0" on="0"/>
        <pt x="600" y="0" on="1"/>
        <pt x="160" y="0" on="1"/>
        <pt x="127" y="0" on="0"/>
        <pt x="80" y="47" on="0"/>
        <pt x="80" y="80" on="1"/>
        <pt x="80" y="1520" on="1"/>
        <pt x="80" y="1553" on="0"/>
        <pt x="127" y="1600" on="0"/>
        <pt x="160" y="1600" on="1"/>
        <pt x="193" y="1600" on="0"/>
        <pt x="240" y="1553" on="0"/>
      </contour>
    </TTGlyph>
    <TTGlyph name="afii10047" xMin="80" yMin="0" xMax="1412" yMax="1600">
      <component glyphName="afii10053" x="1492" y="0" scalex="-0.999938964844" scaley="1.0" flags="0x0"/>
    </TTGlyph>
    <TTGlyph name="afii10048" xMin="80" yMin="0" xMax="2000" yMax="1600">
      <contour>
        <pt x="1200" y="1440" on="1"/>
        <pt x="935" y="1440" on="0"/>
        <pt x="560" y="1065" on="0"/>
        <pt x="560" y="800" on="1"/>
        <pt x="560" y="535" on="0"/>
        <pt x="935" y="160" on="0"/>
        <pt x="1200" y="160" on="1"/>
        <pt x="1465" y="160" on="0"/>
        <pt x="1840" y="535" on="0"/>
        <pt x="1840" y="800" on="1"/>
        <pt x="1840" y="1065" on="0"/>
        <pt x="1465" y="1440" on="0"/>
      </contour>
      <contour>
        <pt x="404" y="880" on="1"/>
        <pt x="429" y="1160" on="0"/>
        <pt x="635" y="1366" on="1"/>
        <pt x="869" y="1600" on="0"/>
        <pt x="1200" y="1600" on="1"/>
        <pt x="1531" y="1600" on="0"/>
        <pt x="2000" y="1131" on="0"/>
        <pt x="2000" y="800" on="1"/>
        <pt x="2000" y="469" on="0"/>
        <pt x="1531" y="0" on="0"/>
        <pt x="1200" y="0" on="1"/>
        <pt x="869" y="0" on="0"/>
        <pt x="635" y="235" on="1"/>
        <pt x="429" y="440" on="0"/>
        <pt x="404" y="720" on="1"/>
        <pt x="240" y="720" on="1"/>
        <pt x="240" y="80" on="1"/>
        <pt x="240" y="47" on="0"/>
        <pt x="193" y="0" on="0"/>
        <pt x="160" y="0" on="1"/>
        <pt x="127" y="0" on="0"/>
        <pt x="80" y="47" on="0"/>
        <pt x="80" y="80" on="1"/>
        <pt x="80" y="1520" on="1"/>
        <pt x="80" y="1553" on="0"/>
        <pt x="127" y="1600" on="0"/>
        <pt x="160" y="1600" on="1"/>
        <pt x="193" y="1600" on="0"/>
        <pt x="240" y="1553" on="0"/>
        <pt x="240" y="1520" on="1"/>
        <pt x="240" y="880" on="1"/>
      </contour>
    </TTGlyph>
    <TTGlyph name="afii10049" xMin="80" yMin="0" xMax="1120" yMax="1600">
      <component glyphName="R" x="1200" y="0" scalex="-0.999938964844" scaley="1.0" flags="0x0"/>
    </TTGlyph>
    <TTGlyph name="afii10050" xMin="80" yMin="0" xMax="1120" yMax="1920">
      <contour>
        <pt x="956" y="1600" on="1"/>
        <pt x="943" y="1708" on="0"/>
        <pt x="897" y="1802" on="1"/>
        <pt x="888" y="1819" on="0"/>
        <pt x="888" y="1840" on="1"/>
        <pt x="888" y="1873" on="0"/>
        <pt x="935" y="1920" on="0"/>
        <pt x="968" y="1920" on="1"/>
        <pt x="1001" y="1920" on="0"/>
        <pt x="1025" y="1896" on="1"/>
        <pt x="1038" y="1883" on="0"/>
        <pt x="1044" y="1866" on="1"/>
        <pt x="1120" y="1709" on="0"/>
        <pt x="1120" y="1520" on="1"/>
        <pt x="1120" y="1487" on="0"/>
        <pt x="1073" y="1440" on="0"/>
        <pt x="1040" y="1440" on="1"/>
        <pt x="240" y="1440" on="1"/>
        <pt x="240" y="80" on="1"/>
        <pt x="240" y="47" on="0"/>
        <pt x="217" y="24" on="1"/>
        <pt x="193" y="0" on="0"/>
        <pt x="160" y="0" on="1"/>
        <pt x="127" y="0" on="0"/>
        <pt x="80" y="47" on="0"/>
        <pt x="80" y="80" on="1"/>
        <pt x="80" y="1520" on="1"/>
        <pt x="81" y="1553" on="0"/>
        <pt x="128" y="1600" on="0"/>
        <pt x="161" y="1600" on="1"/>
      </contour>
    </TTGlyph>
    <TTGlyph name="afii10051" xMin="80" yMin="0" xMax="1560" yMax="1600">
      <contour>
        <pt x="600" y="1440" on="1"/>
        <pt x="160" y="1440" on="1"/>
        <pt x="127" y="1440" on="0"/>
        <pt x="80" y="1487" on="0"/>
        <pt x="80" y="1520" on="1"/>
        <pt x="80" y="1553" on="0"/>
        <pt x="127" y="1600" on="0"/>
        <pt x="160" y="1600" on="1"/>
        <pt x="1200" y="1600" on="1"/>
        <pt x="1233" y="1600" on="0"/>
        <pt x="1280" y="1553" on="0"/>
        <pt x="1280" y="1520" on="1"/>
        <pt x="1280" y="1487" on="0"/>
        <pt x="1233" y="1440" on="0"/>
        <pt x="1200" y="1440" on="1"/>
        <pt x="760" y="1440" on="1"/>
        <pt x="760" y="838" on="1"/>
        <pt x="895" y="960" on="0"/>
        <pt x="1080" y="960" on="1"/>
        <pt x="1279" y="960" on="0"/>
        <pt x="1560" y="679" on="0"/>
        <pt x="1560" y="480" on="1"/>
        <pt x="1560" y="281" on="0"/>
        <pt x="1279" y="0" on="0"/>
        <pt x="1080" y="0" on="1"/>
        <pt x="1047" y="0" on="0"/>
        <pt x="1000" y="47" on="0"/>
        <pt x="1000" y="80" on="1"/>
        <pt x="1000" y="113" on="0"/>
        <pt x="1047" y="160" on="0"/>
        <pt x="1080" y="160" on="1"/>
        <pt x="1213" y="160" on="0"/>
        <pt x="1400" y="347" on="0"/>
        <pt x="1400" y="480" on="1"/>
        <pt x="1400" y="613" on="0"/>
        <pt x="1213" y="800" on="0"/>
        <pt x="1080" y="800" on="1"/>
        <pt x="947" y="800" on="0"/>
        <pt x="854" y="707" on="1"/>
        <pt x="760" y="613" on="0"/>
        <pt x="760" y="481" on="1"/>
        <pt x="760" y="80" on="1"/>
        <pt x="760" y="47" on="0"/>
        <pt x="713" y="0" on="0"/>
        <pt x="680" y="0" on="1"/>
        <pt x="647" y="0" on="0"/>
        <pt x="600" y="47" on="0"/>
        <pt x="600" y="80" on="1"/>
      </contour>
    </TTGlyph>
    <TTGlyph name="afii10052" xMin="80" yMin="0" xMax="1120" yMax="2080">
      <component glyphName="afii10020" x="0" y="0" flags="0x200"/>
      <component glyphName="acute" x="427" y="480" flags="0x0"/>
    </TTGlyph>
    <TTGlyph name="afii10053" xMin="80" yMin="0" xMax="1412" yMax="1600">
      <contour>
        <pt x="244" y="720" on="1"/>
        <pt x="269" y="506" on="0"/>
        <pt x="428" y="348" on="1"/>
        <pt x="615" y="160" on="0"/>
        <pt x="880" y="160" on="1"/>
        <pt x="1109" y="160" on="0"/>
        <pt x="1280" y="300" on="1"/>
        <pt x="1300" y="314" on="0"/>
        <pt x="1326" y="314" on="1"/>
        <pt x="1359" y="314" on="0"/>
        <pt x="1406" y="267" on="0"/>
        <pt x="1406" y="234" on="1"/>
        <pt x="1406" y="201" on="0"/>
        <pt x="1383" y="178" on="1"/>
        <pt x="1160" y="0" on="0"/>
        <pt x="880" y="0" on="1"/>
        <pt x="549" y="0" on="0"/>
        <pt x="80" y="469" on="0"/>
        <pt x="80" y="800" on="1"/>
        <pt x="80" y="1131" on="0"/>
        <pt x="549" y="1600" on="0"/>
        <pt x="880" y="1600" on="1"/>
        <pt x="1166" y="1600" on="0"/>
        <pt x="1389" y="1417" on="1"/>
        <pt x="1412" y="1393" on="0"/>
        <pt x="1412" y="1360" on="1"/>
        <pt x="1412" y="1327" on="0"/>
        <pt x="1365" y="1280" on="0"/>
        <pt x="1332" y="1280" on="1"/>
        <pt x="1299" y="1280" on="0"/>
        <pt x="1275" y="1304" on="1"/>
        <pt x="1106" y="1440" on="0"/>
        <pt x="880" y="1440" on="1"/>
        <pt x="615" y="1440" on="0"/>
        <pt x="428" y="1253" on="1"/>
        <pt x="269" y="1094" on="0"/>
        <pt x="244" y="880" on="1"/>
        <pt x="960" y="880" on="1"/>
        <pt x="993" y="880" on="0"/>
        <pt x="1040" y="833" on="0"/>
        <pt x="1040" y="800" on="1"/>
        <pt x="1040" y="767" on="0"/>
        <pt x="993" y="720" on="0"/>
        <pt x="960" y="720" on="1"/>
      </contour>
    </TTGlyph>
    <TTGlyph name="afii10054" xMin="80" yMin="0" xMax="980" yMax="1600">
      <component glyphName="S" x="0" y="0" flags="0x200"/>
    </TTGlyph>
    <TTGlyph name="afii10055" xMin="160" yMin="0" xMax="320" yMax="1600">
      <component glyphName="I" x="0" y="0" flags="0x200"/>
    </TTGlyph>
    <TTGlyph name="afii10056" xMin="-99" yMin="0" xMax="581" yMax="1940">
      <component glyphName="I" x="0" y="0" flags="0x200"/>
      <component glyphName="dieresis" x="-238" y="480" flags="0x0"/>
    </TTGlyph>
    <TTGlyph name="afii10057" xMin="80" yMin="0" xMax="1040" yMax="1600">
      <component glyphName="J" x="0" y="0" flags="0x200"/>
    </TTGlyph>
    <TTGlyph name="afii10058" xMin="80" yMin="0" xMax="2000" yMax="1600">
      <contour>
        <pt x="1117" y="720" on="1"/>
        <pt x="1335" y="160" on="1"/>
        <pt x="1560" y="160" on="1"/>
        <pt x="1676" y="160" on="0"/>
        <pt x="1840" y="324" on="0"/>
        <pt x="1840" y="440" on="1"/>
        <pt x="1840" y="556" on="0"/>
        <pt x="1676" y="720" on="0"/>
        <pt x="1560" y="720" on="1"/>
      </contour>
      <contour>
        <pt x="1280" y="0" on="1"/>
        <pt x="1247" y="0" on="0"/>
        <pt x="1223" y="23" on="1"/>
        <pt x="1212" y="35" on="0"/>
        <pt x="1206" y="49" on="1"/>
        <pt x="720" y="1299" on="1"/>
        <pt x="234" y="49" on="1"/>
        <pt x="228" y="35" on="0"/>
        <pt x="217" y="24" on="1"/>
        <pt x="193" y="0" on="0"/>
        <pt x="160" y="0" on="1"/>
        <pt x="127" y="0" on="0"/>
        <pt x="80" y="47" on="0"/>
        <pt x="80" y="80" on="1"/>
        <pt x="80" y="99" on="0"/>
        <pt x="87" y="114" on="1"/>
        <pt x="643" y="1544" on="1"/>
        <pt x="649" y="1562" on="0"/>
        <pt x="664" y="1577" on="1"/>
        <pt x="687" y="1600" on="0"/>
        <pt x="720" y="1600" on="1"/>
        <pt x="753" y="1600" on="0"/>
        <pt x="777" y="1577" on="1"/>
        <pt x="791" y="1562" on="0"/>
        <pt x="797" y="1544" on="1"/>
        <pt x="1055" y="880" on="1"/>
        <pt x="1560" y="880" on="1"/>
        <pt x="1742" y="880" on="0"/>
        <pt x="2000" y="622" on="0"/>
        <pt x="2000" y="440" on="1"/>
        <pt x="2000" y="258" on="0"/>
        <pt x="1742" y="0" on="0"/>
        <pt x="1560" y="0" on="1"/>
      </contour>
    </TTGlyph>
    <TTGlyph name="afii10059" xMin="80" yMin="0" xMax="1840" yMax="1600">
      <contour>
        <pt x="1400" y="160" on="1"/>
        <pt x="1516" y="160" on="0"/>
        <pt x="1680" y="324" on="0"/>
        <pt x="1680" y="440" on="1"/>
        <pt x="1680" y="556" on="0"/>
        <pt x="1516" y="720" on="0"/>
        <pt x="1400" y="720" on="1"/>
        <pt x="1040" y="720" on="1"/>
        <pt x="1040" y="160" on="1"/>
      </contour>
      <contour>
        <pt x="1400" y="880" on="1"/>
        <pt x="1582" y="880" on="0"/>
        <pt x="1840" y="622" on="0"/>
        <pt x="1840" y="440" on="1"/>
        <pt x="1840" y="258" on="0"/>
        <pt x="1582" y="0" on="0"/>
        <pt x="1400" y="0" on="1"/>
        <pt x="960" y="0" on="1"/>
        <pt x="927" y="0" on="0"/>
        <pt x="880" y="47" on="0"/>
        <pt x="880" y="80" on="1"/>
        <pt x="880" y="720" on="1"/>
        <pt x="240" y="720" on="1"/>
        <pt x="240" y="80" on="1"/>
        <pt x="240" y="47" on="0"/>
        <pt x="193" y="0" on="0"/>
        <pt x="160" y="0" on="1"/>
        <pt x="127" y="0" on="0"/>
        <pt x="80" y="47" on="0"/>
        <pt x="80" y="80" on="1"/>
        <pt x="80" y="1520" on="1"/>
        <pt x="80" y="1553" on="0"/>
        <pt x="127" y="1600" on="0"/>
        <pt x="160" y="1600" on="1"/>
        <pt x="193" y="1600" on="0"/>
        <pt x="240" y="1553" on="0"/>
        <pt x="240" y="1520" on="1"/>
        <pt x="240" y="880" on="1"/>
        <pt x="880" y="880" on="1"/>
        <pt x="880" y="1520" on="1"/>
        <pt x="880" y="1553" on="0"/>
        <pt x="927" y="1600" on="0"/>
        <pt x="960" y="1600" on="1"/>
        <pt x="993" y="1600" on="0"/>
        <pt x="1040" y="1553" on="0"/>
        <pt x="1040" y="1520" on="1"/>
        <pt x="1040" y="880" on="1"/>
      </contour>
    </TTGlyph>
    <TTGlyph name="afii10060" xMin="80" yMin="0" xMax="1560" yMax="1600">
      <contour>
        <pt x="1400" y="480" on="1"/>
        <pt x="1400" y="613" on="0"/>
        <pt x="1213" y="800" on="0"/>
        <pt x="1080" y="800" on="1"/>
        <pt x="947" y="800" on="0"/>
        <pt x="854" y="707" on="1"/>
        <pt x="760" y="613" on="0"/>
        <pt x="760" y="481" on="1"/>
        <pt x="760" y="80" on="1"/>
        <pt x="760" y="47" on="0"/>
        <pt x="713" y="0" on="0"/>
        <pt x="680" y="0" on="1"/>
        <pt x="647" y="0" on="0"/>
        <pt x="600" y="47" on="0"/>
        <pt x="600" y="80" on="1"/>
        <pt x="600" y="1440" on="1"/>
        <pt x="160" y="1440" on="1"/>
        <pt x="127" y="1440" on="0"/>
        <pt x="80" y="1487" on="0"/>
        <pt x="80" y="1520" on="1"/>
        <pt x="80" y="1553" on="0"/>
        <pt x="127" y="1600" on="0"/>
        <pt x="160" y="1600" on="1"/>
        <pt x="1200" y="1600" on="1"/>
        <pt x="1233" y="1600" on="0"/>
        <pt x="1280" y="1553" on="0"/>
        <pt x="1280" y="1520" on="1"/>
        <pt x="1280" y="1487" on="0"/>
        <pt x="1233" y="1440" on="0"/>
        <pt x="1200" y="1440" on="1"/>
        <pt x="760" y="1440" on="1"/>
        <pt x="760" y="838" on="1"/>
        <pt x="895" y="960" on="0"/>
        <pt x="1080" y="960" on="1"/>
        <pt x="1279" y="960" on="0"/>
        <pt x="1560" y="679" on="0"/>
        <pt x="1560" y="480" on="1"/>
        <pt x="1560" y="80" on="1"/>
        <pt x="1560" y="47" on="0"/>
        <pt x="1513" y="0" on="0"/>
        <pt x="1480" y="0" on="1"/>
        <pt x="1447" y="0" on="0"/>
        <pt x="1400" y="47" on="0"/>
        <pt x="1400" y="80" on="1"/>
      </contour>
    </TTGlyph>
    <TTGlyph name="afii10061" xMin="80" yMin="0" xMax="1120" yMax="2080">
      <contour>
        <pt x="80" y="1520" on="1"/>
        <pt x="80" y="1553" on="0"/>
        <pt x="127" y="1600" on="0"/>
        <pt x="160" y="1600" on="1"/>
        <pt x="193" y="1600" on="0"/>
        <pt x="240" y="1553" on="0"/>
        <pt x="240" y="1520" on="1"/>
        <pt x="240" y="834" on="1"/>
        <pt x="981" y="1575" on="1"/>
        <pt x="1007" y="1600" on="0"/>
        <pt x="1040" y="1600" on="1"/>
        <pt x="1073" y="1600" on="0"/>
        <pt x="1120" y="1553" on="0"/>
        <pt x="1120" y="1520" on="1"/>
        <pt x="1120" y="1487" on="0"/>
        <pt x="1097" y="1463" on="1"/>
        <pt x="535" y="901" on="1"/>
        <pt x="1105" y="128" on="1"/>
        <pt x="1120" y="107" on="0"/>
        <pt x="1120" y="83" on="1"/>
        <pt x="1120" y="41" on="0"/>
        <pt x="1088" y="16" on="1"/>
        <pt x="1066" y="0" on="0"/>
        <pt x="1042" y="0" on="1"/>
        <pt x="998" y="0" on="0"/>
        <pt x="974" y="34" on="1"/>
        <pt x="420" y="786" on="1"/>
        <pt x="240" y="606" on="1"/>
        <pt x="240" y="80" on="1"/>
        <pt x="240" y="47" on="0"/>
        <pt x="193" y="0" on="0"/>
        <pt x="160" y="0" on="1"/>
        <pt x="127" y="0" on="0"/>
        <pt x="80" y="47" on="0"/>
        <pt x="80" y="80" on="1"/>
      </contour>
      <contour>
        <pt x="784" y="1944" on="1"/>
        <pt x="541" y="1701" on="1"/>
        <pt x="518" y="1680" on="0"/>
        <pt x="486" y="1680" on="1"/>
        <pt x="453" y="1680" on="0"/>
        <pt x="406" y="1727" on="0"/>
        <pt x="406" y="1760" on="1"/>
        <pt x="406" y="1791" on="0"/>
        <pt x="426" y="1814" on="1"/>
        <pt x="669" y="2057" on="1"/>
        <pt x="693" y="2080" on="0"/>
        <pt x="726" y="2080" on="1"/>
        <pt x="759" y="2080" on="0"/>
        <pt x="806" y="2033" on="0"/>
        <pt x="806" y="2000" on="1"/>
        <pt x="806" y="1968" on="0"/>
      </contour>
    </TTGlyph>
    <TTGlyph name="afii10062" xMin="80" yMin="0" xMax="1360" yMax="2040">
      <component glyphName="afii10037" x="0" y="0" flags="0x200"/>
      <component glyphName="breve" x="326" y="480" flags="0x0"/>
    </TTGlyph>
    <TTGlyph name="afii10065" xMin="80" yMin="0" xMax="1200" yMax="1120">
      <component glyphName="a" x="0" y="0" flags="0x200"/>
    </TTGlyph>
    <TTGlyph name="afii10066" xMin="80" yMin="0" xMax="1200" yMax="1600">
      <contour>
        <pt x="1040" y="560" on="1"/>
        <pt x="1040" y="726" on="0"/>
        <pt x="806" y="960" on="0"/>
        <pt x="640" y="960" on="1"/>
        <pt x="474" y="960" on="0"/>
        <pt x="240" y="726" on="0"/>
        <pt x="240" y="560" on="1"/>
        <pt x="240" y="394" on="0"/>
        <pt x="474" y="160" on="0"/>
        <pt x="640" y="160" on="1"/>
        <pt x="806" y="160" on="0"/>
        <pt x="1040" y="394" on="0"/>
      </contour>
      <contour>
        <pt x="240" y="952" on="1"/>
        <pt x="242" y="954" on="0"/>
        <pt x="244" y="956" on="1"/>
        <pt x="408" y="1120" on="0"/>
        <pt x="640" y="1120" on="1"/>
        <pt x="872" y="1120" on="0"/>
        <pt x="1200" y="792" on="0"/>
        <pt x="1200" y="560" on="1"/>
        <pt x="1200" y="328" on="0"/>
        <pt x="872" y="0" on="0"/>
        <pt x="640" y="0" on="1"/>
        <pt x="408" y="0" on="0"/>
        <pt x="80" y="328" on="0"/>
        <pt x="80" y="560" on="1"/>
        <pt x="80" y="960" on="1"/>
        <pt x="80" y="1192" on="0"/>
        <pt x="408" y="1520" on="0"/>
        <pt x="640" y="1520" on="1"/>
        <pt x="686" y="1520" on="1"/>
        <pt x="860" y="1520" on="0"/>
        <pt x="1004" y="1592" on="1"/>
        <pt x="1020" y="1600" on="0"/>
        <pt x="1040" y="1600" on="1"/>
        <pt x="1073" y="1600" on="0"/>
        <pt x="1120" y="1553" on="0"/>
        <pt x="1120" y="1520" on="1"/>
        <pt x="1120" y="1487" on="0"/>
        <pt x="1097" y="1464" on="1"/>
        <pt x="1087" y="1454" on="0"/>
        <pt x="1076" y="1448" on="1"/>
        <pt x="900" y="1360" on="0"/>
        <pt x="686" y="1360" on="1"/>
        <pt x="640" y="1360" on="1"/>
        <pt x="474" y="1360" on="0"/>
        <pt x="240" y="1126" on="0"/>
        <pt x="240" y="960" on="1"/>
      </contour>
    </TTGlyph>
    <TTGlyph name="afii10067" xMin="80" yMin="0" xMax="960" yMax="1120">
      <contour>
        <pt x="560" y="640" on="1"/>
        <pt x="626" y="640" on="0"/>
        <pt x="720" y="734" on="0"/>
        <pt x="720" y="800" on="1"/>
        <pt x="720" y="866" on="0"/>
        <pt x="626" y="960" on="0"/>
        <pt x="560" y="960" on="1"/>
        <pt x="240" y="960" on="1"/>
        <pt x="240" y="640" on="1"/>
      </contour>
      <contour>
        <pt x="640" y="160" on="1"/>
        <pt x="706" y="160" on="0"/>
        <pt x="800" y="254" on="0"/>
        <pt x="800" y="320" on="1"/>
        <pt x="800" y="386" on="0"/>
        <pt x="706" y="480" on="0"/>
        <pt x="640" y="480" on="1"/>
        <pt x="240" y="480" on="1"/>
        <pt x="240" y="160" on="1"/>
      </contour>
      <contour>
        <pt x="160" y="1120" on="1"/>
        <pt x="560" y="1120" on="1"/>
        <pt x="693" y="1120" on="0"/>
        <pt x="880" y="933" on="0"/>
        <pt x="880" y="800" on="1"/>
        <pt x="880" y="682" on="0"/>
        <pt x="806" y="595" on="1"/>
        <pt x="838" y="575" on="0"/>
        <pt x="867" y="547" on="1"/>
        <pt x="960" y="453" on="0"/>
        <pt x="960" y="320" on="1"/>
        <pt x="960" y="187" on="0"/>
        <pt x="773" y="0" on="0"/>
        <pt x="640" y="0" on="1"/>
        <pt x="160" y="0" on="1"/>
        <pt x="127" y="0" on="0"/>
        <pt x="80" y="47" on="0"/>
        <pt x="80" y="80" on="1"/>
        <pt x="80" y="1040" on="1"/>
        <pt x="80" y="1073" on="0"/>
        <pt x="127" y="1120" on="0"/>
      </contour>
    </TTGlyph>
    <TTGlyph name="afii10068" xMin="80" yMin="0" xMax="800" yMax="1120">
      <contour>
        <pt x="240" y="80" on="1"/>
        <pt x="240" y="47" on="0"/>
        <pt x="193" y="0" on="0"/>
        <pt x="160" y="0" on="1"/>
        <pt x="127" y="0" on="0"/>
        <pt x="80" y="47" on="0"/>
        <pt x="80" y="80" on="1"/>
        <pt x="80" y="800" on="1"/>
        <pt x="80" y="933" on="0"/>
        <pt x="267" y="1120" on="0"/>
        <pt x="400" y="1120" on="1"/>
        <pt x="720" y="1120" on="1"/>
        <pt x="753" y="1120" on="0"/>
        <pt x="800" y="1073" on="0"/>
        <pt x="800" y="1040" on="1"/>
        <pt x="800" y="1007" on="0"/>
        <pt x="753" y="960" on="0"/>
        <pt x="720" y="960" on="1"/>
        <pt x="400" y="960" on="1"/>
        <pt x="334" y="960" on="0"/>
        <pt x="240" y="866" on="0"/>
        <pt x="240" y="800" on="1"/>
      </contour>
    </TTGlyph>
    <TTGlyph name="afii10069" xMin="80" yMin="-480" xMax="1200" yMax="1120">
      <component glyphName="g" x="0" y="0" flags="0x200"/>
    </TTGlyph>
    <TTGlyph name="afii10070" xMin="80" yMin="0" xMax="1200" yMax="1120">
      <component glyphName="e" x="0" y="0" flags="0x200"/>
    </TTGlyph>
    <TTGlyph name="afii10071" xMin="80" yMin="0" xMax="1200" yMax="1460">
      <component glyphName="e" x="0" y="0" flags="0x200"/>
      <component glyphName="dieresis" x="161" y="0" flags="0x0"/>
    </TTGlyph>
    <TTGlyph name="afii10072" xMin="80" yMin="0" xMax="1680" yMax="1120">
      <contour>
        <pt x="800" y="603" on="1"/>
        <pt x="800" y="1040" on="1"/>
        <pt x="800" y="1073" on="0"/>
        <pt x="847" y="1120" on="0"/>
        <pt x="880" y="1120" on="1"/>
        <pt x="913" y="1120" on="0"/>
        <pt x="960" y="1073" on="0"/>
        <pt x="960" y="1040" on="1"/>
        <pt x="960" y="603" on="1"/>
        <pt x="1547" y="1100" on="1"/>
        <pt x="1569" y="1120" on="0"/>
        <pt x="1600" y="1120" on="1"/>
        <pt x="1633" y="1120" on="0"/>
        <pt x="1680" y="1073" on="0"/>
        <pt x="1680" y="1040" on="1"/>
        <pt x="1680" y="1007" on="0"/>
        <pt x="1657" y="984" on="1"/>
        <pt x="1160" y="563" on="1"/>
        <pt x="1657" y="137" on="1"/>
        <pt x="1680" y="113" on="0"/>
        <pt x="1680" y="80" on="1"/>
        <pt x="1680" y="47" on="0"/>
        <pt x="1633" y="0" on="0"/>
        <pt x="1600" y="0" on="1"/>
        <pt x="1570" y="0" on="0"/>
        <pt x="1548" y="19" on="1"/>
        <pt x="1036" y="458" on="1"/>
        <pt x="960" y="393" on="1"/>
        <pt x="960" y="80" on="1"/>
        <pt x="960" y="47" on="0"/>
        <pt x="913" y="0" on="0"/>
        <pt x="880" y="0" on="1"/>
        <pt x="847" y="0" on="0"/>
        <pt x="800" y="47" on="0"/>
        <pt x="800" y="80" on="1"/>
        <pt x="800" y="393" on="1"/>
        <pt x="724" y="458" on="1"/>
        <pt x="212" y="19" on="1"/>
        <pt x="190" y="0" on="0"/>
        <pt x="160" y="0" on="1"/>
        <pt x="127" y="0" on="0"/>
        <pt x="80" y="47" on="0"/>
        <pt x="80" y="80" on="1"/>
        <pt x="80" y="113" on="0"/>
        <pt x="103" y="137" on="1"/>
        <pt x="600" y="563" on="1"/>
        <pt x="103" y="984" on="1"/>
        <pt x="80" y="1007" on="0"/>
        <pt x="80" y="1040" on="1"/>
        <pt x="80" y="1073" on="0"/>
        <pt x="127" y="1120" on="0"/>
        <pt x="160" y="1120" on="1"/>
        <pt x="191" y="1120" on="0"/>
        <pt x="213" y="1100" on="1"/>
      </contour>
    </TTGlyph>
    <TTGlyph name="afii10073" xMin="109" yMin="0" xMax="880" yMax="1120">
      <contour>
        <pt x="256" y="262" on="1"/>
        <pt x="289" y="221" on="0"/>
        <pt x="311" y="207" on="1"/>
        <pt x="381" y="160" on="0"/>
        <pt x="480" y="160" on="1"/>
        <pt x="579" y="160" on="0"/>
        <pt x="720" y="264" on="0"/>
        <pt x="720" y="330" on="1"/>
        <pt x="720" y="406" on="0"/>
        <pt x="579" y="520" on="0"/>
        <pt x="480" y="520" on="1"/>
        <pt x="447" y="520" on="0"/>
        <pt x="400" y="567" on="0"/>
        <pt x="400" y="600" on="1"/>
        <pt x="400" y="633" on="0"/>
        <pt x="447" y="680" on="0"/>
        <pt x="480" y="680" on="1"/>
        <pt x="579" y="680" on="0"/>
        <pt x="720" y="754" on="0"/>
        <pt x="720" y="810" on="1"/>
        <pt x="720" y="876" on="0"/>
        <pt x="579" y="960" on="0"/>
        <pt x="480" y="960" on="1"/>
        <pt x="381" y="960" on="0"/>
        <pt x="311" y="913" on="1"/>
        <pt x="278" y="889" on="0"/>
        <pt x="258" y="860" on="1"/>
        <pt x="253" y="852" on="0"/>
        <pt x="246" y="845" on="1"/>
        <pt x="222" y="821" on="0"/>
        <pt x="189" y="821" on="1"/>
        <pt x="156" y="821" on="0"/>
        <pt x="109" y="868" on="0"/>
        <pt x="109" y="901" on="1"/>
        <pt x="109" y="925" on="0"/>
        <pt x="121" y="944" on="1"/>
        <pt x="149" y="988" on="0"/>
        <pt x="197" y="1027" on="1"/>
        <pt x="314" y="1120" on="0"/>
        <pt x="480" y="1120" on="1"/>
        <pt x="646" y="1120" on="0"/>
        <pt x="880" y="943" on="0"/>
        <pt x="880" y="810" on="1"/>
        <pt x="880" y="677" on="0"/>
        <pt x="745" y="600" on="1"/>
        <pt x="880" y="483" on="0"/>
        <pt x="880" y="330" on="1"/>
        <pt x="880" y="197" on="0"/>
        <pt x="646" y="0" on="0"/>
        <pt x="480" y="0" on="1"/>
        <pt x="314" y="0" on="0"/>
        <pt x="197" y="94" on="1"/>
        <pt x="154" y="128" on="0"/>
        <pt x="127" y="167" on="1"/>
        <pt x="111" y="188" on="0"/>
        <pt x="111" y="215" on="1"/>
        <pt x="111" y="248" on="0"/>
        <pt x="158" y="295" on="0"/>
        <pt x="191" y="295" on="1"/>
        <pt x="232" y="295" on="0"/>
      </contour>
    </TTGlyph>
    <TTGlyph name="afii10074" xMin="80" yMin="0" xMax="1120" yMax="1120">
      <component glyphName="u" x="0" y="0" flags="0x200"/>
    </TTGlyph>
    <TTGlyph name="afii10075" xMin="80" yMin="0" xMax="1120" yMax="1560">
      <contour>
        <pt x="1120" y="80" on="1"/>
        <pt x="1120" y="47" on="0"/>
        <pt x="1073" y="0" on="0"/>
        <pt x="1040" y="0" on="1"/>
        <pt x="1007" y="0" on="0"/>
        <pt x="960" y="47" on="0"/>
        <pt x="960" y="80" on="1"/>
        <pt x="960" y="145" on="1"/>
        <pt x="810" y="0" on="0"/>
        <pt x="600" y="0" on="1"/>
        <pt x="385" y="0" on="0"/>
        <pt x="80" y="305" on="0"/>
        <pt x="80" y="520" on="1"/>
        <pt x="80" y="1040" on="1"/>
        <pt x="80" y="1073" on="0"/>
        <pt x="127" y="1120" on="0"/>
        <pt x="160" y="1120" on="1"/>
        <pt x="193" y="1120" on="0"/>
        <pt x="240" y="1073" on="0"/>
        <pt x="240" y="1040" on="1"/>
        <pt x="240" y="520" on="1"/>
        <pt x="240" y="371" on="0"/>
        <pt x="451" y="160" on="0"/>
        <pt x="600" y="160" on="1"/>
        <pt x="749" y="160" on="0"/>
        <pt x="960" y="371" on="0"/>
        <pt x="960" y="520" on="1"/>
        <pt x="960" y="1040" on="1"/>
        <pt x="960" y="1073" on="0"/>
        <pt x="1007" y="1120" on="0"/>
        <pt x="1040" y="1120" on="1"/>
        <pt x="1073" y="1120" on="0"/>
        <pt x="1120" y="1073" on="0"/>
        <pt x="1120" y="1040" on="1"/>
      </contour>
      <contour>
        <pt x="286" y="1480" on="1"/>
        <pt x="286" y="1513" on="0"/>
        <pt x="333" y="1560" on="0"/>
        <pt x="366" y="1560" on="1"/>
        <pt x="399" y="1560" on="0"/>
        <pt x="446" y="1513" on="0"/>
        <pt x="446" y="1480" on="1"/>
        <pt x="446" y="1447" on="0"/>
        <pt x="540" y="1400" on="0"/>
        <pt x="606" y="1400" on="1"/>
        <pt x="672" y="1400" on="0"/>
        <pt x="767" y="1447" on="0"/>
        <pt x="767" y="1480" on="1"/>
        <pt x="767" y="1513" on="0"/>
        <pt x="814" y="1560" on="0"/>
        <pt x="847" y="1560" on="1"/>
        <pt x="880" y="1560" on="0"/>
        <pt x="927" y="1513" on="0"/>
        <pt x="927" y="1480" on="1"/>
        <pt x="922" y="1375" on="0"/>
        <pt x="833" y="1311" on="1"/>
        <pt x="739" y="1240" on="0"/>
        <pt x="606" y="1240" on="1"/>
        <pt x="473" y="1240" on="0"/>
        <pt x="286" y="1381" on="0"/>
      </contour>
    </TTGlyph>
    <TTGlyph name="afii10076" xMin="80" yMin="0" xMax="960" yMax="1120">
      <contour>
        <pt x="80" y="1040" on="1"/>
        <pt x="80" y="1073" on="0"/>
        <pt x="127" y="1120" on="0"/>
        <pt x="160" y="1120" on="1"/>
        <pt x="193" y="1120" on="0"/>
        <pt x="240" y="1073" on="0"/>
        <pt x="240" y="1040" on="1"/>
        <pt x="240" y="603" on="1"/>
        <pt x="827" y="1100" on="1"/>
        <pt x="849" y="1120" on="0"/>
        <pt x="880" y="1120" on="1"/>
        <pt x="913" y="1120" on="0"/>
        <pt x="960" y="1073" on="0"/>
        <pt x="960" y="1040" on="1"/>
        <pt x="960" y="1007" on="0"/>
        <pt x="937" y="984" on="1"/>
        <pt x="440" y="563" on="1"/>
        <pt x="937" y="137" on="1"/>
        <pt x="960" y="113" on="0"/>
        <pt x="960" y="80" on="1"/>
        <pt x="960" y="47" on="0"/>
        <pt x="913" y="0" on="0"/>
        <pt x="880" y="0" on="1"/>
        <pt x="850" y="0" on="0"/>
        <pt x="828" y="19" on="1"/>
        <pt x="316" y="458" on="1"/>
        <pt x="240" y="393" on="1"/>
        <pt x="240" y="80" on="1"/>
        <pt x="240" y="47" on="0"/>
        <pt x="193" y="0" on="0"/>
        <pt x="160" y="0" on="1"/>
        <pt x="127" y="0" on="0"/>
        <pt x="80" y="47" on="0"/>
        <pt x="80" y="80" on="1"/>
      </contour>
    </TTGlyph>
    <TTGlyph name="afii10077" xMin="80" yMin="-2" xMax="1120" yMax="1118">
      <component glyphName="v" x="0" y="1118" scalex="1.0" scaley="-0.999938964844" flags="0x0"/>
    </TTGlyph>
    <TTGlyph name="afii10078" xMin="80" yMin="-1" xMax="1520" yMax="1119">
      <component glyphName="w" x="0" y="1119" scalex="1.0" scaley="-0.999938964844" flags="0x0"/>
    </TTGlyph>
    <TTGlyph name="afii10079" xMin="80" yMin="0" xMax="1000" yMax="1120">
      <contour>
        <pt x="240" y="480" on="1"/>
        <pt x="240" y="80" on="1"/>
        <pt x="240" y="47" on="0"/>
        <pt x="193" y="0" on="0"/>
        <pt x="160" y="0" on="1"/>
        <pt x="127" y="0" on="0"/>
        <pt x="80" y="47" on="0"/>
        <pt x="80" y="80" on="1"/>
        <pt x="80" y="1040" on="1"/>
        <pt x="80" y="1073" on="0"/>
        <pt x="127" y="1120" on="0"/>
        <pt x="160" y="1120" on="1"/>
        <pt x="193" y="1120" on="0"/>
        <pt x="240" y="1073" on="0"/>
        <pt x="240" y="1040" on="1"/>
        <pt x="240" y="640" on="1"/>
        <pt x="840" y="640" on="1"/>
        <pt x="840" y="1040" on="1"/>
        <pt x="840" y="1073" on="0"/>
        <pt x="887" y="1120" on="0"/>
        <pt x="920" y="1120" on="1"/>
        <pt x="953" y="1120" on="0"/>
        <pt x="1000" y="1073" on="0"/>
        <pt x="1000" y="1040" on="1"/>
        <pt x="1000" y="80" on="1"/>
        <pt x="1000" y="47" on="0"/>
        <pt x="953" y="0" on="0"/>
        <pt x="920" y="0" on="1"/>
        <pt x="887" y="0" on="0"/>
        <pt x="840" y="47" on="0"/>
        <pt x="840" y="80" on="1"/>
        <pt x="840" y="480" on="1"/>
      </contour>
    </TTGlyph>
    <TTGlyph name="afii10080" xMin="80" yMin="0" xMax="1200" yMax="1120">
      <component glyphName="o" x="0" y="0" flags="0x200"/>
    </TTGlyph>
    <TTGlyph name="afii10081" xMin="80" yMin="0" xMax="1120" yMax="1120">
      <component glyphName="n" x="0" y="0" flags="0x200"/>
    </TTGlyph>
    <TTGlyph name="afii10082" xMin="80" yMin="-480" xMax="1200" yMax="1120">
      <component glyphName="p" x="0" y="0" flags="0x200"/>
    </TTGlyph>
    <TTGlyph name="afii10083" xMin="80" yMin="0" xMax="1033" yMax="1120">
      <component glyphName="c" x="0" y="0" flags="0x200"/>
    </TTGlyph>
    <TTGlyph name="afii10084" xMin="80" yMin="0" xMax="1680" yMax="1120">
      <component glyphName="m" x="0" y="0" flags="0x200"/>
    </TTGlyph>
    <TTGlyph name="afii10085" xMin="80" yMin="-480" xMax="1040" yMax="1120">
      <component glyphName="y" x="0" y="0" flags="0x200"/>
    </TTGlyph>
    <TTGlyph name="afii10086" xMin="80" yMin="-480" xMax="1840" yMax="1600">
      <contour>
        <pt x="560" y="960" on="1"/>
        <pt x="427" y="960" on="0"/>
        <pt x="240" y="726" on="0"/>
        <pt x="240" y="560" on="1"/>
        <pt x="240" y="394" on="0"/>
        <pt x="427" y="160" on="0"/>
        <pt x="560" y="160" on="1"/>
        <pt x="693" y="160" on="0"/>
        <pt x="880" y="394" on="0"/>
        <pt x="880" y="560" on="1"/>
        <pt x="880" y="726" on="0"/>
        <pt x="693" y="960" on="0"/>
      </contour>
      <contour>
        <pt x="1360" y="960" on="1"/>
        <pt x="1227" y="960" on="0"/>
        <pt x="1040" y="726" on="0"/>
        <pt x="1040" y="560" on="1"/>
        <pt x="1040" y="394" on="0"/>
        <pt x="1227" y="160" on="0"/>
        <pt x="1360" y="160" on="1"/>
        <pt x="1493" y="160" on="0"/>
        <pt x="1680" y="394" on="0"/>
        <pt x="1680" y="560" on="1"/>
        <pt x="1680" y="726" on="0"/>
        <pt x="1493" y="960" on="0"/>
      </contour>
      <contour>
        <pt x="880" y="1520" on="1"/>
        <pt x="880" y="1553" on="0"/>
        <pt x="927" y="1600" on="0"/>
        <pt x="960" y="1600" on="1"/>
        <pt x="993" y="1600" on="0"/>
        <pt x="1040" y="1553" on="0"/>
        <pt x="1040" y="1520" on="1"/>
        <pt x="1040" y="978" on="1"/>
        <pt x="1175" y="1120" on="0"/>
        <pt x="1360" y="1120" on="1"/>
        <pt x="1559" y="1120" on="0"/>
        <pt x="1840" y="792" on="0"/>
        <pt x="1840" y="560" on="1"/>
        <pt x="1840" y="328" on="0"/>
        <pt x="1559" y="0" on="0"/>
        <pt x="1360" y="0" on="1"/>
        <pt x="1175" y="0" on="0"/>
        <pt x="1040" y="142" on="1"/>
        <pt x="1040" y="-400" on="1"/>
        <pt x="1040" y="-433" on="0"/>
        <pt x="993" y="-480" on="0"/>
        <pt x="960" y="-480" on="1"/>
        <pt x="927" y="-480" on="0"/>
        <pt x="880" y="-433" on="0"/>
        <pt x="880" y="-400" on="1"/>
        <pt x="880" y="142" on="1"/>
        <pt x="745" y="0" on="0"/>
        <pt x="560" y="0" on="1"/>
        <pt x="361" y="0" on="0"/>
        <pt x="80" y="328" on="0"/>
        <pt x="80" y="560" on="1"/>
        <pt x="80" y="792" on="0"/>
        <pt x="361" y="1120" on="0"/>
        <pt x="560" y="1120" on="1"/>
        <pt x="745" y="1120" on="0"/>
        <pt x="880" y="978" on="1"/>
      </contour>
    </TTGlyph>
    <TTGlyph name="afii10087" xMin="80" yMin="0" xMax="1040" yMax="1120">
      <component glyphName="x" x="0" y="0" flags="0x200"/>
    </TTGlyph>
    <TTGlyph name="afii10088" xMin="80" yMin="-320" xMax="1280" yMax="1120">
      <contour>
        <pt x="1120" y="160" on="1"/>
        <pt x="1200" y="160" on="1"/>
        <pt x="1233" y="160" on="0"/>
        <pt x="1280" y="113" on="0"/>
        <pt x="1280" y="80" on="1"/>
        <pt x="1280" y="-109" on="0"/>
        <pt x="1204" y="-266" on="1"/>
        <pt x="1198" y="-283" on="0"/>
        <pt x="1185" y="-296" on="1"/>
        <pt x="1161" y="-320" on="0"/>
        <pt x="1128" y="-320" on="1"/>
        <pt x="1095" y="-320" on="0"/>
        <pt x="1048" y="-273" on="0"/>
        <pt x="1048" y="-240" on="1"/>
        <pt x="1048" y="-219" on="0"/>
        <pt x="1057" y="-202" on="1"/>
        <pt x="1103" y="-108" on="0"/>
        <pt x="1116" y="0" on="1"/>
        <pt x="1040" y="0" on="1"/>
        <pt x="1007" y="0" on="0"/>
        <pt x="960" y="47" on="0"/>
        <pt x="960" y="80" on="1"/>
        <pt x="960" y="145" on="1"/>
        <pt x="810" y="0" on="0"/>
        <pt x="600" y="0" on="1"/>
        <pt x="385" y="0" on="0"/>
        <pt x="80" y="305" on="0"/>
        <pt x="80" y="520" on="1"/>
        <pt x="80" y="1040" on="1"/>
        <pt x="80" y="1073" on="0"/>
        <pt x="127" y="1120" on="0"/>
        <pt x="160" y="1120" on="1"/>
        <pt x="193" y="1120" on="0"/>
        <pt x="240" y="1073" on="0"/>
        <pt x="240" y="1040" on="1"/>
        <pt x="240" y="520" on="1"/>
        <pt x="240" y="371" on="0"/>
        <pt x="451" y="160" on="0"/>
        <pt x="600" y="160" on="1"/>
        <pt x="749" y="160" on="0"/>
        <pt x="960" y="371" on="0"/>
        <pt x="960" y="520" on="1"/>
        <pt x="960" y="1040" on="1"/>
        <pt x="960" y="1073" on="0"/>
        <pt x="1007" y="1120" on="0"/>
        <pt x="1040" y="1120" on="1"/>
        <pt x="1073" y="1120" on="0"/>
        <pt x="1120" y="1073" on="0"/>
        <pt x="1120" y="1040" on="1"/>
      </contour>
    </TTGlyph>
    <TTGlyph name="afii10089" xMin="80" yMin="0" xMax="960" yMax="1120">
      <contour>
        <pt x="80" y="1040" on="1"/>
        <pt x="80" y="1073" on="0"/>
        <pt x="127" y="1120" on="0"/>
        <pt x="160" y="1120" on="1"/>
        <pt x="193" y="1120" on="0"/>
        <pt x="240" y="1073" on="0"/>
        <pt x="240" y="1040" on="1"/>
        <pt x="240" y="800" on="1"/>
        <pt x="240" y="684" on="0"/>
        <pt x="404" y="520" on="0"/>
        <pt x="520" y="520" on="1"/>
        <pt x="636" y="520" on="0"/>
        <pt x="718" y="602" on="1"/>
        <pt x="800" y="684" on="0"/>
        <pt x="800" y="799" on="1"/>
        <pt x="800" y="1040" on="1"/>
        <pt x="800" y="1073" on="0"/>
        <pt x="847" y="1120" on="0"/>
        <pt x="880" y="1120" on="1"/>
        <pt x="913" y="1120" on="0"/>
        <pt x="960" y="1073" on="0"/>
        <pt x="960" y="1040" on="1"/>
        <pt x="960" y="80" on="1"/>
        <pt x="960" y="47" on="0"/>
        <pt x="913" y="0" on="0"/>
        <pt x="880" y="0" on="1"/>
        <pt x="847" y="0" on="0"/>
        <pt x="800" y="47" on="0"/>
        <pt x="800" y="80" on="1"/>
        <pt x="800" y="461" on="1"/>
        <pt x="681" y="360" on="0"/>
        <pt x="520" y="360" on="1"/>
        <pt x="338" y="360" on="0"/>
        <pt x="80" y="618" on="0"/>
        <pt x="80" y="800" on="1"/>
      </contour>
    </TTGlyph>
    <TTGlyph name="afii10090" xMin="80" yMin="0" xMax="1680" yMax="1120">
      <component glyphName="m" x="1760" y="1120" scale="-0.999938964844" flags="0x0"/>
    </TTGlyph>
    <TTGlyph name="afii10091" xMin="80" yMin="-320" xMax="1840" yMax="1120">
      <contour>
        <pt x="1600" y="0" on="1"/>
        <pt x="1567" y="0" on="0"/>
        <pt x="1520" y="47" on="0"/>
        <pt x="1520" y="80" on="1"/>
        <pt x="1520" y="101" on="1"/>
        <pt x="1401" y="0" on="0"/>
        <pt x="1240" y="0" on="1"/>
        <pt x="1058" y="0" on="0"/>
        <pt x="929" y="129" on="1"/>
        <pt x="902" y="156" on="0"/>
        <pt x="880" y="186" on="1"/>
        <pt x="858" y="156" on="0"/>
        <pt x="831" y="129" on="1"/>
        <pt x="702" y="0" on="0"/>
        <pt x="520" y="0" on="1"/>
        <pt x="338" y="0" on="0"/>
        <pt x="80" y="258" on="0"/>
        <pt x="80" y="440" on="1"/>
        <pt x="80" y="1040" on="1"/>
        <pt x="80" y="1073" on="0"/>
        <pt x="127" y="1120" on="0"/>
        <pt x="160" y="1120" on="1"/>
        <pt x="193" y="1120" on="0"/>
        <pt x="240" y="1073" on="0"/>
        <pt x="240" y="1040" on="1"/>
        <pt x="240" y="440" on="1"/>
        <pt x="240" y="324" on="0"/>
        <pt x="404" y="160" on="0"/>
        <pt x="520" y="160" on="1"/>
        <pt x="636" y="160" on="0"/>
        <pt x="800" y="324" on="0"/>
        <pt x="800" y="440" on="1"/>
        <pt x="800" y="1040" on="1"/>
        <pt x="800" y="1073" on="0"/>
        <pt x="847" y="1120" on="0"/>
        <pt x="880" y="1120" on="1"/>
        <pt x="913" y="1120" on="0"/>
        <pt x="960" y="1073" on="0"/>
        <pt x="960" y="1040" on="1"/>
        <pt x="960" y="440" on="1"/>
        <pt x="960" y="324" on="0"/>
        <pt x="1124" y="160" on="0"/>
        <pt x="1240" y="160" on="1"/>
        <pt x="1356" y="160" on="0"/>
        <pt x="1520" y="324" on="0"/>
        <pt x="1520" y="440" on="1"/>
        <pt x="1520" y="1040" on="1"/>
        <pt x="1520" y="1073" on="0"/>
        <pt x="1567" y="1120" on="0"/>
        <pt x="1600" y="1120" on="1"/>
        <pt x="1633" y="1120" on="0"/>
        <pt x="1680" y="1073" on="0"/>
        <pt x="1680" y="1040" on="1"/>
        <pt x="1680" y="160" on="1"/>
        <pt x="1760" y="160" on="1"/>
        <pt x="1793" y="160" on="0"/>
        <pt x="1840" y="113" on="0"/>
        <pt x="1840" y="80" on="1"/>
        <pt x="1840" y="-109" on="0"/>
        <pt x="1764" y="-266" on="1"/>
        <pt x="1758" y="-283" on="0"/>
        <pt x="1745" y="-296" on="1"/>
        <pt x="1721" y="-320" on="0"/>
        <pt x="1688" y="-320" on="1"/>
        <pt x="1655" y="-320" on="0"/>
        <pt x="1608" y="-273" on="0"/>
        <pt x="1608" y="-240" on="1"/>
        <pt x="1608" y="-219" on="0"/>
        <pt x="1617" y="-202" on="1"/>
        <pt x="1663" y="-108" on="0"/>
        <pt x="1676" y="0" on="1"/>
      </contour>
    </TTGlyph>
    <TTGlyph name="afii10092" xMin="40" yMin="0" xMax="1200" yMax="1120">
      <contour>
        <pt x="880" y="160" on="1"/>
        <pt x="946" y="160" on="0"/>
        <pt x="1040" y="254" on="0"/>
        <pt x="1040" y="320" on="1"/>
        <pt x="1040" y="386" on="0"/>
        <pt x="946" y="480" on="0"/>
        <pt x="880" y="480" on="1"/>
        <pt x="520" y="480" on="1"/>
        <pt x="520" y="160" on="1"/>
      </contour>
      <contour>
        <pt x="880" y="640" on="1"/>
        <pt x="1013" y="640" on="0"/>
        <pt x="1200" y="453" on="0"/>
        <pt x="1200" y="320" on="1"/>
        <pt x="1200" y="187" on="0"/>
        <pt x="1013" y="0" on="0"/>
        <pt x="880" y="0" on="1"/>
        <pt x="440" y="0" on="1"/>
        <pt x="407" y="0" on="0"/>
        <pt x="360" y="47" on="0"/>
        <pt x="360" y="80" on="1"/>
        <pt x="360" y="960" on="1"/>
        <pt x="120" y="960" on="1"/>
        <pt x="87" y="960" on="0"/>
        <pt x="40" y="1007" on="0"/>
        <pt x="40" y="1040" on="1"/>
        <pt x="40" y="1073" on="0"/>
        <pt x="87" y="1120" on="0"/>
        <pt x="120" y="1120" on="1"/>
        <pt x="440" y="1120" on="1"/>
        <pt x="473" y="1120" on="0"/>
        <pt x="520" y="1073" on="0"/>
        <pt x="520" y="1040" on="1"/>
        <pt x="520" y="640" on="1"/>
      </contour>
    </TTGlyph>
    <TTGlyph name="afii10093" xMin="80" yMin="0" xMax="1201" yMax="1120">
      <component glyphName="afii10094" x="0" y="0" flags="0x0"/>
      <component glyphName="dotlessi" x="881" y="0" flags="0x0"/>
    </TTGlyph>
    <TTGlyph name="afii10094" xMin="80" yMin="0" xMax="920" yMax="1120">
      <contour>
        <pt x="600" y="160" on="1"/>
        <pt x="666" y="160" on="0"/>
        <pt x="760" y="254" on="0"/>
        <pt x="760" y="320" on="1"/>
        <pt x="760" y="386" on="0"/>
        <pt x="666" y="480" on="0"/>
        <pt x="600" y="480" on="1"/>
        <pt x="240" y="480" on="1"/>
        <pt x="240" y="160" on="1"/>
      </contour>
      <contour>
        <pt x="240" y="1040" on="1"/>
        <pt x="240" y="640" on="1"/>
        <pt x="600" y="640" on="1"/>
        <pt x="733" y="640" on="0"/>
        <pt x="920" y="453" on="0"/>
        <pt x="920" y="320" on="1"/>
        <pt x="920" y="187" on="0"/>
        <pt x="733" y="0" on="0"/>
        <pt x="600" y="0" on="1"/>
        <pt x="160" y="0" on="1"/>
        <pt x="127" y="0" on="0"/>
        <pt x="80" y="47" on="0"/>
        <pt x="80" y="80" on="1"/>
        <pt x="80" y="1042" on="1"/>
        <pt x="81" y="1074" on="0"/>
        <pt x="104" y="1097" on="1"/>
        <pt x="127" y="1120" on="0"/>
        <pt x="160" y="1120" on="1"/>
        <pt x="193" y="1120" on="0"/>
        <pt x="240" y="1073" on="0"/>
      </contour>
    </TTGlyph>
    <TTGlyph name="afii10095" xMin="80" yMin="0" xMax="1033" yMax="1120">
      <contour>
        <pt x="866" y="640" on="1"/>
        <pt x="844" y="755" on="0"/>
        <pt x="756" y="843" on="1"/>
        <pt x="639" y="960" on="0"/>
        <pt x="473" y="960" on="1"/>
        <pt x="323" y="960" on="0"/>
        <pt x="211" y="861" on="1"/>
        <pt x="189" y="843" on="0"/>
        <pt x="160" y="843" on="1"/>
        <pt x="127" y="843" on="0"/>
        <pt x="80" y="890" on="0"/>
        <pt x="80" y="923" on="1"/>
        <pt x="80" y="960" on="0"/>
        <pt x="108" y="985" on="1"/>
        <pt x="263" y="1120" on="0"/>
        <pt x="473" y="1120" on="1"/>
        <pt x="705" y="1120" on="0"/>
        <pt x="1033" y="792" on="0"/>
        <pt x="1033" y="560" on="1"/>
        <pt x="1033" y="328" on="0"/>
        <pt x="705" y="0" on="0"/>
        <pt x="473" y="0" on="1"/>
        <pt x="263" y="0" on="0"/>
        <pt x="108" y="135" on="1"/>
        <pt x="83" y="161" on="0"/>
        <pt x="83" y="194" on="1"/>
        <pt x="83" y="227" on="0"/>
        <pt x="130" y="274" on="0"/>
        <pt x="163" y="274" on="1"/>
        <pt x="191" y="274" on="0"/>
        <pt x="212" y="258" on="1"/>
        <pt x="323" y="160" on="0"/>
        <pt x="473" y="160" on="1"/>
        <pt x="639" y="160" on="0"/>
        <pt x="756" y="277" on="1"/>
        <pt x="844" y="365" on="0"/>
        <pt x="866" y="480" on="1"/>
        <pt x="400" y="480" on="1"/>
        <pt x="367" y="480" on="0"/>
        <pt x="320" y="527" on="0"/>
        <pt x="320" y="560" on="1"/>
        <pt x="320" y="593" on="0"/>
        <pt x="367" y="640" on="0"/>
        <pt x="400" y="640" on="1"/>
      </contour>
    </TTGlyph>
    <TTGlyph name="afii10096" xMin="80" yMin="0" xMax="1520" yMax="1120">
      <contour>
        <pt x="960" y="960" on="1"/>
        <pt x="794" y="960" on="0"/>
        <pt x="560" y="726" on="0"/>
        <pt x="560" y="560" on="1"/>
        <pt x="560" y="394" on="0"/>
        <pt x="794" y="160" on="0"/>
        <pt x="960" y="160" on="1"/>
        <pt x="1126" y="160" on="0"/>
        <pt x="1360" y="394" on="0"/>
        <pt x="1360" y="560" on="1"/>
        <pt x="1360" y="726" on="0"/>
        <pt x="1126" y="960" on="0"/>
      </contour>
      <contour>
        <pt x="405" y="640" on="1"/>
        <pt x="429" y="821" on="0"/>
        <pt x="564" y="956" on="1"/>
        <pt x="728" y="1120" on="0"/>
        <pt x="960" y="1120" on="1"/>
        <pt x="1192" y="1120" on="0"/>
        <pt x="1520" y="792" on="0"/>
        <pt x="1520" y="560" on="1"/>
        <pt x="1520" y="328" on="0"/>
        <pt x="1192" y="0" on="0"/>
        <pt x="960" y="0" on="1"/>
        <pt x="728" y="0" on="0"/>
        <pt x="564" y="164" on="1"/>
        <pt x="429" y="299" on="0"/>
        <pt x="405" y="480" on="1"/>
        <pt x="240" y="480" on="1"/>
        <pt x="240" y="80" on="1"/>
        <pt x="240" y="47" on="0"/>
        <pt x="193" y="0" on="0"/>
        <pt x="160" y="0" on="1"/>
        <pt x="127" y="0" on="0"/>
        <pt x="80" y="47" on="0"/>
        <pt x="80" y="80" on="1"/>
        <pt x="80" y="1040" on="1"/>
        <pt x="80" y="1073" on="0"/>
        <pt x="127" y="1120" on="0"/>
        <pt x="160" y="1120" on="1"/>
        <pt x="193" y="1120" on="0"/>
        <pt x="240" y="1073" on="0"/>
        <pt x="240" y="1040" on="1"/>
        <pt x="240" y="640" on="1"/>
      </contour>
    </TTGlyph>
    <TTGlyph name="afii10097" xMin="40" yMin="0" xMax="920" yMax="1120">
      <contour>
        <pt x="760" y="640" on="1"/>
        <pt x="760" y="960" on="1"/>
        <pt x="440" y="960" on="1"/>
        <pt x="374" y="960" on="0"/>
        <pt x="280" y="866" on="0"/>
        <pt x="280" y="800" on="1"/>
        <pt x="280" y="734" on="0"/>
        <pt x="374" y="640" on="0"/>
        <pt x="440" y="640" on="1"/>
      </contour>
      <contour>
        <pt x="840" y="1120" on="1"/>
        <pt x="873" y="1120" on="0"/>
        <pt x="920" y="1073" on="0"/>
        <pt x="920" y="1040" on="1"/>
        <pt x="920" y="80" on="1"/>
        <pt x="920" y="47" on="0"/>
        <pt x="873" y="0" on="0"/>
        <pt x="840" y="0" on="1"/>
        <pt x="807" y="0" on="0"/>
        <pt x="760" y="47" on="0"/>
        <pt x="760" y="80" on="1"/>
        <pt x="760" y="480" on="1"/>
        <pt x="520" y="480" on="1"/>
        <pt x="454" y="480" on="0"/>
        <pt x="407" y="433" on="1"/>
        <pt x="388" y="414" on="0"/>
        <pt x="377" y="392" on="1"/>
        <pt x="194" y="50" on="1"/>
        <pt x="188" y="35" on="0"/>
        <pt x="177" y="24" on="1"/>
        <pt x="153" y="0" on="0"/>
        <pt x="120" y="0" on="1"/>
        <pt x="87" y="0" on="0"/>
        <pt x="40" y="47" on="0"/>
        <pt x="40" y="80" on="1"/>
        <pt x="40" y="105" on="0"/>
        <pt x="53" y="124" on="1"/>
        <pt x="235" y="468" on="1"/>
        <pt x="251" y="498" on="0"/>
        <pt x="274" y="525" on="1"/>
        <pt x="242" y="545" on="0"/>
        <pt x="214" y="574" on="1"/>
        <pt x="120" y="667" on="0"/>
        <pt x="120" y="800" on="1"/>
        <pt x="120" y="933" on="0"/>
        <pt x="307" y="1120" on="0"/>
        <pt x="440" y="1120" on="1"/>
      </contour>
    </TTGlyph>
    <TTGlyph name="afii10098" xMin="80" yMin="0" xMax="800" yMax="1440">
      <contour>
        <pt x="400" y="960" on="1"/>
        <pt x="334" y="960" on="0"/>
        <pt x="240" y="866" on="0"/>
        <pt x="240" y="800" on="1"/>
        <pt x="240" y="80" on="1"/>
        <pt x="240" y="47" on="0"/>
        <pt x="193" y="0" on="0"/>
        <pt x="160" y="0" on="1"/>
        <pt x="127" y="0" on="0"/>
        <pt x="80" y="47" on="0"/>
        <pt x="80" y="80" on="1"/>
        <pt x="80" y="800" on="1"/>
        <pt x="80" y="933" on="0"/>
        <pt x="267" y="1120" on="0"/>
        <pt x="400" y="1120" on="1"/>
        <pt x="636" y="1120" on="1"/>
        <pt x="623" y="1228" on="0"/>
        <pt x="577" y="1322" on="1"/>
        <pt x="568" y="1339" on="0"/>
        <pt x="568" y="1360" on="1"/>
        <pt x="568" y="1393" on="0"/>
        <pt x="615" y="1440" on="0"/>
        <pt x="648" y="1440" on="1"/>
        <pt x="681" y="1440" on="0"/>
        <pt x="705" y="1416" on="1"/>
        <pt x="718" y="1403" on="0"/>
        <pt x="724" y="1386" on="1"/>
        <pt x="800" y="1229" on="0"/>
        <pt x="800" y="1040" on="1"/>
        <pt x="800" y="1007" on="0"/>
        <pt x="753" y="960" on="0"/>
        <pt x="720" y="960" on="1"/>
      </contour>
    </TTGlyph>
    <TTGlyph name="afii10099" xMin="40" yMin="-480" xMax="1240" yMax="1600">
      <contour>
        <pt x="1080" y="600" on="1"/>
        <pt x="1080" y="749" on="0"/>
        <pt x="869" y="960" on="0"/>
        <pt x="720" y="960" on="1"/>
        <pt x="571" y="960" on="0"/>
        <pt x="360" y="749" on="0"/>
        <pt x="360" y="600" on="1"/>
        <pt x="360" y="80" on="1"/>
        <pt x="360" y="47" on="0"/>
        <pt x="313" y="0" on="0"/>
        <pt x="280" y="0" on="1"/>
        <pt x="247" y="0" on="0"/>
        <pt x="200" y="47" on="0"/>
        <pt x="200" y="80" on="1"/>
        <pt x="200" y="1280" on="1"/>
        <pt x="120" y="1280" on="1"/>
        <pt x="87" y="1280" on="0"/>
        <pt x="40" y="1327" on="0"/>
        <pt x="40" y="1360" on="1"/>
        <pt x="40" y="1393" on="0"/>
        <pt x="87" y="1440" on="0"/>
        <pt x="120" y="1440" on="1"/>
        <pt x="200" y="1440" on="1"/>
        <pt x="200" y="1520" on="1"/>
        <pt x="200" y="1553" on="0"/>
        <pt x="247" y="1600" on="0"/>
        <pt x="280" y="1600" on="1"/>
        <pt x="313" y="1600" on="0"/>
        <pt x="360" y="1553" on="0"/>
        <pt x="360" y="1520" on="1"/>
        <pt x="360" y="1440" on="1"/>
        <pt x="680" y="1440" on="1"/>
        <pt x="713" y="1440" on="0"/>
        <pt x="760" y="1393" on="0"/>
        <pt x="760" y="1360" on="1"/>
        <pt x="760" y="1327" on="0"/>
        <pt x="713" y="1280" on="0"/>
        <pt x="680" y="1280" on="1"/>
        <pt x="360" y="1280" on="1"/>
        <pt x="360" y="975" on="1"/>
        <pt x="510" y="1120" on="0"/>
        <pt x="720" y="1120" on="1"/>
        <pt x="935" y="1120" on="0"/>
        <pt x="1240" y="815" on="0"/>
        <pt x="1240" y="600" on="1"/>
        <pt x="1240" y="-160" on="1"/>
        <pt x="1240" y="-293" on="0"/>
        <pt x="1053" y="-480" on="0"/>
        <pt x="920" y="-480" on="1"/>
        <pt x="857" y="-480" on="0"/>
        <pt x="809" y="-461" on="1"/>
        <pt x="795" y="-455" on="0"/>
        <pt x="784" y="-443" on="1"/>
        <pt x="760" y="-420" on="0"/>
        <pt x="760" y="-387" on="1"/>
        <pt x="760" y="-354" on="0"/>
        <pt x="807" y="-307" on="0"/>
        <pt x="840" y="-307" on="1"/>
        <pt x="856" y="-307" on="0"/>
        <pt x="870" y="-313" on="1"/>
        <pt x="893" y="-320" on="0"/>
        <pt x="920" y="-320" on="1"/>
        <pt x="986" y="-320" on="0"/>
        <pt x="1080" y="-226" on="0"/>
        <pt x="1080" y="-160" on="1"/>
      </contour>
    </TTGlyph>
    <TTGlyph name="afii10100" xMin="80" yMin="0" xMax="800" yMax="1600">
      <component glyphName="afii10068" x="0" y="0" flags="0x200"/>
      <component glyphName="acute" x="227" y="0" flags="0x0"/>
    </TTGlyph>
    <TTGlyph name="afii10101" xMin="85" yMin="0" xMax="1038" yMax="1120">
      <component glyphName="afii10095" x="1118" y="0" scalex="-0.999938964844" scaley="1.0" flags="0x0"/>
    </TTGlyph>
    <TTGlyph name="afii10102" xMin="80" yMin="0" xMax="980" yMax="1120">
      <component glyphName="s" x="0" y="0" flags="0x200"/>
    </TTGlyph>
    <TTGlyph name="afii10103" xMin="140" yMin="0" xMax="340" yMax="1460">
      <component glyphName="i" x="0" y="0" flags="0x200"/>
    </TTGlyph>
    <TTGlyph name="afii10104" xMin="-39" yMin="0" xMax="641" yMax="1460">
      <contour>
        <pt x="220" y="1040" on="1"/>
        <pt x="220" y="1073" on="0"/>
        <pt x="267" y="1120" on="0"/>
        <pt x="300" y="1120" on="1"/>
        <pt x="333" y="1120" on="0"/>
        <pt x="380" y="1073" on="0"/>
        <pt x="380" y="1040" on="1"/>
        <pt x="380" y="80" on="1"/>
        <pt x="380" y="47" on="0"/>
        <pt x="333" y="0" on="0"/>
        <pt x="300" y="0" on="1"/>
        <pt x="267" y="0" on="0"/>
        <pt x="220" y="47" on="0"/>
        <pt x="220" y="80" on="1"/>
      </contour>
      <contour>
        <pt x="161" y="1360" on="1"/>
        <pt x="161" y="1319" on="0"/>
        <pt x="102" y="1260" on="0"/>
        <pt x="61" y="1260" on="1"/>
        <pt x="20" y="1260" on="0"/>
        <pt x="-39" y="1319" on="0"/>
        <pt x="-39" y="1360" on="1"/>
        <pt x="-39" y="1401" on="0"/>
        <pt x="20" y="1460" on="0"/>
        <pt x="61" y="1460" on="1"/>
        <pt x="102" y="1460" on="0"/>
        <pt x="161" y="1401" on="0"/>
      </contour>
      <contour>
        <pt x="641" y="1360" on="1"/>
        <pt x="641" y="1319" on="0"/>
        <pt x="582" y="1260" on="0"/>
        <pt x="541" y="1260" on="1"/>
        <pt x="500" y="1260" on="0"/>
        <pt x="441" y="1319" on="0"/>
        <pt x="441" y="1360" on="1"/>
        <pt x="441" y="1401" on="0"/>
        <pt x="500" y="1460" on="0"/>
        <pt x="541" y="1460" on="1"/>
        <pt x="582" y="1460" on="0"/>
        <pt x="641" y="1401" on="0"/>
      </contour>
    </TTGlyph>
    <TTGlyph name="afii10105" xMin="0" yMin="-480" xMax="580" yMax="1460">
      <component glyphName="j" x="0" y="0" flags="0x200"/>
    </TTGlyph>
    <TTGlyph name="afii10106" xMin="80" yMin="0" xMax="1720" yMax="1120">
      <contour>
        <pt x="1040" y="0" on="1"/>
        <pt x="1007" y="0" on="0"/>
        <pt x="984" y="23" on="1"/>
        <pt x="975" y="31" on="0"/>
        <pt x="968" y="44" on="1"/>
        <pt x="600" y="848" on="1"/>
        <pt x="232" y="44" on="1"/>
        <pt x="225" y="31" on="0"/>
        <pt x="217" y="23" on="1"/>
        <pt x="193" y="0" on="0"/>
        <pt x="160" y="0" on="1"/>
        <pt x="127" y="0" on="0"/>
        <pt x="80" y="47" on="0"/>
        <pt x="80" y="80" on="1"/>
        <pt x="80" y="97" on="0"/>
        <pt x="86" y="111" on="1"/>
        <pt x="530" y="1078" on="1"/>
        <pt x="536" y="1091" on="0"/>
        <pt x="543" y="1097" on="1"/>
        <pt x="565" y="1120" on="0"/>
        <pt x="600" y="1120" on="1"/>
        <pt x="635" y="1120" on="0"/>
        <pt x="657" y="1098" on="1"/>
        <pt x="664" y="1091" on="0"/>
        <pt x="670" y="1078" on="1"/>
        <pt x="871" y="640" on="1"/>
        <pt x="1400" y="640" on="1"/>
        <pt x="1533" y="640" on="0"/>
        <pt x="1720" y="453" on="0"/>
        <pt x="1720" y="320" on="1"/>
        <pt x="1720" y="187" on="0"/>
        <pt x="1533" y="0" on="0"/>
        <pt x="1400" y="0" on="1"/>
      </contour>
      <contour>
        <pt x="945" y="480" on="1"/>
        <pt x="1092" y="160" on="1"/>
        <pt x="1400" y="160" on="1"/>
        <pt x="1466" y="160" on="0"/>
        <pt x="1560" y="254" on="0"/>
        <pt x="1560" y="320" on="1"/>
        <pt x="1560" y="386" on="0"/>
        <pt x="1466" y="480" on="0"/>
        <pt x="1400" y="480" on="1"/>
      </contour>
    </TTGlyph>
    <TTGlyph name="afii10107" xMin="80" yMin="0" xMax="1681" yMax="1120">
      <contour>
        <pt x="1000" y="480" on="1"/>
        <pt x="1000" y="160" on="1"/>
        <pt x="1361" y="160" on="1"/>
        <pt x="1427" y="160" on="0"/>
        <pt x="1521" y="254" on="0"/>
        <pt x="1521" y="320" on="1"/>
        <pt x="1521" y="386" on="0"/>
        <pt x="1427" y="480" on="0"/>
        <pt x="1361" y="480" on="1"/>
      </contour>
      <contour>
        <pt x="1000" y="640" on="1"/>
        <pt x="1361" y="640" on="1"/>
        <pt x="1494" y="640" on="0"/>
        <pt x="1681" y="453" on="0"/>
        <pt x="1681" y="320" on="1"/>
        <pt x="1681" y="187" on="0"/>
        <pt x="1494" y="0" on="0"/>
        <pt x="1361" y="0" on="1"/>
        <pt x="920" y="0" on="1"/>
        <pt x="887" y="0" on="0"/>
        <pt x="840" y="47" on="0"/>
        <pt x="840" y="80" on="1"/>
        <pt x="840" y="480" on="1"/>
        <pt x="240" y="480" on="1"/>
        <pt x="240" y="80" on="1"/>
        <pt x="240" y="47" on="0"/>
        <pt x="193" y="0" on="0"/>
        <pt x="160" y="0" on="1"/>
        <pt x="127" y="0" on="0"/>
        <pt x="80" y="47" on="0"/>
        <pt x="80" y="80" on="1"/>
        <pt x="80" y="1040" on="1"/>
        <pt x="80" y="1073" on="0"/>
        <pt x="127" y="1120" on="0"/>
        <pt x="160" y="1120" on="1"/>
        <pt x="193" y="1120" on="0"/>
        <pt x="240" y="1073" on="0"/>
        <pt x="240" y="1040" on="1"/>
        <pt x="240" y="640" on="1"/>
        <pt x="840" y="640" on="1"/>
        <pt x="840" y="1040" on="1"/>
        <pt x="840" y="1073" on="0"/>
        <pt x="887" y="1120" on="0"/>
        <pt x="920" y="1120" on="1"/>
        <pt x="953" y="1120" on="0"/>
        <pt x="1000" y="1073" on="0"/>
        <pt x="1000" y="1040" on="1"/>
      </contour>
    </TTGlyph>
    <TTGlyph name="afii10108" xMin="40" yMin="0" xMax="1240" yMax="1600">
      <component glyphName="hbar" x="0" y="0" flags="0x200"/>
    </TTGlyph>
    <TTGlyph name="afii10109" xMin="80" yMin="0" xMax="960" yMax="1600">
      <component glyphName="afii10076" x="0" y="0" flags="0x200"/>
      <component glyphName="acute" x="307" y="0" flags="0x0"/>
    </TTGlyph>
    <TTGlyph name="afii10110" xMin="80" yMin="-480" xMax="1040" yMax="1560">
      <component glyphName="y" x="0" y="0" flags="0x200"/>
      <component glyphName="breve" x="166" y="0" flags="0x0"/>
    </TTGlyph>
</ttFont>
